<svg width="122" height="43" viewBox="0 0 122 43" fill="none" xmlns="http://www.w3.org/2000/svg">
<path d="M9.06611 30.9408L0 40.0048L2.99523 43L12.0592 33.9339C15.4318 36.6375 19.6267 38.108 23.9491 38.1018C34.4652 38.1018 43 29.567 43 19.0509C43 8.5348 34.4652 0 23.9491 0C13.433 0 4.8982 8.5348 4.8982 19.0509C4.89205 23.3733 6.36253 27.5682 9.06611 30.9408ZM13.3123 29.3701C10.6265 26.6071 9.12634 22.9042 9.13173 19.0509C9.13173 10.8654 15.7636 4.23353 23.9491 4.23353C32.1346 4.23353 38.7665 10.8654 38.7665 19.0509C38.7665 27.2364 32.1346 33.8683 23.9491 33.8683C20.0958 33.8737 16.3929 32.3735 13.6299 29.6877L13.3123 29.3701Z" fill="#E8F7FF"/>
<path d="M6.24109 12.7218V12.6264C7.5741 8.95725 9.99281 5.78941 13.1701 3.55139C16.3473 1.31338 20.1297 0.113196 24.0057 0.113196C27.8817 0.113196 31.6641 1.31338 34.8413 3.55139C38.0186 5.78941 40.4373 8.95725 41.7703 12.6264C41.7703 12.6264 41.7703 12.6264 41.7703 12.7218C43.259 16.8622 43.259 21.3981 41.7703 25.5385V25.6339C40.4373 29.303 38.0186 32.4709 34.8413 34.7089C31.6641 36.9469 27.8817 38.1471 24.0057 38.1471C20.1297 38.1471 16.3473 36.9469 13.1701 34.7089C9.99281 32.4709 7.5741 29.303 6.24109 25.6339C6.24109 25.6339 6.24109 25.6339 6.24109 25.5385C4.75243 21.3981 4.75243 16.8622 6.24109 12.7218ZM38.6866 22.9447C39.3444 20.4449 39.3444 17.8154 38.6866 15.3156H35.1677C35.4709 17.8494 35.4709 20.4108 35.1677 22.9447H38.6866ZM37.1352 26.7592H34.4866C34.0449 28.4609 33.4101 30.1057 32.5948 31.6608C34.4501 30.3866 36.0011 28.7123 37.1352 26.7592ZM34.4866 11.5011H37.1352C36.0174 9.55396 34.4863 7.88011 32.6515 6.59945C33.4473 8.15714 34.0631 9.80179 34.4866 11.5011ZM25.9354 33.816C28.2591 32.097 29.891 29.5919 30.5326 26.7592H25.9354V33.816ZM25.9354 22.9447H31.3461C31.6982 20.414 31.6982 17.8463 31.3461 15.3156H25.9354V22.9447ZM25.9354 11.5011H30.5326C29.891 8.66839 28.2591 6.1633 25.9354 4.44425V11.5011ZM10.9518 11.5011H13.6004C14.0421 9.79936 14.6769 8.15462 15.4923 6.59945C13.6369 7.87364 12.086 9.54796 10.9518 11.5011ZM22.1517 4.44425C19.828 6.1633 18.1961 8.66839 17.5544 11.5011H22.1517V4.44425ZM22.1517 33.816V26.7592H17.5544C18.1961 29.5919 19.828 32.097 22.1517 33.816ZM16.7409 22.9447H22.1517V15.3156H16.7409C16.3889 17.8463 16.3889 20.414 16.7409 22.9447ZM15.4356 31.6608C14.6202 30.1057 13.9854 28.4609 13.5437 26.7592H10.8951C12.0292 28.7123 13.5802 30.3866 15.4356 31.6608ZM9.4005 22.9447H12.9194C12.7647 21.6792 12.6889 20.4052 12.6923 19.1301C12.6889 17.8551 12.7647 16.5811 12.9194 15.3156H9.4005C8.74271 17.8154 8.74271 20.4449 9.4005 22.9447Z" fill="#E8F7FF"/>
<path d="M51.24 12.232H60.072C62.504 12.232 64.424 12.424 65.832 12.808C67.24 13.1707 68.2747 13.8107 68.936 14.728C69.5973 15.6453 69.928 16.9147 69.928 18.536V26.984C69.928 28.5627 69.6187 29.7893 69 30.664C68.3813 31.5173 67.368 32.1253 65.96 32.488C64.552 32.8293 62.6 33 60.104 33H51.24V12.232ZM59.88 29.448C61.2453 29.448 62.2693 29.3947 62.952 29.288C63.656 29.16 64.1573 28.9253 64.456 28.584C64.776 28.2427 64.936 27.7093 64.936 26.984V18.44C64.936 17.4587 64.5413 16.776 63.752 16.392C62.984 15.9867 61.7467 15.784 60.04 15.784H56.232V29.448H59.88ZM71.3988 12.232H76.3908V29.448H86.5988V33H71.3988V12.232ZM87.4013 12.232H103.561V15.784H92.3933V20.872H102.505V24.424H92.3933V33H87.4013V12.232ZM111.092 33.32C109.108 33.32 106.655 33.128 103.732 32.744V28.936C107.359 29.4907 109.834 29.768 111.156 29.768C113.93 29.768 115.317 29.0533 115.317 27.624V26.28C115.317 25.5973 115.114 25.0747 114.708 24.712C114.325 24.3493 113.621 24.168 112.597 24.168H110.165C105.599 24.168 103.316 22.3547 103.316 18.728V17.192C103.316 15.3787 104.074 14.0453 105.588 13.192C107.103 12.3387 109.503 11.912 112.788 11.912C114.495 11.912 116.661 12.0507 119.285 12.328V16.04C116.063 15.656 113.845 15.464 112.628 15.464C110.943 15.464 109.813 15.6027 109.237 15.88C108.618 16.1787 108.308 16.648 108.308 17.288V18.76C108.308 19.848 109.226 20.392 111.061 20.392H113.557C115.925 20.392 117.642 20.8293 118.708 21.704C119.775 22.5787 120.309 23.912 120.309 25.704V27.08C120.309 29.5547 119.423 31.2293 117.653 32.104C116.799 32.552 115.85 32.8613 114.805 33.032C113.781 33.224 112.543 33.32 111.092 33.32Z" fill="#E8F7FF"/>
</svg>
