<svg width="49" height="48" viewBox="0 0 49 48" fill="none" xmlns="http://www.w3.org/2000/svg">
<circle cx="24.9366" cy="23.9678" r="17.5" transform="rotate(120.567 24.9366 23.9678)" fill="#047EAF"/>
<path d="M9.34572 35.1054L0.361978 44.251L3.38418 47.2191L12.3658 38.0713C15.7627 40.7443 19.9707 42.1767 24.2929 42.1315C34.8085 42.0363 43.2658 33.4247 43.1706 22.909C43.0755 12.3933 34.4638 3.9361 23.9482 4.03124C13.4325 4.12638 4.97526 12.7381 5.0704 23.2537C5.10336 27.576 6.61174 31.7574 9.34572 35.1054ZM13.5776 33.4964C10.8668 30.7578 9.33323 27.0686 9.30377 23.2154C9.22971 15.0302 15.8013 8.33866 23.9865 8.2646C32.1717 8.19055 38.8632 14.7621 38.9373 22.9473C39.0113 31.1325 32.4398 37.8241 24.2546 37.8981C20.4015 37.9384 16.6851 36.4718 13.8979 33.811L13.5776 33.4964Z" fill="#FDBA14"/>
<path d="M6.35598 16.9127L6.35512 16.8173C7.65488 13.1363 10.0448 9.94668 13.2017 7.68001C16.3586 5.41334 20.13 4.17899 24.0058 4.14392C27.8816 4.10886 31.6747 5.27477 34.8721 7.48395C38.0694 9.69313 40.5167 12.839 41.8829 16.4959C41.8829 16.4959 41.8829 16.4959 41.8837 16.5912C43.4098 20.7181 43.4508 25.2537 41.9997 29.4075L42.0006 29.5029C40.7008 33.1839 38.3108 36.3735 35.154 38.6402C31.9971 40.9068 28.2257 42.1412 24.3499 42.1763C20.4741 42.2113 16.6809 41.0454 13.4836 38.8362C10.2862 36.627 7.83894 33.4812 6.4728 29.8243C6.4728 29.8243 6.4728 29.8243 6.47193 29.7289C4.94587 25.6021 4.90484 21.0664 6.35598 16.9127ZM38.8926 26.8416C39.5278 24.336 39.504 21.7066 38.8236 19.2129L35.3049 19.2447C35.631 21.7757 35.6541 24.337 35.3739 26.8735L38.8926 26.8416ZM37.3759 30.67L34.7274 30.694C34.3011 32.3997 33.6812 34.0501 32.8799 35.6126C34.7237 34.3216 36.2594 32.6333 37.3759 30.67ZM34.5893 15.4365L37.2378 15.4126C36.1024 13.4756 34.5562 11.8157 32.7099 10.5517C33.5198 12.1021 34.1504 13.7411 34.5893 15.4365ZM26.2403 37.8279C28.5483 36.0879 30.1576 33.5682 30.7735 30.7298L26.1765 30.7713L26.2403 37.8279ZM26.142 26.957L31.5525 26.908C31.8816 24.3743 31.8584 21.8067 31.4835 19.2793L26.0729 19.3283L26.142 26.957ZM26.0384 15.5139L30.6355 15.4723C29.9683 12.6455 28.3137 10.1553 25.9746 8.45734L26.0384 15.5139ZM11.0555 15.6495L13.704 15.6255C14.1303 13.9198 14.7502 12.2694 15.5514 10.7069C13.7077 11.9978 12.1719 13.6861 11.0555 15.6495ZM22.191 8.49157C19.883 10.2316 18.2738 12.7513 17.6578 15.5897L22.2549 15.5481L22.191 8.49157ZM22.4567 37.8621L22.3929 30.8056L17.7959 30.8472C18.4631 33.674 20.1176 36.1642 22.4567 37.8621ZM16.9479 27.0402L22.3584 26.9912L22.2894 19.3625L16.8789 19.4115C16.5497 21.9452 16.573 24.5128 16.9479 27.0402ZM15.7214 35.7678C14.892 34.2201 14.2423 32.5811 13.7853 30.8835L11.1368 30.9074C12.2886 32.8502 13.8546 34.5104 15.7214 35.7678ZM9.60775 27.1066L13.1265 27.0747C12.9604 25.8107 12.873 24.5375 12.8649 23.2624C12.85 21.9875 12.9143 20.7128 13.0575 19.446L9.53873 19.4779C8.90358 21.9835 8.92737 24.6129 9.60775 27.1066Z" fill="#FDBA14"/>
</svg>
