<svg width="153" height="58" viewBox="0 0 153 58" fill="none" xmlns="http://www.w3.org/2000/svg">
<rect width="152.18" height="58" rx="13" fill="#FFF200"/>
<circle cx="40.0745" cy="29" r="17.5" transform="rotate(120.567 40.0745 29)" fill="#047EAF"/>
<path d="M24.4836 40.1376L15.4999 49.2833L18.5221 52.2513L27.5037 43.1035C30.9006 45.7765 35.1086 47.209 39.4308 47.1637C49.9465 47.0686 58.4037 38.4569 58.3086 27.9412C58.2134 17.4256 49.6017 8.96833 39.0861 9.06347C28.5704 9.15861 20.1132 17.7703 20.2083 28.2859C20.2413 32.6083 21.7496 36.7897 24.4836 40.1376ZM28.7155 38.5286C26.0047 35.7901 24.4711 32.1008 24.4417 28.2476C24.3676 20.0624 30.9392 13.3709 39.1244 13.2968C47.3096 13.2228 54.0011 19.7943 54.0752 27.9795C54.1492 36.1647 47.5777 42.8563 39.3925 42.9303C35.5394 42.9706 31.823 41.504 29.0358 38.8433L28.7155 38.5286Z" fill="#FDBA14"/>
<path d="M21.4939 21.9449L21.493 21.8495C22.7928 18.1685 25.1827 14.9789 28.3396 12.7122C31.4965 10.4456 35.2679 9.21121 39.1437 9.17615C43.0195 9.14108 46.8126 10.307 50.01 12.5162C53.2074 14.7254 55.6546 17.8712 57.0208 21.5281C57.0208 21.5281 57.0208 21.5281 57.0217 21.6235C58.5477 25.7503 58.5887 30.286 57.1376 34.4397L57.1385 34.5351C55.8387 38.2161 53.4487 41.4057 50.2919 43.6724C47.135 45.9391 43.3636 47.1734 39.4878 47.2085C35.612 47.2435 31.8189 46.0776 28.6215 43.8685C25.4241 41.6593 22.9769 38.5134 21.6107 34.8565C21.6107 34.8565 21.6107 34.8565 21.6098 34.7612C20.0838 30.6343 20.0427 26.0987 21.4939 21.9449ZM54.0305 31.8739C54.6657 29.3682 54.6419 26.7389 53.9615 24.2451L50.4428 24.277C50.7689 26.8079 50.7921 29.3692 50.5118 31.9057L54.0305 31.8739ZM52.5138 35.7022L49.8653 35.7262C49.439 37.4319 48.8191 39.0823 48.0178 40.6448C49.8616 39.3539 51.3973 37.6656 52.5138 35.7022ZM49.7272 20.4688L52.3757 20.4448C51.2403 18.5079 49.6941 16.8479 47.8478 15.5839C48.6577 17.1343 49.2883 18.7734 49.7272 20.4688ZM41.3782 42.8601C43.6862 41.1201 45.2955 38.6004 45.9114 35.762L41.3144 35.8036L41.3782 42.8601ZM41.2799 31.9892L46.6904 31.9403C47.0195 29.4066 46.9963 26.8389 46.6214 24.3115L41.2109 24.3605L41.2799 31.9892ZM41.1763 20.5461L45.7734 20.5045C45.1062 17.6777 43.4516 15.1875 41.1125 13.4896L41.1763 20.5461ZM26.1934 20.6817L28.8419 20.6577C29.2682 18.9521 29.8881 17.3016 30.6893 15.7392C28.8456 17.0301 27.3098 18.7184 26.1934 20.6817ZM37.3289 13.5238C35.0209 15.2638 33.4117 17.7835 32.7957 20.622L37.3928 20.5804L37.3289 13.5238ZM37.5947 42.8944L37.5308 35.8378L32.9338 35.8794C33.601 38.7062 35.2555 41.1964 37.5947 42.8944ZM32.0858 32.0724L37.4963 32.0234L37.4273 24.3947L32.0168 24.4437C31.6876 26.9774 31.7109 29.5451 32.0858 32.0724ZM30.8593 40.8C30.0299 39.2523 29.3802 37.6134 28.9232 35.9157L26.2747 35.9396C27.4265 37.8825 28.9925 39.5427 30.8593 40.8ZM24.7457 32.1388L28.2644 32.107C28.0983 30.8429 28.0109 29.5697 28.0029 28.2947C27.9879 27.0197 28.0522 25.7451 28.1954 24.4783L24.6766 24.5101C24.0415 27.0157 24.0653 29.6451 24.7457 32.1388Z" fill="#FDBA14"/>
<mask id="path-4-outside-1_3899_2489" maskUnits="userSpaceOnUse" x="47.0422" y="15" width="90" height="30" fill="black">
<rect fill="white" x="47.0422" y="15" width="90" height="30"/>
<path d="M48.8422 17.04H59.8822C62.9222 17.04 65.3222 17.28 67.0822 17.76C68.8422 18.2133 70.1355 19.0133 70.9622 20.16C71.7889 21.3067 72.2022 22.8933 72.2022 24.92V35.48C72.2022 37.4533 71.8155 38.9867 71.0422 40.08C70.2689 41.1467 69.0022 41.9067 67.2422 42.36C65.4822 42.7867 63.0422 43 59.9222 43H48.8422V17.04ZM59.6422 38.56C61.3489 38.56 62.6289 38.4933 63.4822 38.36C64.3622 38.2 64.9889 37.9067 65.3622 37.48C65.7622 37.0533 65.9622 36.3867 65.9622 35.48V24.8C65.9622 23.5733 65.4689 22.72 64.4822 22.24C63.5222 21.7333 61.9755 21.48 59.8422 21.48H55.0822V38.56H59.6422ZM74.0406 17.04H80.2806V38.56H93.0406V43H74.0406V17.04ZM94.0438 17.04H114.244V21.48H100.284V27.84H112.924V32.28H100.284V43H94.0438V17.04ZM123.658 43.4C121.178 43.4 118.111 43.16 114.458 42.68V37.92C118.991 38.6133 122.084 38.96 123.738 38.96C127.204 38.96 128.938 38.0667 128.938 36.28V34.6C128.938 33.7467 128.684 33.0933 128.178 32.64C127.698 32.1867 126.818 31.96 125.538 31.96H122.498C116.791 31.96 113.938 29.6933 113.938 25.16V23.24C113.938 20.9733 114.884 19.3067 116.778 18.24C118.671 17.1733 121.671 16.64 125.778 16.64C127.911 16.64 130.618 16.8133 133.898 17.16V21.8C129.871 21.32 127.098 21.08 125.578 21.08C123.471 21.08 122.058 21.2533 121.338 21.6C120.564 21.9733 120.178 22.56 120.178 23.36V25.2C120.178 26.56 121.324 27.24 123.618 27.24H126.738C129.698 27.24 131.844 27.7867 133.178 28.88C134.511 29.9733 135.178 31.64 135.178 33.88V35.6C135.178 38.6933 134.071 40.7867 131.858 41.88C130.791 42.44 129.604 42.8267 128.298 43.04C127.018 43.28 125.471 43.4 123.658 43.4Z"/>
</mask>
<path d="M48.8422 17.04H59.8822C62.9222 17.04 65.3222 17.28 67.0822 17.76C68.8422 18.2133 70.1355 19.0133 70.9622 20.16C71.7889 21.3067 72.2022 22.8933 72.2022 24.92V35.48C72.2022 37.4533 71.8155 38.9867 71.0422 40.08C70.2689 41.1467 69.0022 41.9067 67.2422 42.36C65.4822 42.7867 63.0422 43 59.9222 43H48.8422V17.04ZM59.6422 38.56C61.3489 38.56 62.6289 38.4933 63.4822 38.36C64.3622 38.2 64.9889 37.9067 65.3622 37.48C65.7622 37.0533 65.9622 36.3867 65.9622 35.48V24.8C65.9622 23.5733 65.4689 22.72 64.4822 22.24C63.5222 21.7333 61.9755 21.48 59.8422 21.48H55.0822V38.56H59.6422ZM74.0406 17.04H80.2806V38.56H93.0406V43H74.0406V17.04ZM94.0438 17.04H114.244V21.48H100.284V27.84H112.924V32.28H100.284V43H94.0438V17.04ZM123.658 43.4C121.178 43.4 118.111 43.16 114.458 42.68V37.92C118.991 38.6133 122.084 38.96 123.738 38.96C127.204 38.96 128.938 38.0667 128.938 36.28V34.6C128.938 33.7467 128.684 33.0933 128.178 32.64C127.698 32.1867 126.818 31.96 125.538 31.96H122.498C116.791 31.96 113.938 29.6933 113.938 25.16V23.24C113.938 20.9733 114.884 19.3067 116.778 18.24C118.671 17.1733 121.671 16.64 125.778 16.64C127.911 16.64 130.618 16.8133 133.898 17.16V21.8C129.871 21.32 127.098 21.08 125.578 21.08C123.471 21.08 122.058 21.2533 121.338 21.6C120.564 21.9733 120.178 22.56 120.178 23.36V25.2C120.178 26.56 121.324 27.24 123.618 27.24H126.738C129.698 27.24 131.844 27.7867 133.178 28.88C134.511 29.9733 135.178 31.64 135.178 33.88V35.6C135.178 38.6933 134.071 40.7867 131.858 41.88C130.791 42.44 129.604 42.8267 128.298 43.04C127.018 43.28 125.471 43.4 123.658 43.4Z" fill="#047EAF"/>
<path d="M48.8422 17.04V16.04C48.2899 16.04 47.8422 16.4877 47.8422 17.04H48.8422ZM67.0822 17.76L66.8191 18.7248C66.8236 18.726 66.8282 18.7272 66.8328 18.7284L67.0822 17.76ZM70.9622 20.16L71.7734 19.5752H71.7734L70.9622 20.16ZM71.0422 40.08L71.8519 40.667L71.8586 40.6575L71.0422 40.08ZM67.2422 42.36L67.4778 43.3319C67.4824 43.3307 67.487 43.3296 67.4916 43.3284L67.2422 42.36ZM48.8422 43H47.8422C47.8422 43.5523 48.2899 44 48.8422 44V43ZM63.4822 38.36L63.6366 39.348C63.6448 39.3467 63.6529 39.3454 63.6611 39.3439L63.4822 38.36ZM65.3622 37.48L64.6327 36.7961C64.6248 36.8044 64.6172 36.8129 64.6096 36.8215L65.3622 37.48ZM64.4822 22.24L64.0154 23.1244C64.0251 23.1295 64.0349 23.1344 64.0447 23.1392L64.4822 22.24ZM55.0822 21.48V20.48C54.5299 20.48 54.0822 20.9277 54.0822 21.48H55.0822ZM55.0822 38.56H54.0822C54.0822 39.1123 54.5299 39.56 55.0822 39.56V38.56ZM48.8422 17.04V18.04H59.8822V17.04V16.04H48.8422V17.04ZM59.8822 17.04V18.04C62.8839 18.04 65.1828 18.2785 66.8191 18.7248L67.0822 17.76L67.3453 16.7952C65.4616 16.2815 62.9605 16.04 59.8822 16.04V17.04ZM67.0822 17.76L66.8328 18.7284C68.4323 19.1404 69.4961 19.8364 70.151 20.7448L70.9622 20.16L71.7734 19.5752C70.7749 18.1903 69.2521 17.2863 67.3316 16.7916L67.0822 17.76ZM70.9622 20.16L70.151 20.7448C70.8121 21.6617 71.2022 23.0156 71.2022 24.92H72.2022H73.2022C73.2022 22.7711 72.7657 20.9516 71.7734 19.5752L70.9622 20.16ZM72.2022 24.92H71.2022V35.48H72.2022H73.2022V24.92H72.2022ZM72.2022 35.48H71.2022C71.2022 37.3396 70.8353 38.6408 70.2258 39.5025L71.0422 40.08L71.8586 40.6575C72.7958 39.3325 73.2022 37.5671 73.2022 35.48H72.2022ZM71.0422 40.08L70.2326 39.493C69.6398 40.3107 68.6123 40.9745 66.9928 41.3916L67.2422 42.36L67.4916 43.3284C69.3921 42.8389 70.8979 41.9827 71.8518 40.667L71.0422 40.08ZM67.2422 42.36L67.0066 41.3881C65.3596 41.7874 63.0111 42 59.9222 42V43V44C63.0734 44 65.6048 43.7859 67.4778 43.3319L67.2422 42.36ZM59.9222 43V42H48.8422V43V44H59.9222V43ZM48.8422 43H49.8422V17.04H48.8422H47.8422V43H48.8422ZM59.6422 38.56V39.56C61.3609 39.56 62.7041 39.4937 63.6366 39.348L63.4822 38.36L63.3278 37.372C62.5537 37.4929 61.3368 37.56 59.6422 37.56V38.56ZM63.4822 38.36L63.6611 39.3439C64.643 39.1653 65.5281 38.809 66.1148 38.1385L65.3622 37.48L64.6096 36.8215C64.4497 37.0043 64.0814 37.2347 63.3033 37.3761L63.4822 38.36ZM65.3622 37.48L66.0917 38.1639C66.7399 37.4726 66.9622 36.5057 66.9622 35.48H65.9622H64.9622C64.9622 36.2676 64.7845 36.6341 64.6327 36.7961L65.3622 37.48ZM65.9622 35.48H66.9622V24.8H65.9622H64.9622V35.48H65.9622ZM65.9622 24.8H66.9622C66.9622 24.0535 66.8116 23.3513 66.4579 22.7395C66.1003 22.1209 65.5712 21.6577 64.9197 21.3408L64.4822 22.24L64.0447 23.1392C64.3798 23.3023 64.5907 23.5057 64.7265 23.7405C64.8661 23.982 64.9622 24.3199 64.9622 24.8H65.9622ZM64.4822 22.24L64.949 21.3556C63.7633 20.7299 62.0099 20.48 59.8422 20.48V21.48V22.48C61.9412 22.48 63.2811 22.7368 64.0154 23.1244L64.4822 22.24ZM59.8422 21.48V20.48H55.0822V21.48V22.48H59.8422V21.48ZM55.0822 21.48H54.0822V38.56H55.0822H56.0822V21.48H55.0822ZM55.0822 38.56V39.56H59.6422V38.56V37.56H55.0822V38.56ZM74.0406 17.04V16.04C73.4884 16.04 73.0406 16.4877 73.0406 17.04H74.0406ZM80.2806 17.04H81.2806C81.2806 16.4877 80.8329 16.04 80.2806 16.04V17.04ZM80.2806 38.56H79.2806C79.2806 39.1123 79.7284 39.56 80.2806 39.56V38.56ZM93.0406 38.56H94.0406C94.0406 38.0077 93.5929 37.56 93.0406 37.56V38.56ZM93.0406 43V44C93.5929 44 94.0406 43.5523 94.0406 43H93.0406ZM74.0406 43H73.0406C73.0406 43.5523 73.4884 44 74.0406 44V43ZM74.0406 17.04V18.04H80.2806V17.04V16.04H74.0406V17.04ZM80.2806 17.04H79.2806V38.56H80.2806H81.2806V17.04H80.2806ZM80.2806 38.56V39.56H93.0406V38.56V37.56H80.2806V38.56ZM93.0406 38.56H92.0406V43H93.0406H94.0406V38.56H93.0406ZM93.0406 43V42H74.0406V43V44H93.0406V43ZM74.0406 43H75.0406V17.04H74.0406H73.0406V43H74.0406ZM94.0438 17.04V16.04C93.4915 16.04 93.0438 16.4877 93.0438 17.04H94.0438ZM114.244 17.04H115.244C115.244 16.4877 114.796 16.04 114.244 16.04V17.04ZM114.244 21.48V22.48C114.796 22.48 115.244 22.0323 115.244 21.48H114.244ZM100.284 21.48V20.48C99.7315 20.48 99.2838 20.9277 99.2838 21.48H100.284ZM100.284 27.84H99.2838C99.2838 28.3923 99.7315 28.84 100.284 28.84V27.84ZM112.924 27.84H113.924C113.924 27.2877 113.476 26.84 112.924 26.84V27.84ZM112.924 32.28V33.28C113.476 33.28 113.924 32.8323 113.924 32.28H112.924ZM100.284 32.28V31.28C99.7315 31.28 99.2838 31.7277 99.2838 32.28H100.284ZM100.284 43V44C100.836 44 101.284 43.5523 101.284 43H100.284ZM94.0438 43H93.0438C93.0438 43.5523 93.4915 44 94.0438 44V43ZM94.0438 17.04V18.04H114.244V17.04V16.04H94.0438V17.04ZM114.244 17.04H113.244V21.48H114.244H115.244V17.04H114.244ZM114.244 21.48V20.48H100.284V21.48V22.48H114.244V21.48ZM100.284 21.48H99.2838V27.84H100.284H101.284V21.48H100.284ZM100.284 27.84V28.84H112.924V27.84V26.84H100.284V27.84ZM112.924 27.84H111.924V32.28H112.924H113.924V27.84H112.924ZM112.924 32.28V31.28H100.284V32.28V33.28H112.924V32.28ZM100.284 32.28H99.2838V43H100.284H101.284V32.28H100.284ZM100.284 43V42H94.0438V43V44H100.284V43ZM94.0438 43H95.0438V17.04H94.0438H93.0438V43H94.0438ZM114.458 42.68H113.458C113.458 43.1819 113.83 43.6061 114.328 43.6715L114.458 42.68ZM114.458 37.92L114.609 36.9315C114.321 36.8874 114.028 36.9713 113.806 37.1613C113.585 37.3513 113.458 37.6284 113.458 37.92H114.458ZM128.178 32.64L127.491 33.367C127.498 33.3732 127.504 33.3793 127.511 33.3852L128.178 32.64ZM116.778 18.24L117.269 19.1112V19.1112L116.778 18.24ZM133.898 17.16H134.898C134.898 16.6484 134.512 16.2193 134.003 16.1655L133.898 17.16ZM133.898 21.8L133.779 22.793C134.063 22.8268 134.348 22.7376 134.562 22.5478C134.776 22.358 134.898 22.0858 134.898 21.8H133.898ZM121.338 21.6L120.904 20.699L120.903 20.6994L121.338 21.6ZM133.178 28.88L132.544 29.6533V29.6533L133.178 28.88ZM131.858 41.88L131.415 40.9834C131.408 40.9871 131.4 40.9908 131.393 40.9946L131.858 41.88ZM128.298 43.04L128.137 42.0531C128.129 42.0543 128.121 42.0557 128.114 42.0571L128.298 43.04ZM123.658 43.4V42.4C121.237 42.4 118.217 42.1653 114.588 41.6885L114.458 42.68L114.328 43.6715C118.006 44.1547 121.119 44.4 123.658 44.4V43.4ZM114.458 42.68H115.458V37.92H114.458H113.458V42.68H114.458ZM114.458 37.92L114.307 38.9085C118.832 39.6006 121.997 39.96 123.738 39.96V38.96V37.96C122.172 37.96 119.151 37.6261 114.609 36.9315L114.458 37.92ZM123.738 38.96V39.96C125.525 39.96 127.017 39.7352 128.096 39.1789C128.65 38.8932 129.122 38.5065 129.453 37.9956C129.786 37.4799 129.938 36.8956 129.938 36.28H128.938H127.938C127.938 36.5578 127.873 36.7551 127.773 36.9094C127.67 37.0685 127.492 37.2401 127.18 37.4011C126.526 37.7381 125.418 37.96 123.738 37.96V38.96ZM128.938 36.28H129.938V34.6H128.938H127.938V36.28H128.938ZM128.938 34.6H129.938C129.938 33.5401 129.615 32.5842 128.845 31.8948L128.178 32.64L127.511 33.3852C127.754 33.6025 127.938 33.9532 127.938 34.6H128.938ZM128.178 32.64L128.864 31.913C128.088 31.18 126.864 30.96 125.538 30.96V31.96V32.96C126.772 32.96 127.307 33.1934 127.491 33.367L128.178 32.64ZM125.538 31.96V30.96H122.498V31.96V32.96H125.538V31.96ZM122.498 31.96V30.96C119.75 30.96 117.874 30.4098 116.7 29.477C115.569 28.579 114.938 27.2035 114.938 25.16H113.938H112.938C112.938 27.6498 113.733 29.6743 115.456 31.043C117.135 32.3768 119.539 32.96 122.498 32.96V31.96ZM113.938 25.16H114.938V23.24H113.938H112.938V25.16H113.938ZM113.938 23.24H114.938C114.938 21.3152 115.706 19.9915 117.269 19.1112L116.778 18.24L116.287 17.3688C114.063 18.6219 112.938 20.6315 112.938 23.24H113.938ZM116.778 18.24L117.269 19.1112C118.93 18.1751 121.715 17.64 125.778 17.64V16.64V15.64C121.627 15.64 118.412 16.1716 116.287 17.3688L116.778 18.24ZM125.778 16.64V17.64C127.863 17.64 130.531 17.8097 133.793 18.1545L133.898 17.16L134.003 16.1655C130.705 15.8169 127.96 15.64 125.778 15.64V16.64ZM133.898 17.16H132.898V21.8H133.898H134.898V17.16H133.898ZM133.898 21.8L134.016 20.807C129.994 20.3276 127.165 20.08 125.578 20.08V21.08V22.08C127.03 22.08 129.748 22.3124 133.779 22.793L133.898 21.8ZM125.578 21.08V20.08C124.501 20.08 123.577 20.1241 122.816 20.2174C122.072 20.3087 121.411 20.455 120.904 20.699L121.338 21.6L121.772 22.501C121.985 22.3983 122.39 22.2846 123.06 22.2026C123.712 22.1226 124.548 22.08 125.578 22.08V21.08ZM121.338 21.6L120.903 20.6994C120.39 20.9472 119.945 21.2954 119.633 21.7697C119.317 22.2482 119.178 22.7923 119.178 23.36H120.178H121.178C121.178 23.1277 121.232 22.9784 121.303 22.8703C121.377 22.758 121.512 22.6261 121.773 22.5006L121.338 21.6ZM120.178 23.36H119.178V25.2H120.178H121.178V23.36H120.178ZM120.178 25.2H119.178C119.178 26.2243 119.643 27.0656 120.528 27.5901C121.33 28.066 122.405 28.24 123.618 28.24V27.24V26.24C122.537 26.24 121.892 26.074 121.548 25.8699C121.286 25.7144 121.178 25.5357 121.178 25.2H120.178ZM123.618 27.24V28.24H126.738V27.24V26.24H123.618V27.24ZM126.738 27.24V28.24C129.617 28.24 131.479 28.7798 132.544 29.6533L133.178 28.88L133.812 28.1067C132.21 26.7936 129.779 26.24 126.738 26.24V27.24ZM133.178 28.88L132.544 29.6533C133.58 30.5029 134.178 31.843 134.178 33.88H135.178H136.178C136.178 31.437 135.442 29.4437 133.812 28.1067L133.178 28.88ZM135.178 33.88H134.178V35.6H135.178H136.178V33.88H135.178ZM135.178 35.6H134.178C134.178 38.4282 133.195 40.1043 131.415 40.9834L131.858 41.88L132.301 42.7766C134.948 41.469 136.178 38.9584 136.178 35.6H135.178ZM131.858 41.88L131.393 40.9946C130.43 41.5 129.348 41.8553 128.137 42.0531L128.298 43.04L128.459 44.0269C129.861 43.798 131.152 43.38 132.323 42.7654L131.858 41.88ZM128.298 43.04L128.114 42.0571C126.913 42.2823 125.431 42.4 123.658 42.4V43.4V44.4C125.511 44.4 127.123 44.2777 128.482 44.0229L128.298 43.04Z" fill="#FFF200" mask="url(#path-4-outside-1_3899_2489)"/>
</svg>
