<svg width="102" height="25" viewBox="0 0 102 25" fill="none" xmlns="http://www.w3.org/2000/svg">
<rect width="102" height="25" rx="6" fill="#E3FFD4"/>
<path d="M15.986 18L20.424 8.2H21.81L26.262 18H24.792L20.83 8.984H21.39L17.428 18H15.986ZM17.876 15.55L18.254 14.43H23.77L24.176 15.55H17.876ZM31.4619 18.084C30.8459 18.084 30.2812 17.944 29.7679 17.664C29.2639 17.3747 28.8579 16.95 28.5499 16.39C28.2512 15.83 28.1019 15.13 28.1019 14.29C28.1019 13.45 28.2466 12.75 28.5359 12.19C28.8346 11.63 29.2359 11.21 29.7399 10.93C30.2532 10.65 30.8272 10.51 31.4619 10.51C32.1899 10.51 32.8339 10.6687 33.3939 10.986C33.9539 11.3033 34.3972 11.7467 34.7239 12.316C35.0506 12.876 35.2139 13.534 35.2139 14.29C35.2139 15.046 35.0506 15.7087 34.7239 16.278C34.3972 16.8473 33.9539 17.2907 33.3939 17.608C32.8339 17.9253 32.1899 18.084 31.4619 18.084ZM27.5279 20.716V10.58H28.8159V12.582L28.7319 14.304L28.8719 16.026V20.716H27.5279ZM31.3499 16.908C31.8259 16.908 32.2506 16.8007 32.6239 16.586C33.0066 16.3713 33.3052 16.068 33.5199 15.676C33.7439 15.2747 33.8559 14.8127 33.8559 14.29C33.8559 13.758 33.7439 13.3007 33.5199 12.918C33.3052 12.526 33.0066 12.2227 32.6239 12.008C32.2506 11.7933 31.8259 11.686 31.3499 11.686C30.8832 11.686 30.4586 11.7933 30.0759 12.008C29.7026 12.2227 29.4039 12.526 29.1799 12.918C28.9652 13.3007 28.8579 13.758 28.8579 14.29C28.8579 14.8127 28.9652 15.2747 29.1799 15.676C29.4039 16.068 29.7026 16.3713 30.0759 16.586C30.4586 16.8007 30.8832 16.908 31.3499 16.908ZM41.0049 18.084C40.3889 18.084 39.8242 17.944 39.3109 17.664C38.8069 17.3747 38.4009 16.95 38.0929 16.39C37.7942 15.83 37.6449 15.13 37.6449 14.29C37.6449 13.45 37.7895 12.75 38.0789 12.19C38.3775 11.63 38.7789 11.21 39.2829 10.93C39.7962 10.65 40.3702 10.51 41.0049 10.51C41.7329 10.51 42.3769 10.6687 42.9369 10.986C43.4969 11.3033 43.9402 11.7467 44.2669 12.316C44.5935 12.876 44.7569 13.534 44.7569 14.29C44.7569 15.046 44.5935 15.7087 44.2669 16.278C43.9402 16.8473 43.4969 17.2907 42.9369 17.608C42.3769 17.9253 41.7329 18.084 41.0049 18.084ZM37.0709 20.716V10.58H38.3589V12.582L38.2749 14.304L38.4149 16.026V20.716H37.0709ZM40.8929 16.908C41.3689 16.908 41.7935 16.8007 42.1669 16.586C42.5495 16.3713 42.8482 16.068 43.0629 15.676C43.2869 15.2747 43.3989 14.8127 43.3989 14.29C43.3989 13.758 43.2869 13.3007 43.0629 12.918C42.8482 12.526 42.5495 12.2227 42.1669 12.008C41.7935 11.7933 41.3689 11.686 40.8929 11.686C40.4262 11.686 40.0015 11.7933 39.6189 12.008C39.2455 12.2227 38.9469 12.526 38.7229 12.918C38.5082 13.3007 38.4009 13.758 38.4009 14.29C38.4009 14.8127 38.5082 15.2747 38.7229 15.676C38.9469 16.068 39.2455 16.3713 39.6189 16.586C40.0015 16.8007 40.4262 16.908 40.8929 16.908ZM46.6138 18V10.58H47.9018V12.596L47.7758 12.092C47.9812 11.5787 48.3265 11.1867 48.8118 10.916C49.2972 10.6453 49.8945 10.51 50.6038 10.51V11.812C50.5478 11.8027 50.4918 11.798 50.4358 11.798C50.3892 11.798 50.3425 11.798 50.2958 11.798C49.5772 11.798 49.0078 12.0127 48.5878 12.442C48.1678 12.8713 47.9578 13.492 47.9578 14.304V18H46.6138ZM55.37 18.084C54.6233 18.084 53.9606 17.9207 53.382 17.594C52.8033 17.2673 52.346 16.8193 52.01 16.25C51.674 15.6713 51.506 15.018 51.506 14.29C51.506 13.5527 51.674 12.8993 52.01 12.33C52.346 11.7607 52.8033 11.3173 53.382 11C53.9606 10.6733 54.6233 10.51 55.37 10.51C56.1073 10.51 56.7653 10.6733 57.344 11C57.932 11.3173 58.3893 11.7607 58.716 12.33C59.052 12.89 59.22 13.5433 59.22 14.29C59.22 15.0273 59.052 15.6807 58.716 16.25C58.3893 16.8193 57.932 17.2673 57.344 17.594C56.7653 17.9207 56.1073 18.084 55.37 18.084ZM55.37 16.908C55.846 16.908 56.2706 16.8007 56.644 16.586C57.0266 16.3713 57.3253 16.068 57.54 15.676C57.7546 15.2747 57.862 14.8127 57.862 14.29C57.862 13.758 57.7546 13.3007 57.54 12.918C57.3253 12.526 57.0266 12.2227 56.644 12.008C56.2706 11.7933 55.846 11.686 55.37 11.686C54.894 11.686 54.4693 11.7933 54.096 12.008C53.7226 12.2227 53.424 12.526 53.2 12.918C52.976 13.3007 52.864 13.758 52.864 14.29C52.864 14.8127 52.976 15.2747 53.2 15.676C53.424 16.068 53.7226 16.3713 54.096 16.586C54.4693 16.8007 54.894 16.908 55.37 16.908ZM62.8196 18L59.5716 10.58H60.9716L63.8556 17.3H63.1836L66.1236 10.58H67.4396L64.1916 18H62.8196ZM71.7928 18.084C70.9995 18.084 70.2995 17.9207 69.6928 17.594C69.0955 17.2673 68.6288 16.8193 68.2928 16.25C67.9662 15.6807 67.8028 15.0273 67.8028 14.29C67.8028 13.5527 67.9615 12.8993 68.2788 12.33C68.6055 11.7607 69.0488 11.3173 69.6088 11C70.1782 10.6733 70.8175 10.51 71.5268 10.51C72.2455 10.51 72.8802 10.6687 73.4308 10.986C73.9815 11.3033 74.4108 11.7513 74.7188 12.33C75.0362 12.8993 75.1948 13.5667 75.1948 14.332C75.1948 14.388 75.1902 14.4533 75.1808 14.528C75.1808 14.6027 75.1762 14.6727 75.1668 14.738H68.8528V13.772H74.4668L73.9208 14.108C73.9302 13.632 73.8322 13.2073 73.6268 12.834C73.4215 12.4607 73.1368 12.1713 72.7728 11.966C72.4182 11.7513 72.0028 11.644 71.5268 11.644C71.0602 11.644 70.6448 11.7513 70.2808 11.966C69.9168 12.1713 69.6322 12.4653 69.4268 12.848C69.2215 13.2213 69.1188 13.6507 69.1188 14.136V14.36C69.1188 14.8547 69.2308 15.298 69.4548 15.69C69.6882 16.0727 70.0102 16.3713 70.4208 16.586C70.8315 16.8007 71.3028 16.908 71.8348 16.908C72.2735 16.908 72.6702 16.8333 73.0248 16.684C73.3888 16.5347 73.7062 16.3107 73.9768 16.012L74.7188 16.88C74.3828 17.272 73.9628 17.5707 73.4588 17.776C72.9642 17.9813 72.4088 18.084 71.7928 18.084ZM80.1271 18.084C79.4084 18.084 78.7644 17.9253 78.1951 17.608C77.6351 17.2907 77.1918 16.8473 76.8651 16.278C76.5384 15.7087 76.3751 15.046 76.3751 14.29C76.3751 13.534 76.5384 12.876 76.8651 12.316C77.1918 11.7467 77.6351 11.3033 78.1951 10.986C78.7644 10.6687 79.4084 10.51 80.1271 10.51C80.7524 10.51 81.3171 10.65 81.8211 10.93C82.3251 11.21 82.7264 11.63 83.0251 12.19C83.3331 12.75 83.4871 13.45 83.4871 14.29C83.4871 15.13 83.3378 15.83 83.0391 16.39C82.7498 16.95 82.3531 17.3747 81.8491 17.664C81.3451 17.944 80.7711 18.084 80.1271 18.084ZM80.2391 16.908C80.7058 16.908 81.1258 16.8007 81.4991 16.586C81.8818 16.3713 82.1804 16.068 82.3951 15.676C82.6191 15.2747 82.7311 14.8127 82.7311 14.29C82.7311 13.758 82.6191 13.3007 82.3951 12.918C82.1804 12.526 81.8818 12.2227 81.4991 12.008C81.1258 11.7933 80.7058 11.686 80.2391 11.686C79.7631 11.686 79.3384 11.7933 78.9651 12.008C78.5918 12.2227 78.2931 12.526 78.0691 12.918C77.8451 13.3007 77.7331 13.758 77.7331 14.29C77.7331 14.8127 77.8451 15.2747 78.0691 15.676C78.2931 16.068 78.5918 16.3713 78.9651 16.586C79.3384 16.8007 79.7631 16.908 80.2391 16.908ZM82.7731 18V15.998L82.8571 14.276L82.7171 12.554V7.612H84.0611V18H82.7731Z" fill="#00FF2F"/>
</svg>
