<svg width="41" height="16" viewBox="0 0 41 16" fill="none" xmlns="http://www.w3.org/2000/svg">
<rect width="41" height="16" rx="8" fill="#FFD4D4"/>
<path d="M8.5 6.84615V6.38462C8.5 6.01739 8.65804 5.66521 8.93934 5.40554C9.22064 5.14588 9.60218 5 10 5C10.3978 5 10.7794 5.14588 11.0607 5.40554C11.342 5.66521 11.5 6.01739 11.5 6.38462V6.84615M7.25 6.84615C7.1837 6.84615 7.12011 6.87047 7.07322 6.91374C7.02634 6.95702 7 7.01572 7 7.07692V10.1923C7 10.6285 7.4025 11 7.875 11H12.125C12.5975 11 13 10.6465 13 10.2103V7.07692C13 7.01572 12.9737 6.95702 12.9268 6.91374C12.8799 6.87047 12.8163 6.84615 12.75 6.84615H7.25Z" stroke="#FD1414" stroke-width="0.5" stroke-linecap="round" stroke-linejoin="round"/>
<path d="M18.192 8.08C18.544 8.14933 18.8293 8.312 19.048 8.568C19.2667 8.824 19.376 9.128 19.376 9.48C19.376 9.93333 19.2213 10.3013 18.912 10.584C18.6027 10.8613 18.1547 11 17.568 11H15.608V5.36H17.544C18.1093 5.36 18.5333 5.488 18.816 5.744C19.104 5.99467 19.248 6.33333 19.248 6.76C19.248 7.128 19.1493 7.424 18.952 7.648C18.7547 7.86667 18.5013 8.01067 18.192 8.08ZM16.176 7.88H17.472C17.8667 7.88 18.1653 7.78933 18.368 7.608C18.576 7.42133 18.68 7.168 18.68 6.848C18.68 6.53333 18.5787 6.28533 18.376 6.104C18.1733 5.92267 17.8613 5.832 17.44 5.832H16.176V7.88ZM17.472 10.52C17.8933 10.52 18.2213 10.424 18.456 10.232C18.6907 10.0347 18.808 9.76267 18.808 9.416C18.808 9.07467 18.688 8.80533 18.448 8.608C18.208 8.40533 17.8773 8.304 17.456 8.304H16.176V10.52H17.472ZM21.8546 6.576C22.2972 6.576 22.6732 6.69067 22.9826 6.92C23.2972 7.14933 23.5132 7.45333 23.6306 7.832V6.632H24.1826V11H23.6306V9.8C23.5132 10.1787 23.2972 10.4827 22.9826 10.712C22.6732 10.9413 22.2972 11.056 21.8546 11.056C21.4599 11.056 21.1052 10.9653 20.7906 10.784C20.4812 10.6027 20.2386 10.344 20.0626 10.008C19.8919 9.66667 19.8066 9.26933 19.8066 8.816C19.8066 8.35733 19.8919 7.96 20.0626 7.624C20.2386 7.28267 20.4812 7.024 20.7906 6.848C21.0999 6.66667 21.4546 6.576 21.8546 6.576ZM21.9986 7.072C21.5079 7.072 21.1132 7.22933 20.8146 7.544C20.5212 7.85333 20.3746 8.27733 20.3746 8.816C20.3746 9.35467 20.5212 9.78133 20.8146 10.096C21.1132 10.4053 21.5079 10.56 21.9986 10.56C22.3079 10.56 22.5852 10.488 22.8306 10.344C23.0812 10.2 23.2759 9.99733 23.4146 9.736C23.5586 9.46933 23.6306 9.16267 23.6306 8.816C23.6306 8.46933 23.5586 8.16533 23.4146 7.904C23.2759 7.63733 23.0812 7.432 22.8306 7.288C22.5852 7.144 22.3079 7.072 21.9986 7.072ZM26.9174 6.576C27.36 6.576 27.736 6.69067 28.0454 6.92C28.36 7.14933 28.576 7.45333 28.6934 7.832V6.632H29.2454V11.104C29.2454 11.5093 29.16 11.864 28.9894 12.168C28.8187 12.4773 28.5814 12.7147 28.2774 12.88C27.9734 13.0507 27.6267 13.136 27.2374 13.136C26.6667 13.136 26.1974 12.9973 25.8294 12.72C25.4667 12.448 25.2294 12.0773 25.1174 11.608H25.6774C25.7734 11.928 25.9494 12.1813 26.2054 12.368C26.4667 12.5547 26.8 12.648 27.2054 12.648C27.4827 12.648 27.7334 12.5867 27.9574 12.464C28.1867 12.3467 28.3654 12.1707 28.4934 11.936C28.6267 11.7013 28.6934 11.424 28.6934 11.104V9.8C28.576 10.1787 28.36 10.4827 28.0454 10.712C27.736 10.9413 27.36 11.056 26.9174 11.056C26.5227 11.056 26.168 10.9653 25.8534 10.784C25.544 10.6027 25.3014 10.344 25.1254 10.008C24.9547 9.66667 24.8694 9.26933 24.8694 8.816C24.8694 8.35733 24.9547 7.96 25.1254 7.624C25.3014 7.28267 25.544 7.024 25.8534 6.848C26.1627 6.66667 26.5174 6.576 26.9174 6.576ZM27.0614 7.072C26.5707 7.072 26.176 7.22933 25.8774 7.544C25.584 7.85333 25.4374 8.27733 25.4374 8.816C25.4374 9.35467 25.584 9.78133 25.8774 10.096C26.176 10.4053 26.5707 10.56 27.0614 10.56C27.3707 10.56 27.648 10.488 27.8934 10.344C28.144 10.2 28.3387 9.99733 28.4774 9.736C28.6214 9.46933 28.6934 9.16267 28.6934 8.816C28.6934 8.46933 28.6214 8.16533 28.4774 7.904C28.3387 7.63733 28.144 7.432 27.8934 7.288C27.648 7.144 27.3707 7.072 27.0614 7.072ZM31.4602 6.576C31.9349 6.576 32.3162 6.70133 32.6042 6.952C32.8922 7.20267 33.0682 7.54133 33.1322 7.968H32.5962C32.5642 7.68533 32.4469 7.45333 32.2442 7.272C32.0469 7.08533 31.7802 6.992 31.4442 6.992C31.1562 6.992 30.9295 7.064 30.7642 7.208C30.6042 7.34667 30.5242 7.53333 30.5242 7.768C30.5242 7.944 30.5749 8.08533 30.6762 8.192C30.7829 8.29867 30.9135 8.38133 31.0682 8.44C31.2229 8.49333 31.4309 8.54933 31.6922 8.608C32.0122 8.68267 32.2682 8.76 32.4602 8.84C32.6575 8.91467 32.8255 9.03467 32.9642 9.2C33.1029 9.36533 33.1722 9.58933 33.1722 9.872C33.1722 10.2187 33.0415 10.504 32.7802 10.728C32.5242 10.9467 32.1829 11.056 31.7562 11.056C31.2549 11.056 30.8442 10.9333 30.5242 10.688C30.2042 10.4373 30.0149 10.096 29.9562 9.664H30.5002C30.5322 9.952 30.6575 10.1867 30.8762 10.368C31.0949 10.5493 31.3909 10.64 31.7642 10.64C32.0415 10.64 32.2575 10.568 32.4122 10.424C32.5669 10.28 32.6442 10.0933 32.6442 9.864C32.6442 9.67733 32.5909 9.528 32.4842 9.416C32.3775 9.304 32.2442 9.22133 32.0842 9.168C31.9295 9.10933 31.7162 9.048 31.4442 8.984C31.1295 8.90933 30.8762 8.83467 30.6842 8.76C30.4975 8.68533 30.3375 8.57067 30.2042 8.416C30.0709 8.256 30.0042 8.04 30.0042 7.768C30.0042 7.41067 30.1349 7.12267 30.3962 6.904C30.6575 6.68533 31.0122 6.576 31.4602 6.576Z" fill="#FD1414"/>
</svg>
