<svg width="14" height="14" viewBox="0 0 14 14" fill="none" xmlns="http://www.w3.org/2000/svg">
<path d="M3.75 4.44231V3.51923C3.75 2.78479 4.06607 2.08042 4.62868 1.56109C5.19129 1.04176 5.95435 0.75 6.75 0.75C7.54565 0.75 8.30871 1.04176 8.87132 1.56109C9.43393 2.08042 9.75 2.78479 9.75 3.51923V4.44231M1.25 4.44231C1.11739 4.44231 0.990215 4.49093 0.896447 4.57749C0.802679 4.66404 0.75 4.78144 0.75 4.90385V11.1346C0.75 12.0069 1.555 12.75 2.5 12.75H11C11.945 12.75 12.75 12.043 12.75 11.1707V4.90385C12.75 4.78144 12.6973 4.66404 12.6036 4.57749C12.5098 4.49093 12.3826 4.44231 12.25 4.44231H1.25Z" stroke="#646464" stroke-width="1.5" stroke-linecap="round" stroke-linejoin="round"/>
</svg>
