<svg width="31" height="31" viewBox="0 0 31 31" fill="none" xmlns="http://www.w3.org/2000/svg">
<path d="M8.25 9.92308V7.69231C8.25 5.9174 9.01384 4.21518 10.3735 2.96013C11.7331 1.70508 13.5772 1 15.5 1C17.4228 1 19.2669 1.70508 20.6265 2.96013C21.9862 4.21518 22.75 5.9174 22.75 7.69231V9.92308M2.20833 9.92308C1.88786 9.92308 1.58052 10.0406 1.35391 10.2498C1.12731 10.4589 1 10.7426 1 11.0385V26.0962C1 28.2042 2.94542 30 5.22917 30H25.7708C28.0546 30 30 28.2914 30 26.1833V11.0385C30 10.7426 29.8727 10.4589 29.6461 10.2498C29.4195 10.0406 29.1121 9.92308 28.7917 9.92308H2.20833Z" stroke="#FF0004" stroke-width="2" stroke-linecap="round" stroke-linejoin="round"/>
</svg>
