<svg width="103" height="25" viewBox="0 0 103 25" fill="none" xmlns="http://www.w3.org/2000/svg">
<rect width="103" height="25" rx="6" fill="#E6D4FF"/>
<path d="M21.852 18.112C21.1053 18.112 20.4147 17.9907 19.78 17.748C19.1547 17.496 18.6087 17.146 18.142 16.698C17.6847 16.2407 17.3253 15.7087 17.064 15.102C16.8027 14.4953 16.672 13.828 16.672 13.1C16.672 12.372 16.8027 11.7047 17.064 11.098C17.3253 10.4913 17.6893 9.964 18.156 9.516C18.6227 9.05867 19.1687 8.70867 19.794 8.466C20.4287 8.214 21.1193 8.088 21.866 8.088C22.622 8.088 23.3173 8.21867 23.952 8.48C24.596 8.732 25.142 9.11 25.59 9.614L24.68 10.496C24.3067 10.104 23.8867 9.81467 23.42 9.628C22.9533 9.432 22.454 9.334 21.922 9.334C21.3713 9.334 20.858 9.42733 20.382 9.614C19.9153 9.80067 19.5093 10.062 19.164 10.398C18.8187 10.734 18.548 11.1353 18.352 11.602C18.1653 12.0593 18.072 12.5587 18.072 13.1C18.072 13.6413 18.1653 14.1453 18.352 14.612C18.548 15.0693 18.8187 15.466 19.164 15.802C19.5093 16.138 19.9153 16.3993 20.382 16.586C20.858 16.7727 21.3713 16.866 21.922 16.866C22.454 16.866 22.9533 16.7727 23.42 16.586C23.8867 16.39 24.3067 16.0913 24.68 15.69L25.59 16.572C25.142 17.076 24.596 17.4587 23.952 17.72C23.3173 17.9813 22.6173 18.112 21.852 18.112ZM31.7648 18V16.432L31.6948 16.138V13.464C31.6948 12.8947 31.5268 12.456 31.1908 12.148C30.8641 11.8307 30.3694 11.672 29.7068 11.672C29.2681 11.672 28.8388 11.7467 28.4188 11.896C27.9988 12.036 27.6441 12.2273 27.3548 12.47L26.7948 11.462C27.1774 11.154 27.6348 10.9207 28.1668 10.762C28.7081 10.594 29.2728 10.51 29.8608 10.51C30.8781 10.51 31.6621 10.7573 32.2128 11.252C32.7634 11.7467 33.0388 12.5027 33.0388 13.52V18H31.7648ZM29.3288 18.084C28.7781 18.084 28.2928 17.9907 27.8728 17.804C27.4621 17.6173 27.1448 17.3607 26.9208 17.034C26.6968 16.698 26.5848 16.32 26.5848 15.9C26.5848 15.4987 26.6781 15.1347 26.8648 14.808C27.0608 14.4813 27.3734 14.22 27.8028 14.024C28.2414 13.828 28.8294 13.73 29.5668 13.73H31.9188V14.696H29.6228C28.9508 14.696 28.4981 14.808 28.2648 15.032C28.0314 15.256 27.9148 15.5267 27.9148 15.844C27.9148 16.208 28.0594 16.502 28.3488 16.726C28.6381 16.9407 29.0394 17.048 29.5528 17.048C30.0568 17.048 30.4954 16.936 30.8688 16.712C31.2514 16.488 31.5268 16.1613 31.6948 15.732L31.9608 16.656C31.7834 17.0947 31.4708 17.4447 31.0228 17.706C30.5748 17.958 30.0101 18.084 29.3288 18.084ZM35.526 18V10.58H36.814V12.582L36.604 12.05C36.8466 11.5647 37.22 11.1867 37.724 10.916C38.228 10.6453 38.816 10.51 39.488 10.51C40.0946 10.51 40.6266 10.6267 41.084 10.86C41.5506 11.0933 41.9146 11.448 42.176 11.924C42.4373 12.4 42.568 13.002 42.568 13.73V18H41.224V13.884C41.224 13.1653 41.0466 12.624 40.692 12.26C40.3466 11.896 39.8566 11.714 39.222 11.714C38.746 11.714 38.3306 11.8073 37.976 11.994C37.6213 12.1807 37.346 12.456 37.15 12.82C36.9633 13.184 36.87 13.6367 36.87 14.178V18H35.526ZM48.2893 18.084C47.5333 18.084 46.8566 17.9207 46.2593 17.594C45.6713 17.2673 45.2093 16.8193 44.8733 16.25C44.5373 15.6807 44.3693 15.0273 44.3693 14.29C44.3693 13.5527 44.5373 12.8993 44.8733 12.33C45.2093 11.7607 45.6713 11.3173 46.2593 11C46.8566 10.6733 47.5333 10.51 48.2893 10.51C48.9613 10.51 49.5586 10.6453 50.0813 10.916C50.6133 11.1773 51.0239 11.5693 51.3133 12.092L50.2913 12.75C50.0486 12.386 49.7499 12.12 49.3953 11.952C49.0499 11.7747 48.6766 11.686 48.2753 11.686C47.7899 11.686 47.3559 11.7933 46.9733 12.008C46.5906 12.2227 46.2873 12.526 46.0633 12.918C45.8393 13.3007 45.7273 13.758 45.7273 14.29C45.7273 14.822 45.8393 15.284 46.0633 15.676C46.2873 16.068 46.5906 16.3713 46.9733 16.586C47.3559 16.8007 47.7899 16.908 48.2753 16.908C48.6766 16.908 49.0499 16.824 49.3953 16.656C49.7499 16.4787 50.0486 16.208 50.2913 15.844L51.3133 16.488C51.0239 17.0013 50.6133 17.398 50.0813 17.678C49.5586 17.9487 48.9613 18.084 48.2893 18.084ZM56.2479 18.084C55.4546 18.084 54.7546 17.9207 54.1479 17.594C53.5506 17.2673 53.0839 16.8193 52.7479 16.25C52.4213 15.6807 52.2579 15.0273 52.2579 14.29C52.2579 13.5527 52.4166 12.8993 52.7339 12.33C53.0606 11.7607 53.5039 11.3173 54.0639 11C54.6333 10.6733 55.2726 10.51 55.9819 10.51C56.7006 10.51 57.3353 10.6687 57.8859 10.986C58.4366 11.3033 58.8659 11.7513 59.1739 12.33C59.4913 12.8993 59.6499 13.5667 59.6499 14.332C59.6499 14.388 59.6453 14.4533 59.6359 14.528C59.6359 14.6027 59.6313 14.6727 59.6219 14.738H53.3079V13.772H58.9219L58.3759 14.108C58.3853 13.632 58.2873 13.2073 58.0819 12.834C57.8766 12.4607 57.5919 12.1713 57.2279 11.966C56.8733 11.7513 56.4579 11.644 55.9819 11.644C55.5153 11.644 55.0999 11.7513 54.7359 11.966C54.3719 12.1713 54.0873 12.4653 53.8819 12.848C53.6766 13.2213 53.5739 13.6507 53.5739 14.136V14.36C53.5739 14.8547 53.6859 15.298 53.9099 15.69C54.1433 16.0727 54.4653 16.3713 54.8759 16.586C55.2866 16.8007 55.7579 16.908 56.2899 16.908C56.7286 16.908 57.1253 16.8333 57.4799 16.684C57.8439 16.5347 58.1613 16.3107 58.4319 16.012L59.1739 16.88C58.8379 17.272 58.4179 17.5707 57.9139 17.776C57.4193 17.9813 56.8639 18.084 56.2479 18.084ZM61.5162 18V7.612H62.8602V18H61.5162ZM65.4263 18V7.612H66.7703V18H65.4263ZM72.6405 18.084C71.8472 18.084 71.1472 17.9207 70.5405 17.594C69.9432 17.2673 69.4765 16.8193 69.1405 16.25C68.8138 15.6807 68.6505 15.0273 68.6505 14.29C68.6505 13.5527 68.8092 12.8993 69.1265 12.33C69.4532 11.7607 69.8965 11.3173 70.4565 11C71.0258 10.6733 71.6652 10.51 72.3745 10.51C73.0932 10.51 73.7278 10.6687 74.2785 10.986C74.8292 11.3033 75.2585 11.7513 75.5665 12.33C75.8838 12.8993 76.0425 13.5667 76.0425 14.332C76.0425 14.388 76.0378 14.4533 76.0285 14.528C76.0285 14.6027 76.0238 14.6727 76.0145 14.738H69.7005V13.772H75.3145L74.7685 14.108C74.7778 13.632 74.6798 13.2073 74.4745 12.834C74.2692 12.4607 73.9845 12.1713 73.6205 11.966C73.2658 11.7513 72.8505 11.644 72.3745 11.644C71.9078 11.644 71.4925 11.7513 71.1285 11.966C70.7645 12.1713 70.4798 12.4653 70.2745 12.848C70.0692 13.2213 69.9665 13.6507 69.9665 14.136V14.36C69.9665 14.8547 70.0785 15.298 70.3025 15.69C70.5358 16.0727 70.8578 16.3713 71.2685 16.586C71.6792 16.8007 72.1505 16.908 72.6825 16.908C73.1212 16.908 73.5178 16.8333 73.8725 16.684C74.2365 16.5347 74.5538 16.3107 74.8245 16.012L75.5665 16.88C75.2305 17.272 74.8105 17.5707 74.3065 17.776C73.8118 17.9813 73.2565 18.084 72.6405 18.084ZM80.9748 18.084C80.2561 18.084 79.6121 17.9253 79.0428 17.608C78.4828 17.2907 78.0394 16.8473 77.7128 16.278C77.3861 15.7087 77.2228 15.046 77.2228 14.29C77.2228 13.534 77.3861 12.876 77.7128 12.316C78.0394 11.7467 78.4828 11.3033 79.0428 10.986C79.6121 10.6687 80.2561 10.51 80.9748 10.51C81.6001 10.51 82.1648 10.65 82.6688 10.93C83.1728 11.21 83.5741 11.63 83.8728 12.19C84.1808 12.75 84.3348 13.45 84.3348 14.29C84.3348 15.13 84.1854 15.83 83.8868 16.39C83.5974 16.95 83.2008 17.3747 82.6968 17.664C82.1928 17.944 81.6188 18.084 80.9748 18.084ZM81.0868 16.908C81.5534 16.908 81.9734 16.8007 82.3468 16.586C82.7294 16.3713 83.0281 16.068 83.2428 15.676C83.4668 15.2747 83.5788 14.8127 83.5788 14.29C83.5788 13.758 83.4668 13.3007 83.2428 12.918C83.0281 12.526 82.7294 12.2227 82.3468 12.008C81.9734 11.7933 81.5534 11.686 81.0868 11.686C80.6108 11.686 80.1861 11.7933 79.8128 12.008C79.4394 12.2227 79.1408 12.526 78.9168 12.918C78.6928 13.3007 78.5808 13.758 78.5808 14.29C78.5808 14.8127 78.6928 15.2747 78.9168 15.676C79.1408 16.068 79.4394 16.3713 79.8128 16.586C80.1861 16.8007 80.6108 16.908 81.0868 16.908ZM83.6208 18V15.998L83.7048 14.276L83.5648 12.554V7.612H84.9088V18H83.6208Z" fill="#9900FF"/>
</svg>
