<svg width="27" height="27" viewBox="0 0 27 27" fill="none" xmlns="http://www.w3.org/2000/svg">
<path d="M13.5 23.625C15.5025 23.625 17.4601 23.0312 19.1251 21.9186C20.7902 20.8061 22.0879 19.2248 22.8543 17.3747C23.6206 15.5246 23.8211 13.4888 23.4305 11.5247C23.0398 9.56066 22.0755 7.75655 20.6595 6.34055C19.2434 4.92454 17.4393 3.96023 15.4753 3.56955C13.5112 3.17888 11.4754 3.37939 9.62533 4.14572C7.77523 4.91206 6.19392 6.20981 5.08137 7.87486C3.96882 9.5399 3.375 11.4975 3.375 13.5C3.375 15.12 3.75525 16.65 4.4325 18.0079C4.94213 19.0328 4.23337 20.4154 3.96337 21.4245C3.90356 21.6477 3.90355 21.8827 3.96334 22.1059C4.02314 22.3291 4.14064 22.5326 4.30403 22.696C4.46741 22.8594 4.67093 22.9769 4.89412 23.0367C5.11731 23.0965 5.35231 23.0964 5.5755 23.0366C6.58462 22.7666 7.96725 22.0579 8.99213 22.5686C10.393 23.2642 11.936 23.6258 13.5 23.625Z" stroke="#646464" stroke-width="1.5" stroke-linecap="round" stroke-linejoin="round"/>
</svg>
