<svg width="99" height="23" viewBox="0 0 99 23" fill="none" xmlns="http://www.w3.org/2000/svg">
<rect width="99" height="23" rx="6" fill="#FFF6D4"/>
<path d="M25.352 17.112C24.6053 17.112 23.9147 16.9907 23.28 16.748C22.6547 16.496 22.1087 16.146 21.642 15.698C21.1847 15.2407 20.8253 14.7087 20.564 14.102C20.3027 13.4953 20.172 12.828 20.172 12.1C20.172 11.372 20.3027 10.7047 20.564 10.098C20.8253 9.49133 21.1893 8.964 21.656 8.516C22.1227 8.05867 22.6687 7.70867 23.294 7.466C23.9287 7.214 24.6193 7.088 25.366 7.088C26.122 7.088 26.8173 7.21867 27.452 7.48C28.096 7.732 28.642 8.11 29.09 8.614L28.18 9.496C27.8067 9.104 27.3867 8.81467 26.92 8.628C26.4533 8.432 25.954 8.334 25.422 8.334C24.8713 8.334 24.358 8.42733 23.882 8.614C23.4153 8.80067 23.0093 9.062 22.664 9.398C22.3187 9.734 22.048 10.1353 21.852 10.602C21.6653 11.0593 21.572 11.5587 21.572 12.1C21.572 12.6413 21.6653 13.1453 21.852 13.612C22.048 14.0693 22.3187 14.466 22.664 14.802C23.0093 15.138 23.4153 15.3993 23.882 15.586C24.358 15.7727 24.8713 15.866 25.422 15.866C25.954 15.866 26.4533 15.7727 26.92 15.586C27.3867 15.39 27.8067 15.0913 28.18 14.69L29.09 15.572C28.642 16.076 28.096 16.4587 27.452 16.72C26.8173 16.9813 26.1173 17.112 25.352 17.112ZM30.7545 17V6.612H32.0985V17H30.7545ZM39.2706 17V15.432L39.2006 15.138V12.464C39.2006 11.8947 39.0326 11.456 38.6966 11.148C38.37 10.8307 37.8753 10.672 37.2126 10.672C36.774 10.672 36.3446 10.7467 35.9246 10.896C35.5046 11.036 35.15 11.2273 34.8606 11.47L34.3006 10.462C34.6833 10.154 35.1406 9.92067 35.6726 9.762C36.214 9.594 36.7786 9.51 37.3666 9.51C38.384 9.51 39.168 9.75733 39.7186 10.252C40.2693 10.7467 40.5446 11.5027 40.5446 12.52V17H39.2706ZM36.8346 17.084C36.284 17.084 35.7986 16.9907 35.3786 16.804C34.968 16.6173 34.6506 16.3607 34.4266 16.034C34.2026 15.698 34.0906 15.32 34.0906 14.9C34.0906 14.4987 34.184 14.1347 34.3706 13.808C34.5666 13.4813 34.8793 13.22 35.3086 13.024C35.7473 12.828 36.3353 12.73 37.0726 12.73H39.4246V13.696H37.1286C36.4566 13.696 36.004 13.808 35.7706 14.032C35.5373 14.256 35.4206 14.5267 35.4206 14.844C35.4206 15.208 35.5653 15.502 35.8546 15.726C36.144 15.9407 36.5453 16.048 37.0586 16.048C37.5626 16.048 38.0013 15.936 38.3746 15.712C38.7573 15.488 39.0326 15.1613 39.2006 14.732L39.4666 15.656C39.2893 16.0947 38.9766 16.4447 38.5286 16.706C38.0806 16.958 37.516 17.084 36.8346 17.084ZM43.0318 17V9.58H44.3758V17H43.0318ZM43.7038 8.152C43.4425 8.152 43.2231 8.068 43.0458 7.9C42.8778 7.732 42.7938 7.52667 42.7938 7.284C42.7938 7.032 42.8778 6.822 43.0458 6.654C43.2231 6.486 43.4425 6.402 43.7038 6.402C43.9651 6.402 44.1798 6.486 44.3478 6.654C44.5251 6.81267 44.6138 7.01333 44.6138 7.256C44.6138 7.508 44.5298 7.72267 44.3618 7.9C44.1938 8.068 43.9745 8.152 43.7038 8.152ZM46.942 17V9.58H48.23V11.554L48.02 11.05C48.2533 10.5647 48.6126 10.1867 49.098 9.916C49.5833 9.64533 50.148 9.51 50.792 9.51C51.5013 9.51 52.1126 9.68733 52.626 10.042C53.1393 10.3873 53.4753 10.9147 53.634 11.624L53.088 11.4C53.312 10.8307 53.704 10.3733 54.264 10.028C54.824 9.68267 55.4773 9.51 56.224 9.51C56.8213 9.51 57.3486 9.62667 57.806 9.86C58.2633 10.0933 58.618 10.448 58.87 10.924C59.1313 11.4 59.262 12.002 59.262 12.73V17H57.918V12.884C57.918 12.1653 57.75 11.624 57.414 11.26C57.078 10.896 56.6066 10.714 56 10.714C55.552 10.714 55.16 10.8073 54.824 10.994C54.488 11.1807 54.2266 11.456 54.04 11.82C53.8626 12.184 53.774 12.6367 53.774 13.178V17H52.43V12.884C52.43 12.1653 52.262 11.624 51.926 11.26C51.5993 10.896 51.128 10.714 50.512 10.714C50.0733 10.714 49.686 10.8073 49.35 10.994C49.014 11.1807 48.7526 11.456 48.566 11.82C48.3793 12.184 48.286 12.6367 48.286 13.178V17H46.942ZM65.0389 17.084C64.2456 17.084 63.5456 16.9207 62.9389 16.594C62.3416 16.2673 61.8749 15.8193 61.5389 15.25C61.2123 14.6807 61.0489 14.0273 61.0489 13.29C61.0489 12.5527 61.2076 11.8993 61.5249 11.33C61.8516 10.7607 62.2949 10.3173 62.8549 10C63.4243 9.67333 64.0636 9.51 64.7729 9.51C65.4916 9.51 66.1263 9.66867 66.6769 9.986C67.2276 10.3033 67.6569 10.7513 67.9649 11.33C68.2823 11.8993 68.4409 12.5667 68.4409 13.332C68.4409 13.388 68.4363 13.4533 68.4269 13.528C68.4269 13.6027 68.4223 13.6727 68.4129 13.738H62.0989V12.772H67.7129L67.1669 13.108C67.1763 12.632 67.0783 12.2073 66.8729 11.834C66.6676 11.4607 66.3829 11.1713 66.0189 10.966C65.6643 10.7513 65.2489 10.644 64.7729 10.644C64.3063 10.644 63.8909 10.7513 63.5269 10.966C63.1629 11.1713 62.8783 11.4653 62.6729 11.848C62.4676 12.2213 62.3649 12.6507 62.3649 13.136V13.36C62.3649 13.8547 62.4769 14.298 62.7009 14.69C62.9343 15.0727 63.2563 15.3713 63.6669 15.586C64.0776 15.8007 64.5489 15.908 65.0809 15.908C65.5196 15.908 65.9163 15.8333 66.2709 15.684C66.6349 15.5347 66.9523 15.3107 67.2229 15.012L67.9649 15.88C67.6289 16.272 67.2089 16.5707 66.7049 16.776C66.2103 16.9813 65.6549 17.084 65.0389 17.084ZM73.3732 17.084C72.6545 17.084 72.0105 16.9253 71.4412 16.608C70.8812 16.2907 70.4379 15.8473 70.1112 15.278C69.7845 14.7087 69.6212 14.046 69.6212 13.29C69.6212 12.534 69.7845 11.876 70.1112 11.316C70.4379 10.7467 70.8812 10.3033 71.4412 9.986C72.0105 9.66867 72.6545 9.51 73.3732 9.51C73.9985 9.51 74.5632 9.65 75.0672 9.93C75.5712 10.21 75.9725 10.63 76.2712 11.19C76.5792 11.75 76.7332 12.45 76.7332 13.29C76.7332 14.13 76.5839 14.83 76.2852 15.39C75.9959 15.95 75.5992 16.3747 75.0952 16.664C74.5912 16.944 74.0172 17.084 73.3732 17.084ZM73.4852 15.908C73.9519 15.908 74.3719 15.8007 74.7452 15.586C75.1279 15.3713 75.4265 15.068 75.6412 14.676C75.8652 14.2747 75.9772 13.8127 75.9772 13.29C75.9772 12.758 75.8652 12.3007 75.6412 11.918C75.4265 11.526 75.1279 11.2227 74.7452 11.008C74.3719 10.7933 73.9519 10.686 73.4852 10.686C73.0092 10.686 72.5845 10.7933 72.2112 11.008C71.8379 11.2227 71.5392 11.526 71.3152 11.918C71.0912 12.3007 70.9792 12.758 70.9792 13.29C70.9792 13.8127 71.0912 14.2747 71.3152 14.676C71.5392 15.068 71.8379 15.3713 72.2112 15.586C72.5845 15.8007 73.0092 15.908 73.4852 15.908ZM76.0192 17V14.998L76.1032 13.276L75.9632 11.554V6.612H77.3072V17H76.0192Z" fill="#FFCC00"/>
</svg>
