<svg width="31" height="31" viewBox="0 0 31 31" fill="none" xmlns="http://www.w3.org/2000/svg">
<path d="M20.3333 1L30 4.625V13.6875H25.1667V28.1875C25.1667 28.6682 24.9969 29.1292 24.6948 29.4691C24.3926 29.809 23.9829 30 23.5556 30H7.44444C7.01715 30 6.60736 29.809 6.30522 29.4691C6.00308 29.1292 5.83333 28.6682 5.83333 28.1875V13.6875H1V4.625L10.6667 1C10.6667 2.44211 11.1759 3.82516 12.0823 4.84489C12.9887 5.86462 14.2181 6.4375 15.5 6.4375C16.7819 6.4375 18.0113 5.86462 18.9177 4.84489C19.8241 3.82516 20.3333 2.44211 20.3333 1Z" stroke="#B700FF" stroke-width="2" stroke-linecap="round" stroke-linejoin="round"/>
</svg>
