<svg width="14" height="14" viewBox="0 0 14 14" fill="none" xmlns="http://www.w3.org/2000/svg">
<path d="M8.75 0.75L12.75 2.25V6H10.75V12C10.75 12.1989 10.6798 12.3897 10.5547 12.5303C10.4297 12.671 10.2601 12.75 10.0833 12.75H3.41667C3.23986 12.75 3.07029 12.671 2.94526 12.5303C2.82024 12.3897 2.75 12.1989 2.75 12V6H0.75V2.25L4.75 0.75C4.75 1.34674 4.96071 1.91903 5.33579 2.34099C5.71086 2.76295 6.21957 3 6.75 3C7.28043 3 7.78914 2.76295 8.16421 2.34099C8.53929 1.91903 8.75 1.34674 8.75 0.75Z" stroke="#646464" stroke-width="1.5" stroke-linecap="round" stroke-linejoin="round"/>
</svg>
