<svg width="55" height="16" viewBox="0 0 55 16" fill="none" xmlns="http://www.w3.org/2000/svg">
<rect width="55" height="16" rx="8" fill="#FFD4F2"/>
<path d="M11.6667 4.5L14 5.375V7.5625H12.8333V11.0625C12.8333 11.1785 12.7924 11.2898 12.7194 11.3719C12.6465 11.4539 12.5476 11.5 12.4444 11.5H8.55556C8.45242 11.5 8.3535 11.4539 8.28057 11.3719C8.20764 11.2898 8.16667 11.1785 8.16667 11.0625V7.5625H7V5.375L9.33333 4.5C9.33333 4.8481 9.45625 5.18194 9.67504 5.42808C9.89383 5.67422 10.1906 5.8125 10.5 5.8125C10.8094 5.8125 11.1062 5.67422 11.325 5.42808C11.5438 5.18194 11.6667 4.8481 11.6667 4.5Z" stroke="#FD14A0" stroke-width="0.5" stroke-linecap="round" stroke-linejoin="round"/>
<path d="M19.088 5.304C19.7653 5.304 20.3253 5.46933 20.768 5.8C21.2107 6.12533 21.5227 6.576 21.704 7.152H21.112C20.9627 6.74667 20.7147 6.424 20.368 6.184C20.0213 5.944 19.592 5.824 19.08 5.824C18.6907 5.824 18.336 5.92 18.016 6.112C17.7013 6.304 17.4533 6.57867 17.272 6.936C17.0907 7.29333 17 7.70933 17 8.184C17 8.65867 17.0907 9.07467 17.272 9.432C17.4533 9.784 17.7013 10.056 18.016 10.248C18.336 10.44 18.6907 10.536 19.08 10.536C19.592 10.536 20.0213 10.416 20.368 10.176C20.7147 9.936 20.9627 9.61333 21.112 9.208H21.704C21.5227 9.784 21.2107 10.2373 20.768 10.568C20.3253 10.8933 19.7653 11.056 19.088 11.056C18.5707 11.056 18.1093 10.9333 17.704 10.688C17.2987 10.4427 16.984 10.104 16.76 9.672C16.536 9.23467 16.424 8.73867 16.424 8.184C16.424 7.624 16.536 7.12533 16.76 6.688C16.984 6.25067 17.2987 5.912 17.704 5.672C18.1093 5.42667 18.5707 5.304 19.088 5.304ZM22.9732 5.08V11H22.4052V5.08H22.9732ZM25.8424 6.576C26.2584 6.576 26.6291 6.66667 26.9544 6.848C27.2851 7.024 27.5438 7.28267 27.7304 7.624C27.9171 7.96 28.0104 8.35733 28.0104 8.816C28.0104 9.27467 27.9171 9.672 27.7304 10.008C27.5438 10.344 27.2851 10.6027 26.9544 10.784C26.6291 10.9653 26.2584 11.056 25.8424 11.056C25.4264 11.056 25.0531 10.9653 24.7224 10.784C24.3918 10.6027 24.1304 10.344 23.9384 10.008C23.7518 9.66667 23.6584 9.26933 23.6584 8.816C23.6584 8.35733 23.7518 7.96 23.9384 7.624C24.1304 7.28267 24.3918 7.024 24.7224 6.848C25.0531 6.66667 25.4264 6.576 25.8424 6.576ZM25.8424 7.064C25.5544 7.064 25.2878 7.128 25.0424 7.256C24.7971 7.384 24.5998 7.58133 24.4504 7.848C24.3011 8.10933 24.2264 8.432 24.2264 8.816C24.2264 9.2 24.3011 9.52267 24.4504 9.784C24.5998 10.0453 24.7971 10.24 25.0424 10.368C25.2878 10.496 25.5544 10.56 25.8424 10.56C26.1251 10.56 26.3864 10.496 26.6264 10.368C26.8718 10.24 27.0691 10.0453 27.2184 9.784C27.3678 9.52267 27.4424 9.2 27.4424 8.816C27.4424 8.432 27.3678 8.10933 27.2184 7.848C27.0691 7.58133 26.8718 7.384 26.6264 7.256C26.3864 7.128 26.1251 7.064 25.8424 7.064ZM30.6789 10.504V11H30.1589C29.7375 11 29.4229 10.9013 29.2149 10.704C29.0069 10.5013 28.9029 10.1627 28.9029 9.688V7.12H28.2389V6.632H28.9029V5.528H29.4709V6.632H30.6709V7.12H29.4709V9.696C29.4709 10.0053 29.5269 10.2187 29.6389 10.336C29.7509 10.448 29.9482 10.504 30.2309 10.504H30.6789ZM33.4651 6.552C33.9718 6.552 34.3825 6.71467 34.6971 7.04C35.0171 7.36 35.1771 7.832 35.1771 8.456V11H34.6251V8.496C34.6251 8.02133 34.5051 7.65867 34.2651 7.408C34.0251 7.152 33.6971 7.024 33.2811 7.024C32.8438 7.024 32.4945 7.16533 32.2331 7.448C31.9771 7.72533 31.8491 8.136 31.8491 8.68V11H31.2811V5.08H31.8491V7.704C31.9611 7.33067 32.1638 7.04533 32.4571 6.848C32.7505 6.65067 33.0865 6.552 33.4651 6.552ZM35.9112 5.336C35.9112 5.21867 35.9486 5.12533 36.0232 5.056C36.1032 4.98667 36.2046 4.952 36.3272 4.952C36.4499 4.952 36.5486 4.98667 36.6232 5.056C36.6979 5.12533 36.7352 5.21867 36.7352 5.336C36.7352 5.448 36.6979 5.53867 36.6232 5.608C36.5486 5.67733 36.4499 5.712 36.3272 5.712C36.2046 5.712 36.1032 5.67733 36.0232 5.608C35.9486 5.53867 35.9112 5.448 35.9112 5.336ZM36.6072 6.632V11H36.0392V6.632H36.6072ZM39.6845 6.552C40.1912 6.552 40.6018 6.71467 40.9165 7.04C41.2365 7.36 41.3965 7.832 41.3965 8.456V11H40.8445V8.496C40.8445 8.02133 40.7245 7.65867 40.4845 7.408C40.2445 7.152 39.9165 7.024 39.5005 7.024C39.0632 7.024 38.7138 7.16533 38.4525 7.448C38.1965 7.72533 38.0685 8.136 38.0685 8.68V11H37.5005V6.632H38.0685V7.704C38.1805 7.33067 38.3832 7.04533 38.6765 6.848C38.9698 6.65067 39.3058 6.552 39.6845 6.552ZM44.0986 6.576C44.5413 6.576 44.9173 6.69067 45.2266 6.92C45.5413 7.14933 45.7573 7.45333 45.8746 7.832V6.632H46.4266V11.104C46.4266 11.5093 46.3413 11.864 46.1706 12.168C46 12.4773 45.7626 12.7147 45.4586 12.88C45.1546 13.0507 44.808 13.136 44.4186 13.136C43.848 13.136 43.3786 12.9973 43.0106 12.72C42.648 12.448 42.4106 12.0773 42.2986 11.608H42.8586C42.9546 11.928 43.1306 12.1813 43.3866 12.368C43.648 12.5547 43.9813 12.648 44.3866 12.648C44.664 12.648 44.9146 12.5867 45.1386 12.464C45.368 12.3467 45.5466 12.1707 45.6746 11.936C45.808 11.7013 45.8746 11.424 45.8746 11.104V9.8C45.7573 10.1787 45.5413 10.4827 45.2266 10.712C44.9173 10.9413 44.5413 11.056 44.0986 11.056C43.704 11.056 43.3493 10.9653 43.0346 10.784C42.7253 10.6027 42.4826 10.344 42.3066 10.008C42.136 9.66667 42.0506 9.26933 42.0506 8.816C42.0506 8.35733 42.136 7.96 42.3066 7.624C42.4826 7.28267 42.7253 7.024 43.0346 6.848C43.344 6.66667 43.6986 6.576 44.0986 6.576ZM44.2426 7.072C43.752 7.072 43.3573 7.22933 43.0586 7.544C42.7653 7.85333 42.6186 8.27733 42.6186 8.816C42.6186 9.35467 42.7653 9.78133 43.0586 10.096C43.3573 10.4053 43.752 10.56 44.2426 10.56C44.552 10.56 44.8293 10.488 45.0746 10.344C45.3253 10.2 45.52 9.99733 45.6586 9.736C45.8026 9.46933 45.8746 9.16267 45.8746 8.816C45.8746 8.46933 45.8026 8.16533 45.6586 7.904C45.52 7.63733 45.3253 7.432 45.0746 7.288C44.8293 7.144 44.552 7.072 44.2426 7.072Z" fill="#FD14A0"/>
</svg>
