<svg width="14" height="14" viewBox="0 0 14 14" fill="none" xmlns="http://www.w3.org/2000/svg">
<path d="M0.75 12.0833V1.41667C0.75 1.23986 0.840306 1.07029 1.00105 0.945262C1.1618 0.820238 1.37981 0.75 1.60714 0.75H6.89743C7.35205 0.750076 7.78801 0.890601 8.10943 1.14067L12.2477 4.35933C12.5692 4.60932 12.7499 4.94841 12.75 5.302V12.0833C12.75 12.2601 12.6597 12.4297 12.4989 12.5547C12.3382 12.6798 12.1202 12.75 11.8929 12.75H1.60714C1.37981 12.75 1.1618 12.6798 1.00105 12.5547C0.840306 12.4297 0.75 12.2601 0.75 12.0833Z" stroke="#1980B2" stroke-width="1.5" stroke-linejoin="round"/>
<path d="M6.75 0.75V4.75C6.75 4.92681 6.84031 5.09638 7.00105 5.2214C7.1618 5.34643 7.37981 5.41667 7.60714 5.41667H12.75" stroke="#1980B2" stroke-width="1.5" stroke-linejoin="round"/>
</svg>
