<svg width="31" height="31" viewBox="0 0 31 31" fill="none" xmlns="http://www.w3.org/2000/svg">
<path d="M1 28.3889V2.61111C1 2.18382 1.21824 1.77403 1.60671 1.47188C1.99518 1.16974 2.52205 1 3.07143 1H15.8563C16.9549 1.00018 18.0085 1.33979 18.7853 1.94411L28.7861 9.72256C29.5631 10.3267 29.9998 11.1462 30 12.0007V28.3889C30 28.8162 29.7818 29.226 29.3933 29.5281C29.0048 29.8303 28.4779 30 27.9286 30H3.07143C2.52205 30 1.99518 29.8303 1.60671 29.5281C1.21824 29.226 1 28.8162 1 28.3889Z" stroke="#3CFF00" stroke-width="2" stroke-linejoin="round"/>
<path d="M15.5 1V10.6667C15.5 11.094 15.7182 11.5038 16.1067 11.8059C16.4952 12.108 17.0221 12.2778 17.5714 12.2778H30" stroke="#3CFF00" stroke-width="1.5" stroke-linejoin="round"/>
</svg>
