<svg width="67" height="16" viewBox="0 0 67 16" fill="none" xmlns="http://www.w3.org/2000/svg">
<rect width="67" height="16" rx="8" fill="#E8FFED"/>
<path d="M8 4.75H10.4072L13.75 7.61426V10.5C13.75 10.9142 13.4142 11.25 13 11.25H8C7.58579 11.25 7.25 10.9142 7.25 10.5V5.5C7.25 5.08579 7.58579 4.75 8 4.75Z" stroke="#03E32C" stroke-width="0.5"/>
<path d="M21.28 8.176C21.28 8.75733 21.1653 9.26133 20.936 9.688C20.7067 10.1093 20.368 10.4347 19.92 10.664C19.4773 10.888 18.9413 11 18.312 11H16.608V5.36H18.312C19.2613 5.36 19.992 5.61067 20.504 6.112C21.0213 6.608 21.28 7.296 21.28 8.176ZM18.272 10.496C19.0667 10.496 19.672 10.2933 20.088 9.888C20.504 9.47733 20.712 8.90667 20.712 8.176C20.712 7.44533 20.504 6.87733 20.088 6.472C19.672 6.06133 19.0667 5.856 18.272 5.856H17.176V10.496H18.272ZM23.9593 6.576C24.3753 6.576 24.746 6.66667 25.0713 6.848C25.402 7.024 25.6606 7.28267 25.8473 7.624C26.034 7.96 26.1273 8.35733 26.1273 8.816C26.1273 9.27467 26.034 9.672 25.8473 10.008C25.6606 10.344 25.402 10.6027 25.0713 10.784C24.746 10.9653 24.3753 11.056 23.9593 11.056C23.5433 11.056 23.17 10.9653 22.8393 10.784C22.5086 10.6027 22.2473 10.344 22.0553 10.008C21.8686 9.66667 21.7753 9.26933 21.7753 8.816C21.7753 8.35733 21.8686 7.96 22.0553 7.624C22.2473 7.28267 22.5086 7.024 22.8393 6.848C23.17 6.66667 23.5433 6.576 23.9593 6.576ZM23.9593 7.064C23.6713 7.064 23.4046 7.128 23.1593 7.256C22.914 7.384 22.7166 7.58133 22.5673 7.848C22.418 8.10933 22.3433 8.432 22.3433 8.816C22.3433 9.2 22.418 9.52267 22.5673 9.784C22.7166 10.0453 22.914 10.24 23.1593 10.368C23.4046 10.496 23.6713 10.56 23.9593 10.56C24.242 10.56 24.5033 10.496 24.7433 10.368C24.9886 10.24 25.186 10.0453 25.3353 9.784C25.4846 9.52267 25.5593 9.2 25.5593 8.816C25.5593 8.432 25.4846 8.10933 25.3353 7.848C25.186 7.58133 24.9886 7.384 24.7433 7.256C24.5033 7.128 24.242 7.064 23.9593 7.064ZM28.7397 6.576C29.2944 6.576 29.7531 6.72267 30.1157 7.016C30.4837 7.30933 30.7077 7.69867 30.7877 8.184H30.2037C30.1451 7.83733 29.9824 7.56533 29.7157 7.368C29.4491 7.16533 29.1211 7.064 28.7317 7.064C28.4491 7.064 28.1877 7.128 27.9477 7.256C27.7131 7.384 27.5237 7.58133 27.3797 7.848C27.2411 8.10933 27.1717 8.432 27.1717 8.816C27.1717 9.2 27.2411 9.52533 27.3797 9.792C27.5237 10.0533 27.7131 10.248 27.9477 10.376C28.1877 10.504 28.4491 10.568 28.7317 10.568C29.1211 10.568 29.4491 10.4693 29.7157 10.272C29.9824 10.0693 30.1451 9.79467 30.2037 9.448H30.7877C30.7077 9.93333 30.4837 10.3227 30.1157 10.616C29.7531 10.9093 29.2944 11.056 28.7397 11.056C28.3237 11.056 27.9531 10.968 27.6277 10.792C27.3077 10.6107 27.0571 10.352 26.8757 10.016C26.6944 9.67467 26.6037 9.27467 26.6037 8.816C26.6037 8.35733 26.6944 7.96 26.8757 7.624C27.0571 7.28267 27.3077 7.024 27.6277 6.848C27.9531 6.66667 28.3237 6.576 28.7397 6.576ZM35.2441 6.632V11H34.6841V9.92C34.5721 10.2987 34.3695 10.5867 34.0761 10.784C33.7828 10.9813 33.4468 11.08 33.0681 11.08C32.5561 11.08 32.1401 10.92 31.8201 10.6C31.5055 10.2747 31.3481 9.8 31.3481 9.176V6.632H31.9081V9.128C31.9081 9.608 32.0281 9.976 32.2681 10.232C32.5081 10.4827 32.8361 10.608 33.2521 10.608C33.6895 10.608 34.0361 10.4693 34.2921 10.192C34.5535 9.90933 34.6841 9.496 34.6841 8.952V6.632H35.2441ZM41.4523 6.552C41.9536 6.552 42.359 6.71467 42.6683 7.04C42.983 7.36 43.1403 7.832 43.1403 8.456V11H42.5803V8.496C42.5803 8.02667 42.4656 7.66667 42.2363 7.416C42.0123 7.16533 41.703 7.04 41.3083 7.04C40.887 7.04 40.551 7.17867 40.3003 7.456C40.0496 7.73333 39.9243 8.14133 39.9243 8.68V11H39.3723V8.496C39.3723 8.02667 39.2576 7.66667 39.0283 7.416C38.8043 7.16533 38.495 7.04 38.1003 7.04C37.679 7.04 37.343 7.17867 37.0923 7.456C36.8416 7.73333 36.7163 8.14133 36.7163 8.68V11H36.1483V6.632H36.7163V7.672C36.823 7.304 37.015 7.02667 37.2923 6.84C37.575 6.648 37.9003 6.552 38.2683 6.552C38.6523 6.552 38.983 6.65333 39.2603 6.856C39.5376 7.05867 39.7296 7.35733 39.8363 7.752C39.9536 7.36267 40.159 7.06667 40.4523 6.864C40.7456 6.656 41.079 6.552 41.4523 6.552ZM45.9042 10.592C46.2989 10.592 46.6295 10.4933 46.8962 10.296C47.1629 10.0987 47.3229 9.832 47.3762 9.496H47.9682C47.8882 9.96 47.6669 10.336 47.3042 10.624C46.9415 10.912 46.4829 11.056 45.9282 11.056C45.5122 11.056 45.1415 10.968 44.8162 10.792C44.4962 10.6107 44.2455 10.352 44.0642 10.016C43.8829 9.67467 43.7922 9.27467 43.7922 8.816C43.7922 8.35733 43.8829 7.96 44.0642 7.624C44.2455 7.28267 44.4962 7.024 44.8162 6.848C45.1415 6.66667 45.5122 6.576 45.9282 6.576C46.3549 6.576 46.7229 6.66667 47.0322 6.848C47.3469 7.024 47.5842 7.26133 47.7442 7.56C47.9095 7.85867 47.9922 8.184 47.9922 8.536C47.9922 8.68533 47.9815 8.82133 47.9602 8.944H44.3442C44.3495 9.312 44.4242 9.62133 44.5682 9.872C44.7175 10.1173 44.9095 10.2987 45.1442 10.416C45.3789 10.5333 45.6322 10.592 45.9042 10.592ZM45.9282 7.032C45.6455 7.032 45.3869 7.09067 45.1522 7.208C44.9175 7.32533 44.7255 7.50667 44.5762 7.752C44.4322 7.992 44.3549 8.29333 44.3442 8.656H47.4322C47.4535 8.29867 47.3949 7.99733 47.2562 7.752C47.1175 7.50667 46.9309 7.32533 46.6962 7.208C46.4615 7.09067 46.2055 7.032 45.9282 7.032ZM50.8642 6.552C51.3709 6.552 51.7815 6.71467 52.0962 7.04C52.4162 7.36 52.5762 7.832 52.5762 8.456V11H52.0242V8.496C52.0242 8.02133 51.9042 7.65867 51.6642 7.408C51.4242 7.152 51.0962 7.024 50.6802 7.024C50.2429 7.024 49.8935 7.16533 49.6322 7.448C49.3762 7.72533 49.2482 8.136 49.2482 8.68V11H48.6802V6.632H49.2482V7.704C49.3602 7.33067 49.5629 7.04533 49.8562 6.848C50.1495 6.65067 50.4855 6.552 50.8642 6.552ZM55.4223 10.504V11H54.9023C54.481 11 54.1663 10.9013 53.9583 10.704C53.7503 10.5013 53.6463 10.1627 53.6463 9.688V7.12H52.9823V6.632H53.6463V5.528H54.2143V6.632H55.4143V7.12H54.2143V9.696C54.2143 10.0053 54.2703 10.2187 54.3823 10.336C54.4943 10.448 54.6916 10.504 54.9743 10.504H55.4223ZM57.3446 6.576C57.8192 6.576 58.2006 6.70133 58.4886 6.952C58.7766 7.20267 58.9526 7.54133 59.0166 7.968H58.4806C58.4486 7.68533 58.3312 7.45333 58.1286 7.272C57.9312 7.08533 57.6646 6.992 57.3286 6.992C57.0406 6.992 56.8139 7.064 56.6486 7.208C56.4886 7.34667 56.4086 7.53333 56.4086 7.768C56.4086 7.944 56.4592 8.08533 56.5606 8.192C56.6672 8.29867 56.7979 8.38133 56.9526 8.44C57.1072 8.49333 57.3152 8.54933 57.5766 8.608C57.8966 8.68267 58.1526 8.76 58.3446 8.84C58.5419 8.91467 58.7099 9.03467 58.8486 9.2C58.9872 9.36533 59.0566 9.58933 59.0566 9.872C59.0566 10.2187 58.9259 10.504 58.6646 10.728C58.4086 10.9467 58.0672 11.056 57.6406 11.056C57.1392 11.056 56.7286 10.9333 56.4086 10.688C56.0886 10.4373 55.8992 10.096 55.8406 9.664H56.3846C56.4166 9.952 56.5419 10.1867 56.7606 10.368C56.9792 10.5493 57.2752 10.64 57.6486 10.64C57.9259 10.64 58.1419 10.568 58.2966 10.424C58.4512 10.28 58.5286 10.0933 58.5286 9.864C58.5286 9.67733 58.4752 9.528 58.3686 9.416C58.2619 9.304 58.1286 9.22133 57.9686 9.168C57.8139 9.10933 57.6006 9.048 57.3286 8.984C57.0139 8.90933 56.7606 8.83467 56.5686 8.76C56.3819 8.68533 56.2219 8.57067 56.0886 8.416C55.9552 8.256 55.8886 8.04 55.8886 7.768C55.8886 7.41067 56.0192 7.12267 56.2806 6.904C56.5419 6.68533 56.8966 6.576 57.3446 6.576Z" fill="#03E32C"/>
</svg>
