<svg width="62" height="16" viewBox="0 0 62 16" fill="none" xmlns="http://www.w3.org/2000/svg">
<rect width="62" height="16" rx="8" fill="#FFF6D4"/>
<path d="M9.33333 5.66667L10 5M8.66667 9.33333L11.3333 6.66667M10 11L10.6667 10.3333M11.5 10.3333C11.721 10.3333 11.933 10.2455 12.0893 10.0893C12.2455 9.93298 12.3333 9.72101 12.3333 9.5C12.3333 9.27899 12.2455 9.06703 12.0893 8.91074C11.933 8.75446 11.721 8.66667 11.5 8.66667C11.279 8.66667 11.067 8.75446 10.9107 8.91074C10.7545 9.06703 10.6667 9.27899 10.6667 9.5C10.6667 9.72101 10.7545 9.93298 10.9107 10.0893C11.067 10.2455 11.279 10.3333 11.5 10.3333ZM8.5 7.33333C8.72101 7.33333 8.93298 7.24554 9.08926 7.08926C9.24554 6.93298 9.33333 6.72101 9.33333 6.5C9.33333 6.27899 9.24554 6.06702 9.08926 5.91074C8.93298 5.75446 8.72101 5.66667 8.5 5.66667C8.27899 5.66667 8.06702 5.75446 7.91074 5.91074C7.75446 6.06702 7.66667 6.27899 7.66667 6.5C7.66667 6.72101 7.75446 6.93298 7.91074 7.08926C8.06702 7.24554 8.27899 7.33333 8.5 7.33333ZM7.83333 11C8.05435 11 8.26631 10.9122 8.42259 10.7559C8.57887 10.5996 8.66667 10.3877 8.66667 10.1667C8.66667 9.94565 8.57887 9.73369 8.42259 9.57741C8.26631 9.42113 8.05435 9.33333 7.83333 9.33333C7.61232 9.33333 7.40036 9.42113 7.24408 9.57741C7.0878 9.73369 7 9.94565 7 10.1667C7 10.3877 7.0878 10.5996 7.24408 10.7559C7.40036 10.9122 7.61232 11 7.83333 11ZM12.1667 6.66667C12.3877 6.66667 12.5996 6.57887 12.7559 6.42259C12.9122 6.26631 13 6.05435 13 5.83333C13 5.61232 12.9122 5.40036 12.7559 5.24408C12.5996 5.0878 12.3877 5 12.1667 5C11.9457 5 11.7337 5.0878 11.5774 5.24408C11.4211 5.40036 11.3333 5.61232 11.3333 5.83333C11.3333 6.05435 11.4211 6.26631 11.5774 6.42259C11.7337 6.57887 11.9457 6.66667 12.1667 6.66667Z" stroke="#FDBA14" stroke-width="0.5" stroke-linecap="round" stroke-linejoin="round"/>
<path d="M16.176 5.816V7.944H18.376V8.384H16.176V10.536H18.616V11H15.608V5.36H18.616V5.816H16.176ZM19.8404 5.08V11H19.2724V5.08H19.8404ZM22.6376 10.592C23.0323 10.592 23.363 10.4933 23.6296 10.296C23.8963 10.0987 24.0563 9.832 24.1096 9.496H24.7016C24.6216 9.96 24.4003 10.336 24.0376 10.624C23.675 10.912 23.2163 11.056 22.6616 11.056C22.2456 11.056 21.875 10.968 21.5496 10.792C21.2296 10.6107 20.979 10.352 20.7976 10.016C20.6163 9.67467 20.5256 9.27467 20.5256 8.816C20.5256 8.35733 20.6163 7.96 20.7976 7.624C20.979 7.28267 21.2296 7.024 21.5496 6.848C21.875 6.66667 22.2456 6.576 22.6616 6.576C23.0883 6.576 23.4563 6.66667 23.7656 6.848C24.0803 7.024 24.3176 7.26133 24.4776 7.56C24.643 7.85867 24.7256 8.184 24.7256 8.536C24.7256 8.68533 24.715 8.82133 24.6936 8.944H21.0776C21.083 9.312 21.1576 9.62133 21.3016 9.872C21.451 10.1173 21.643 10.2987 21.8776 10.416C22.1123 10.5333 22.3656 10.592 22.6376 10.592ZM22.6616 7.032C22.379 7.032 22.1203 7.09067 21.8856 7.208C21.651 7.32533 21.459 7.50667 21.3096 7.752C21.1656 7.992 21.0883 8.29333 21.0776 8.656H24.1656C24.187 8.29867 24.1283 7.99733 23.9896 7.752C23.851 7.50667 23.6643 7.32533 23.4296 7.208C23.195 7.09067 22.939 7.032 22.6616 7.032ZM27.3416 6.576C27.8963 6.576 28.355 6.72267 28.7176 7.016C29.0856 7.30933 29.3096 7.69867 29.3896 8.184H28.8056C28.747 7.83733 28.5843 7.56533 28.3176 7.368C28.051 7.16533 27.723 7.064 27.3336 7.064C27.051 7.064 26.7896 7.128 26.5496 7.256C26.315 7.384 26.1256 7.58133 25.9816 7.848C25.843 8.10933 25.7736 8.432 25.7736 8.816C25.7736 9.2 25.843 9.52533 25.9816 9.792C26.1256 10.0533 26.315 10.248 26.5496 10.376C26.7896 10.504 27.051 10.568 27.3336 10.568C27.723 10.568 28.051 10.4693 28.3176 10.272C28.5843 10.0693 28.747 9.79467 28.8056 9.448H29.3896C29.3096 9.93333 29.0856 10.3227 28.7176 10.616C28.355 10.9093 27.8963 11.056 27.3416 11.056C26.9256 11.056 26.555 10.968 26.2296 10.792C25.9096 10.6107 25.659 10.352 25.4776 10.016C25.2963 9.67467 25.2056 9.27467 25.2056 8.816C25.2056 8.35733 25.2963 7.96 25.4776 7.624C25.659 7.28267 25.9096 7.024 26.2296 6.848C26.555 6.66667 26.9256 6.576 27.3416 6.576ZM32.062 10.504V11H31.542C31.1207 11 30.806 10.9013 30.598 10.704C30.39 10.5013 30.286 10.1627 30.286 9.688V7.12H29.622V6.632H30.286V5.528H30.854V6.632H32.054V7.12H30.854V9.696C30.854 10.0053 30.91 10.2187 31.022 10.336C31.134 10.448 31.3313 10.504 31.614 10.504H32.062ZM33.2322 7.536C33.3602 7.22133 33.5656 6.97867 33.8482 6.808C34.1309 6.63733 34.4749 6.552 34.8802 6.552V7.16H34.6962C34.2749 7.16 33.9256 7.27467 33.6482 7.504C33.3709 7.728 33.2322 8.096 33.2322 8.608V11H32.6642V6.632H33.2322V7.536ZM37.2812 6.576C37.6972 6.576 38.0679 6.66667 38.3932 6.848C38.7239 7.024 38.9825 7.28267 39.1692 7.624C39.3559 7.96 39.4492 8.35733 39.4492 8.816C39.4492 9.27467 39.3559 9.672 39.1692 10.008C38.9825 10.344 38.7239 10.6027 38.3932 10.784C38.0679 10.9653 37.6972 11.056 37.2812 11.056C36.8652 11.056 36.4919 10.9653 36.1612 10.784C35.8305 10.6027 35.5692 10.344 35.3772 10.008C35.1905 9.66667 35.0972 9.26933 35.0972 8.816C35.0972 8.35733 35.1905 7.96 35.3772 7.624C35.5692 7.28267 35.8305 7.024 36.1612 6.848C36.4919 6.66667 36.8652 6.576 37.2812 6.576ZM37.2812 7.064C36.9932 7.064 36.7265 7.128 36.4812 7.256C36.2359 7.384 36.0385 7.58133 35.8892 7.848C35.7399 8.10933 35.6652 8.432 35.6652 8.816C35.6652 9.2 35.7399 9.52267 35.8892 9.784C36.0385 10.0453 36.2359 10.24 36.4812 10.368C36.7265 10.496 36.9932 10.56 37.2812 10.56C37.5639 10.56 37.8252 10.496 38.0652 10.368C38.3105 10.24 38.5079 10.0453 38.6572 9.784C38.8065 9.52267 38.8812 9.2 38.8812 8.816C38.8812 8.432 38.8065 8.10933 38.6572 7.848C38.5079 7.58133 38.3105 7.384 38.0652 7.256C37.8252 7.128 37.5639 7.064 37.2812 7.064ZM42.3176 6.552C42.8243 6.552 43.235 6.71467 43.5496 7.04C43.8696 7.36 44.0296 7.832 44.0296 8.456V11H43.4776V8.496C43.4776 8.02133 43.3576 7.65867 43.1176 7.408C42.8776 7.152 42.5496 7.024 42.1336 7.024C41.6963 7.024 41.347 7.16533 41.0856 7.448C40.8296 7.72533 40.7016 8.136 40.7016 8.68V11H40.1336V6.632H40.7016V7.704C40.8136 7.33067 41.0163 7.04533 41.3096 6.848C41.603 6.65067 41.939 6.552 42.3176 6.552ZM44.7638 5.336C44.7638 5.21867 44.8011 5.12533 44.8758 5.056C44.9558 4.98667 45.0571 4.952 45.1798 4.952C45.3024 4.952 45.4011 4.98667 45.4758 5.056C45.5504 5.12533 45.5878 5.21867 45.5878 5.336C45.5878 5.448 45.5504 5.53867 45.4758 5.608C45.4011 5.67733 45.3024 5.712 45.1798 5.712C45.0571 5.712 44.9558 5.67733 44.8758 5.608C44.8011 5.53867 44.7638 5.448 44.7638 5.336ZM45.4598 6.632V11H44.8918V6.632H45.4598ZM48.281 6.576C48.8357 6.576 49.2943 6.72267 49.657 7.016C50.025 7.30933 50.249 7.69867 50.329 8.184H49.745C49.6863 7.83733 49.5237 7.56533 49.257 7.368C48.9903 7.16533 48.6623 7.064 48.273 7.064C47.9903 7.064 47.729 7.128 47.489 7.256C47.2543 7.384 47.065 7.58133 46.921 7.848C46.7823 8.10933 46.713 8.432 46.713 8.816C46.713 9.2 46.7823 9.52533 46.921 9.792C47.065 10.0533 47.2543 10.248 47.489 10.376C47.729 10.504 47.9903 10.568 48.273 10.568C48.6623 10.568 48.9903 10.4693 49.257 10.272C49.5237 10.0693 49.6863 9.79467 49.745 9.448H50.329C50.249 9.93333 50.025 10.3227 49.657 10.616C49.2943 10.9093 48.8357 11.056 48.281 11.056C47.865 11.056 47.4943 10.968 47.169 10.792C46.849 10.6107 46.5983 10.352 46.417 10.016C46.2357 9.67467 46.145 9.27467 46.145 8.816C46.145 8.35733 46.2357 7.96 46.417 7.624C46.5983 7.28267 46.849 7.024 47.169 6.848C47.4943 6.66667 47.865 6.576 48.281 6.576ZM52.3374 6.576C52.812 6.576 53.1934 6.70133 53.4814 6.952C53.7694 7.20267 53.9454 7.54133 54.0094 7.968H53.4734C53.4414 7.68533 53.324 7.45333 53.1214 7.272C52.924 7.08533 52.6574 6.992 52.3214 6.992C52.0334 6.992 51.8067 7.064 51.6414 7.208C51.4814 7.34667 51.4014 7.53333 51.4014 7.768C51.4014 7.944 51.452 8.08533 51.5534 8.192C51.66 8.29867 51.7907 8.38133 51.9454 8.44C52.1 8.49333 52.308 8.54933 52.5694 8.608C52.8894 8.68267 53.1454 8.76 53.3374 8.84C53.5347 8.91467 53.7027 9.03467 53.8414 9.2C53.98 9.36533 54.0494 9.58933 54.0494 9.872C54.0494 10.2187 53.9187 10.504 53.6574 10.728C53.4014 10.9467 53.06 11.056 52.6334 11.056C52.132 11.056 51.7214 10.9333 51.4014 10.688C51.0814 10.4373 50.892 10.096 50.8334 9.664H51.3774C51.4094 9.952 51.5347 10.1867 51.7534 10.368C51.972 10.5493 52.268 10.64 52.6414 10.64C52.9187 10.64 53.1347 10.568 53.2894 10.424C53.444 10.28 53.5214 10.0933 53.5214 9.864C53.5214 9.67733 53.468 9.528 53.3614 9.416C53.2547 9.304 53.1214 9.22133 52.9614 9.168C52.8067 9.10933 52.5934 9.048 52.3214 8.984C52.0067 8.90933 51.7534 8.83467 51.5614 8.76C51.3747 8.68533 51.2147 8.57067 51.0814 8.416C50.948 8.256 50.8814 8.04 50.8814 7.768C50.8814 7.41067 51.012 7.12267 51.2734 6.904C51.5347 6.68533 51.8894 6.576 52.3374 6.576Z" fill="#FDBA14"/>
</svg>
