<svg width="31" height="31" viewBox="0 0 31 31" fill="none" xmlns="http://www.w3.org/2000/svg">
<path d="M12.2778 4.22222L15.5 1M9.05556 21.9444L21.9444 9.05556M15.5 30L18.7222 26.7778M22.75 26.7778C23.8182 26.7778 24.8427 26.3534 25.5981 25.5981C26.3534 24.8427 26.7778 23.8182 26.7778 22.75C26.7778 21.6818 26.3534 20.6573 25.5981 19.9019C24.8427 19.1466 23.8182 18.7222 22.75 18.7222C21.6818 18.7222 20.6573 19.1466 19.9019 19.9019C19.1466 20.6573 18.7222 21.6818 18.7222 22.75C18.7222 23.8182 19.1466 24.8427 19.9019 25.5981C20.6573 26.3534 21.6818 26.7778 22.75 26.7778ZM8.25 12.2778C9.31823 12.2778 10.3427 11.8534 11.0981 11.0981C11.8534 10.3427 12.2778 9.31823 12.2778 8.25C12.2778 7.18177 11.8534 6.15729 11.0981 5.40193C10.3427 4.64658 9.31823 4.22222 8.25 4.22222C7.18177 4.22222 6.15729 4.64658 5.40193 5.40193C4.64658 6.15729 4.22222 7.18177 4.22222 8.25C4.22222 9.31823 4.64658 10.3427 5.40193 11.0981C6.15729 11.8534 7.18177 12.2778 8.25 12.2778ZM5.02778 30C6.09601 30 7.12049 29.5756 7.87585 28.8203C8.6312 28.0649 9.05556 27.0405 9.05556 25.9722C9.05556 24.904 8.6312 23.8795 7.87585 23.1242C7.12049 22.3688 6.09601 21.9444 5.02778 21.9444C3.95954 21.9444 2.93506 22.3688 2.17971 23.1242C1.42435 23.8795 1 24.904 1 25.9722C1 27.0405 1.42435 28.0649 2.17971 28.8203C2.93506 29.5756 3.95954 30 5.02778 30ZM25.9722 9.05556C27.0405 9.05556 28.0649 8.6312 28.8203 7.87585C29.5756 7.12049 30 6.09601 30 5.02778C30 3.95954 29.5756 2.93506 28.8203 2.17971C28.0649 1.42435 27.0405 1 25.9722 1C24.904 1 23.8795 1.42435 23.1242 2.17971C22.3688 2.93506 21.9444 3.95954 21.9444 5.02778C21.9444 6.09601 22.3688 7.12049 23.1242 7.87585C23.8795 8.6312 24.904 9.05556 25.9722 9.05556Z" stroke="#FDBA14" stroke-width="2" stroke-linecap="round" stroke-linejoin="round"/>
</svg>
