<svg width="14" height="14" viewBox="0 0 14 14" fill="none" xmlns="http://www.w3.org/2000/svg">
<path d="M5.41667 2.08333L6.75 0.75M4.08333 9.41667L9.41667 4.08333M6.75 12.75L8.08333 11.4167M9.75 11.4167C10.192 11.4167 10.616 11.2411 10.9285 10.9285C11.2411 10.616 11.4167 10.192 11.4167 9.75C11.4167 9.30797 11.2411 8.88405 10.9285 8.57149C10.616 8.25893 10.192 8.08333 9.75 8.08333C9.30797 8.08333 8.88405 8.25893 8.57149 8.57149C8.25893 8.88405 8.08333 9.30797 8.08333 9.75C8.08333 10.192 8.25893 10.616 8.57149 10.9285C8.88405 11.2411 9.30797 11.4167 9.75 11.4167ZM3.75 5.41667C4.19203 5.41667 4.61595 5.24107 4.92851 4.92851C5.24107 4.61595 5.41667 4.19203 5.41667 3.75C5.41667 3.30797 5.24107 2.88405 4.92851 2.57149C4.61595 2.25893 4.19203 2.08333 3.75 2.08333C3.30797 2.08333 2.88405 2.25893 2.57149 2.57149C2.25893 2.88405 2.08333 3.30797 2.08333 3.75C2.08333 4.19203 2.25893 4.61595 2.57149 4.92851C2.88405 5.24107 3.30797 5.41667 3.75 5.41667ZM2.41667 12.75C2.85869 12.75 3.28262 12.5744 3.59518 12.2618C3.90774 11.9493 4.08333 11.5254 4.08333 11.0833C4.08333 10.6413 3.90774 10.2174 3.59518 9.90482C3.28262 9.59226 2.85869 9.41667 2.41667 9.41667C1.97464 9.41667 1.55072 9.59226 1.23816 9.90482C0.925595 10.2174 0.75 10.6413 0.75 11.0833C0.75 11.5254 0.925595 11.9493 1.23816 12.2618C1.55072 12.5744 1.97464 12.75 2.41667 12.75ZM11.0833 4.08333C11.5254 4.08333 11.9493 3.90774 12.2618 3.59518C12.5744 3.28262 12.75 2.85869 12.75 2.41667C12.75 1.97464 12.5744 1.55072 12.2618 1.23816C11.9493 0.925595 11.5254 0.75 11.0833 0.75C10.6413 0.75 10.2174 0.925595 9.90482 1.23816C9.59226 1.55072 9.41667 1.97464 9.41667 2.41667C9.41667 2.85869 9.59226 3.28262 9.90482 3.59518C10.2174 3.90774 10.6413 4.08333 11.0833 4.08333Z" stroke="#1980B2" stroke-width="1.5" stroke-linecap="round" stroke-linejoin="round"/>
</svg>
