<svg width="15" height="17" viewBox="0 0 15 17" fill="none" xmlns="http://www.w3.org/2000/svg">
<path d="M7.41966 0C11.5175 0 14.8393 3.32178 14.8393 7.41966C14.8393 11.5175 11.5175 14.8393 7.41966 14.8393C3.32178 14.8393 0 11.5175 0 7.41966C0 3.32178 3.32178 0 7.41966 0ZM7.41966 1.48393C5.84541 1.48393 4.33563 2.1093 3.22247 3.22247C2.1093 4.33563 1.48393 5.84541 1.48393 7.41966C1.48393 8.99392 2.1093 10.5037 3.22247 11.6169C4.33563 12.73 5.84541 13.3554 7.41966 13.3554C8.99392 13.3554 10.5037 12.73 11.6169 11.6169C12.73 10.5037 13.3554 8.99392 13.3554 7.41966C13.3554 5.84541 12.73 4.33563 11.6169 3.22247C10.5037 2.1093 8.99392 1.48393 7.41966 1.48393ZM9.49717 8.7975C9.56639 8.72766 9.64881 8.67229 9.73962 8.63458C9.83043 8.59688 9.92783 8.57761 10.0262 8.57788C10.1245 8.57815 10.2218 8.59796 10.3124 8.63617C10.403 8.67437 10.4851 8.7302 10.5539 8.80041C10.6228 8.87063 10.677 8.95382 10.7134 9.04516C10.7498 9.13651 10.7676 9.23417 10.766 9.33249C10.7643 9.4308 10.7431 9.5278 10.7036 9.61785C10.6641 9.7079 10.6071 9.7892 10.5359 9.85702C9.70463 10.674 8.58523 11.1311 7.41966 11.1295C6.2541 11.1311 5.1347 10.674 4.30341 9.85702C4.16616 9.71857 4.08892 9.53167 4.08839 9.33673C4.08785 9.14178 4.16406 8.95446 4.30053 8.81525C4.43701 8.67604 4.62279 8.59614 4.81771 8.59282C5.01262 8.5895 5.20102 8.66302 5.34216 8.7975C5.8961 9.34253 6.64255 9.64724 7.41966 9.64556C8.22841 9.64556 8.96073 9.32281 9.49717 8.7975ZM4.82278 4.4518C5.11795 4.4518 5.40104 4.56906 5.60976 4.77777C5.81848 4.98649 5.93573 5.26958 5.93573 5.56475C5.93573 5.85992 5.81848 6.143 5.60976 6.35172C5.40104 6.56044 5.11795 6.6777 4.82278 6.6777C4.52761 6.6777 4.24453 6.56044 4.03581 6.35172C3.82709 6.143 3.70983 5.85992 3.70983 5.56475C3.70983 5.26958 3.82709 4.98649 4.03581 4.77777C4.24453 4.56906 4.52761 4.4518 4.82278 4.4518ZM10.0165 4.4518C10.3117 4.4518 10.5948 4.56906 10.8035 4.77777C11.0122 4.98649 11.1295 5.26958 11.1295 5.56475C11.1295 5.85992 11.0122 6.143 10.8035 6.35172C10.5948 6.56044 10.3117 6.6777 10.0165 6.6777C9.72137 6.6777 9.43829 6.56044 9.22957 6.35172C9.02085 6.143 8.9036 5.85992 8.9036 5.56475C8.9036 5.26958 9.02085 4.98649 9.22957 4.77777C9.43829 4.56906 9.72137 4.4518 10.0165 4.4518Z" fill="#047EAF"/>
</svg>
