<svg width="27" height="27" viewBox="0 0 27 27" fill="none" xmlns="http://www.w3.org/2000/svg">
<path d="M24.5122 1.66457L25.176 2.32832C26.0906 3.24407 25.9522 4.86745 24.8644 5.9542L11.1765 19.6421L6.74173 21.2643C6.18485 21.4691 5.6426 21.2036 5.53235 20.6737C5.49521 20.4815 5.51275 20.2827 5.58298 20.0999L7.23673 15.6269L20.8864 1.9762C21.9742 0.889446 23.5976 0.748821 24.5122 1.66457ZM10.5791 3.02582C10.7268 3.02582 10.8731 3.05492 11.0096 3.11146C11.1461 3.16799 11.2701 3.25086 11.3746 3.35533C11.4791 3.45979 11.5619 3.58381 11.6185 3.7203C11.675 3.85679 11.7041 4.00308 11.7041 4.15082C11.7041 4.29856 11.675 4.44485 11.6185 4.58134C11.5619 4.71783 11.4791 4.84185 11.3746 4.94632C11.2701 5.05078 11.1461 5.13365 11.0096 5.19019C10.8731 5.24672 10.7268 5.27582 10.5791 5.27582H6.0791C5.48236 5.27582 4.91007 5.51287 4.48811 5.93483C4.06615 6.35679 3.8291 6.92908 3.8291 7.52582V21.0258C3.8291 21.6226 4.06615 22.1949 4.48811 22.6168C4.91007 23.0388 5.48236 23.2758 6.0791 23.2758H19.5791C20.1758 23.2758 20.7481 23.0388 21.1701 22.6168C21.5921 22.1949 21.8291 21.6226 21.8291 21.0258V16.5258C21.8291 16.2275 21.9476 15.9413 22.1586 15.7303C22.3696 15.5193 22.6557 15.4008 22.9541 15.4008C23.2525 15.4008 23.5386 15.5193 23.7496 15.7303C23.9606 15.9413 24.0791 16.2275 24.0791 16.5258V21.0258C24.0791 22.2193 23.605 23.3639 22.7611 24.2078C21.9172 25.0517 20.7726 25.5258 19.5791 25.5258H6.0791C4.88563 25.5258 3.74103 25.0517 2.89712 24.2078C2.05321 23.3639 1.5791 22.2193 1.5791 21.0258V7.52582C1.5791 6.33235 2.05321 5.18775 2.89712 4.34384C3.74103 3.49993 4.88563 3.02582 6.0791 3.02582H10.5791Z" fill="white"/>
</svg>
