<svg width="75" height="89" viewBox="0 0 75 89" fill="none" xmlns="http://www.w3.org/2000/svg">
<path d="M7.21387 1H50.6504L73.8574 24.207V81.0713C73.8574 82.7194 73.2025 84.3004 72.0371 85.4658C70.8717 86.6312 69.2907 87.2861 67.6426 87.2861H7.21387C5.56599 87.286 3.9856 86.631 2.82031 85.4658C1.65491 84.3004 1 82.7194 1 81.0713V7.21387C1.00011 5.56589 1.65501 3.98562 2.82031 2.82031C3.98562 1.65501 5.56589 1.00011 7.21387 1Z" fill="#AFE5FF" stroke="#00658D"/>
<path d="M74.3571 81.0714C74.3571 82.8522 73.6497 84.56 72.3906 85.8191C71.1314 87.0783 69.4236 87.7857 67.6429 87.7857H7.21429C5.43355 87.7857 3.72574 87.0783 2.46657 85.8191C1.2074 84.56 0.5 82.8522 0.5 81.0714V7.21429C0.5 5.43355 1.2074 3.72574 2.46657 2.46657C3.72574 1.2074 5.43355 0.5 7.21429 0.5H50.8571L74.3571 24V81.0714Z" stroke="#00658D" stroke-linecap="round" stroke-linejoin="round"/>
<path d="M50.8571 40.7857L37.4286 27.3572M37.4286 27.3572L24 40.7857M37.4286 27.3572V64.2857" stroke="#00658D" stroke-width="6" stroke-linecap="round" stroke-linejoin="round"/>
</svg>
