<svg width="18" height="18" viewBox="0 0 18 18" fill="none" xmlns="http://www.w3.org/2000/svg">
<path d="M17 6.5V1H11.5M11.75 6.25L16.5 1.5M13 11C13 12.5913 12.3679 14.1174 11.2426 15.2426C10.1174 16.3679 8.5913 17 7 17C5.4087 17 3.88258 16.3679 2.75736 15.2426C1.63214 14.1174 1 12.5913 1 11C1 9.4087 1.63214 7.88258 2.75736 6.75736C3.88258 5.63214 5.4087 5 7 5C8.5913 5 10.1174 5.63214 11.2426 6.75736C12.3679 7.88258 13 9.4087 13 11Z" stroke="#047EAF" stroke-width="2" stroke-linecap="square"/>
</svg>
