<svg width="17" height="18" viewBox="0 0 17 18" fill="none" xmlns="http://www.w3.org/2000/svg">
<path d="M0.690643 12.78H3.49918L2.66121 16.942C2.6428 17.0391 2.63359 17.1377 2.63371 17.2366C2.63371 17.6876 2.94643 17.9363 3.37936 17.9363C3.82132 17.9363 4.14346 17.6966 4.23579 17.2456L5.13779 12.78H9.493L8.65543 16.942C8.62793 17.0339 8.61889 17.1447 8.61889 17.2366C8.61889 17.6876 8.932 17.9363 9.37397 17.9363C9.81593 17.9363 10.1381 17.6966 10.2304 17.2456L11.1226 12.78H14.4096C14.916 12.78 15.266 12.4119 15.266 11.9146C15.266 11.5095 14.9899 11.178 14.5754 11.178H11.4538L12.4308 6.31636H15.6534C16.1602 6.31636 16.5098 5.94825 16.5098 5.45089C16.5098 5.04586 16.2336 4.71429 15.8192 4.71429H12.7529L13.508 1.00375C13.517 0.948357 13.5355 0.828536 13.5355 0.709107C13.5355 0.257714 13.2134 0 12.7714 0C12.256 0 12.0258 0.285214 11.9334 0.718143L11.1234 4.71429H6.76775L7.52282 1.00375C7.53186 0.948357 7.55032 0.828536 7.55032 0.709107C7.55032 0.257714 7.21875 0 6.78621 0C6.26136 0 6.02171 0.285214 5.93882 0.718143L5.12875 4.71429H2.10886C1.60207 4.71429 1.25243 5.10086 1.25243 5.60725C1.25243 6.02171 1.52861 6.31636 1.94307 6.31636H4.80661L3.83036 11.178H0.856429C0.349643 11.178 0 11.5645 0 12.0709C0 12.4854 0.276179 12.78 0.690643 12.78ZM5.45993 11.178L6.44561 6.31636H10.8004L9.81514 11.178H5.45993Z" fill="#047EAF"/>
</svg>
