<svg width="105" height="25" viewBox="0 0 105 25" fill="none" xmlns="http://www.w3.org/2000/svg">
<rect width="105" height="25" rx="6" fill="#FFE8D4"/>
<path d="M17.47 18V8.2H18.87V18H17.47ZM21.608 18V10.58H22.896V12.582L22.686 12.05C22.9287 11.5647 23.302 11.1867 23.806 10.916C24.31 10.6453 24.898 10.51 25.57 10.51C26.1767 10.51 26.7087 10.6267 27.166 10.86C27.6327 11.0933 27.9967 11.448 28.258 11.924C28.5193 12.4 28.65 13.002 28.65 13.73V18H27.306V13.884C27.306 13.1653 27.1287 12.624 26.774 12.26C26.4287 11.896 25.9387 11.714 25.304 11.714C24.828 11.714 24.4127 11.8073 24.058 11.994C23.7033 12.1807 23.428 12.456 23.232 12.82C23.0453 13.184 22.952 13.6367 22.952 14.178V18H21.608ZM35.093 18V8.2H38.915C39.7737 8.2 40.5064 8.33533 41.113 8.606C41.7197 8.87667 42.1864 9.26867 42.513 9.782C42.8397 10.2953 43.003 10.9067 43.003 11.616C43.003 12.3253 42.8397 12.9367 42.513 13.45C42.1864 13.954 41.7197 14.346 41.113 14.626C40.5064 14.8967 39.7737 15.032 38.915 15.032H35.863L36.493 14.374V18H35.093ZM36.493 14.514L35.863 13.814H38.873C39.769 13.814 40.4457 13.6227 40.903 13.24C41.3697 12.8573 41.603 12.316 41.603 11.616C41.603 10.916 41.3697 10.3747 40.903 9.992C40.4457 9.60933 39.769 9.418 38.873 9.418H35.863L36.493 8.718V14.514ZM44.7271 18V10.58H46.0151V12.596L45.8891 12.092C46.0945 11.5787 46.4398 11.1867 46.9251 10.916C47.4105 10.6453 48.0078 10.51 48.7171 10.51V11.812C48.6611 11.8027 48.6051 11.798 48.5491 11.798C48.5025 11.798 48.4558 11.798 48.4091 11.798C47.6905 11.798 47.1211 12.0127 46.7011 12.442C46.2811 12.8713 46.0711 13.492 46.0711 14.304V18H44.7271ZM53.4833 18.084C52.7366 18.084 52.0739 17.9207 51.4953 17.594C50.9166 17.2673 50.4593 16.8193 50.1233 16.25C49.7873 15.6713 49.6193 15.018 49.6193 14.29C49.6193 13.5527 49.7873 12.8993 50.1233 12.33C50.4593 11.7607 50.9166 11.3173 51.4953 11C52.0739 10.6733 52.7366 10.51 53.4833 10.51C54.2206 10.51 54.8786 10.6733 55.4573 11C56.0453 11.3173 56.5026 11.7607 56.8293 12.33C57.1653 12.89 57.3333 13.5433 57.3333 14.29C57.3333 15.0273 57.1653 15.6807 56.8293 16.25C56.5026 16.8193 56.0453 17.2673 55.4573 17.594C54.8786 17.9207 54.2206 18.084 53.4833 18.084ZM53.4833 16.908C53.9593 16.908 54.3839 16.8007 54.7573 16.586C55.1399 16.3713 55.4386 16.068 55.6533 15.676C55.8679 15.2747 55.9753 14.8127 55.9753 14.29C55.9753 13.758 55.8679 13.3007 55.6533 12.918C55.4386 12.526 55.1399 12.2227 54.7573 12.008C54.3839 11.7933 53.9593 11.686 53.4833 11.686C53.0073 11.686 52.5826 11.7933 52.2093 12.008C51.8359 12.2227 51.5373 12.526 51.3133 12.918C51.0893 13.3007 50.9773 13.758 50.9773 14.29C50.9773 14.8127 51.0893 15.2747 51.3133 15.676C51.5373 16.068 51.8359 16.3713 52.2093 16.586C52.5826 16.8007 53.0073 16.908 53.4833 16.908ZM62.426 18.084C61.67 18.084 60.9933 17.9207 60.396 17.594C59.808 17.2673 59.346 16.8193 59.01 16.25C58.674 15.6807 58.506 15.0273 58.506 14.29C58.506 13.5527 58.674 12.8993 59.01 12.33C59.346 11.7607 59.808 11.3173 60.396 11C60.9933 10.6733 61.67 10.51 62.426 10.51C63.098 10.51 63.6953 10.6453 64.218 10.916C64.75 11.1773 65.1606 11.5693 65.45 12.092L64.428 12.75C64.1853 12.386 63.8866 12.12 63.532 11.952C63.1866 11.7747 62.8133 11.686 62.412 11.686C61.9266 11.686 61.4926 11.7933 61.11 12.008C60.7273 12.2227 60.424 12.526 60.2 12.918C59.976 13.3007 59.864 13.758 59.864 14.29C59.864 14.822 59.976 15.284 60.2 15.676C60.424 16.068 60.7273 16.3713 61.11 16.586C61.4926 16.8007 61.9266 16.908 62.412 16.908C62.8133 16.908 63.1866 16.824 63.532 16.656C63.8866 16.4787 64.1853 16.208 64.428 15.844L65.45 16.488C65.1606 17.0013 64.75 17.398 64.218 17.678C63.6953 17.9487 63.098 18.084 62.426 18.084ZM70.3846 18.084C69.5913 18.084 68.8913 17.9207 68.2846 17.594C67.6873 17.2673 67.2206 16.8193 66.8846 16.25C66.558 15.6807 66.3946 15.0273 66.3946 14.29C66.3946 13.5527 66.5533 12.8993 66.8706 12.33C67.1973 11.7607 67.6406 11.3173 68.2006 11C68.77 10.6733 69.4093 10.51 70.1186 10.51C70.8373 10.51 71.472 10.6687 72.0226 10.986C72.5733 11.3033 73.0026 11.7513 73.3106 12.33C73.628 12.8993 73.7866 13.5667 73.7866 14.332C73.7866 14.388 73.782 14.4533 73.7726 14.528C73.7726 14.6027 73.768 14.6727 73.7586 14.738H67.4446V13.772H73.0586L72.5126 14.108C72.522 13.632 72.424 13.2073 72.2186 12.834C72.0133 12.4607 71.7286 12.1713 71.3646 11.966C71.01 11.7513 70.5946 11.644 70.1186 11.644C69.652 11.644 69.2366 11.7513 68.8726 11.966C68.5086 12.1713 68.224 12.4653 68.0186 12.848C67.8133 13.2213 67.7106 13.6507 67.7106 14.136V14.36C67.7106 14.8547 67.8226 15.298 68.0466 15.69C68.28 16.0727 68.602 16.3713 69.0126 16.586C69.4233 16.8007 69.8946 16.908 70.4266 16.908C70.8653 16.908 71.262 16.8333 71.6166 16.684C71.9806 16.5347 72.298 16.3107 72.5686 16.012L73.3106 16.88C72.9746 17.272 72.5546 17.5707 72.0506 17.776C71.556 17.9813 71.0006 18.084 70.3846 18.084ZM77.7809 18.084C77.1649 18.084 76.5769 18 76.0169 17.832C75.4662 17.664 75.0322 17.4587 74.7149 17.216L75.2749 16.152C75.5922 16.3667 75.9842 16.5487 76.4509 16.698C76.9176 16.8473 77.3936 16.922 77.8789 16.922C78.5042 16.922 78.9522 16.8333 79.2229 16.656C79.5029 16.4787 79.6429 16.2313 79.6429 15.914C79.6429 15.6807 79.5589 15.4987 79.3909 15.368C79.2229 15.2373 78.9989 15.1393 78.7189 15.074C78.4482 15.0087 78.1449 14.9527 77.8089 14.906C77.4729 14.85 77.1369 14.7847 76.8009 14.71C76.4649 14.626 76.1569 14.514 75.8769 14.374C75.5969 14.2247 75.3729 14.024 75.2049 13.772C75.0369 13.5107 74.9529 13.1653 74.9529 12.736C74.9529 12.288 75.0789 11.896 75.3309 11.56C75.5829 11.224 75.9376 10.9673 76.3949 10.79C76.8616 10.6033 77.4122 10.51 78.0469 10.51C78.5322 10.51 79.0222 10.5707 79.5169 10.692C80.0209 10.804 80.4316 10.9673 80.7489 11.182L80.1749 12.246C79.8389 12.022 79.4889 11.868 79.1249 11.784C78.7609 11.7 78.3969 11.658 78.0329 11.658C77.4449 11.658 77.0062 11.756 76.7169 11.952C76.4276 12.1387 76.2829 12.3813 76.2829 12.68C76.2829 12.932 76.3669 13.128 76.5349 13.268C76.7122 13.3987 76.9362 13.5013 77.2069 13.576C77.4869 13.6507 77.7949 13.716 78.1309 13.772C78.4669 13.8187 78.8029 13.884 79.1389 13.968C79.4749 14.0427 79.7782 14.15 80.0489 14.29C80.3289 14.43 80.5529 14.626 80.7209 14.878C80.8982 15.13 80.9869 15.466 80.9869 15.886C80.9869 16.334 80.8562 16.7213 80.5949 17.048C80.3336 17.3747 79.9649 17.6313 79.4889 17.818C79.0129 17.9953 78.4436 18.084 77.7809 18.084ZM84.7946 18.084C84.1786 18.084 83.5906 18 83.0306 17.832C82.4799 17.664 82.0459 17.4587 81.7286 17.216L82.2886 16.152C82.6059 16.3667 82.9979 16.5487 83.4646 16.698C83.9312 16.8473 84.4072 16.922 84.8926 16.922C85.5179 16.922 85.9659 16.8333 86.2366 16.656C86.5166 16.4787 86.6566 16.2313 86.6566 15.914C86.6566 15.6807 86.5726 15.4987 86.4046 15.368C86.2366 15.2373 86.0126 15.1393 85.7326 15.074C85.4619 15.0087 85.1586 14.9527 84.8226 14.906C84.4866 14.85 84.1506 14.7847 83.8146 14.71C83.4786 14.626 83.1706 14.514 82.8906 14.374C82.6106 14.2247 82.3866 14.024 82.2186 13.772C82.0506 13.5107 81.9666 13.1653 81.9666 12.736C81.9666 12.288 82.0926 11.896 82.3446 11.56C82.5966 11.224 82.9512 10.9673 83.4086 10.79C83.8752 10.6033 84.4259 10.51 85.0606 10.51C85.5459 10.51 86.0359 10.5707 86.5306 10.692C87.0346 10.804 87.4452 10.9673 87.7626 11.182L87.1886 12.246C86.8526 12.022 86.5026 11.868 86.1386 11.784C85.7746 11.7 85.4106 11.658 85.0466 11.658C84.4586 11.658 84.0199 11.756 83.7306 11.952C83.4412 12.1387 83.2966 12.3813 83.2966 12.68C83.2966 12.932 83.3806 13.128 83.5486 13.268C83.7259 13.3987 83.9499 13.5013 84.2206 13.576C84.5006 13.6507 84.8086 13.716 85.1446 13.772C85.4806 13.8187 85.8166 13.884 86.1526 13.968C86.4886 14.0427 86.7919 14.15 87.0626 14.29C87.3426 14.43 87.5666 14.626 87.7346 14.878C87.9119 15.13 88.0006 15.466 88.0006 15.886C88.0006 16.334 87.8699 16.7213 87.6086 17.048C87.3472 17.3747 86.9786 17.6313 86.5026 17.818C86.0266 17.9953 85.4572 18.084 84.7946 18.084Z" fill="#FF8800"/>
</svg>
