<svg width="25" height="25" viewBox="0 0 25 25" fill="none" xmlns="http://www.w3.org/2000/svg">
<path d="M2.75 24.75C1.99375 24.75 1.34658 24.481 0.8085 23.9429C0.270417 23.4048 0.000916667 22.7572 0 22V2.75C0 1.99375 0.2695 1.34658 0.8085 0.8085C1.3475 0.270417 1.99467 0.000916667 2.75 0H22C22.7563 0 23.4039 0.2695 23.9429 0.8085C24.4819 1.3475 24.7509 1.99467 24.75 2.75V22C24.75 22.7563 24.481 23.4039 23.9429 23.9429C23.4048 24.4819 22.7572 24.7509 22 24.75H2.75ZM12.375 17.875C13.2458 17.875 14.0365 17.6229 14.7469 17.1187C15.4573 16.6146 15.95 15.95 16.225 15.125H22V2.75H2.75V15.125H8.525C8.8 15.95 9.29271 16.6146 10.0031 17.1187C10.7135 17.6229 11.5042 17.875 12.375 17.875Z" fill="#AFE5FF"/>
</svg>
