<svg width="32" height="32" viewBox="0 0 32 32" fill="none" xmlns="http://www.w3.org/2000/svg">
<path d="M7.99967 2.66699H19.9997C20.7069 2.66699 21.3852 2.94794 21.8853 3.44804C22.3854 3.94814 22.6663 4.62641 22.6663 5.33366V8.00033H19.9997V5.33366H7.99967V26.667H19.9997V24.0003H22.6663V26.667C22.6663 27.3742 22.3854 28.0525 21.8853 28.5526C21.3852 29.0527 20.7069 29.3337 19.9997 29.3337H7.99967C7.29243 29.3337 6.61415 29.0527 6.11406 28.5526C5.61396 28.0525 5.33301 27.3742 5.33301 26.667V5.33366C5.33301 4.62641 5.61396 3.94814 6.11406 3.44804C6.61415 2.94794 7.29243 2.66699 7.99967 2.66699Z" fill="#AFE5FF"/>
<path d="M21.4533 20.7863L23.3333 22.6663L30 15.9997L23.3333 9.33301L21.4533 11.213L24.8933 14.6663H12V17.333H24.8933L21.4533 20.7863Z" fill="#AFE5FF"/>
</svg>
