<svg width="27" height="28" viewBox="0 0 27 28" fill="none" xmlns="http://www.w3.org/2000/svg">
<path d="M3.06818 28C2.22443 28 1.50239 27.6956 0.902045 27.0869C0.301705 26.4781 0.00102273 25.7455 0 24.8889V3.11111C0 2.25555 0.300682 1.52341 0.902045 0.914666C1.50341 0.305926 2.22545 0.00103704 3.06818 0H12.2727C12.7074 0 13.072 0.149333 13.3665 0.448C13.6611 0.746666 13.8078 1.11585 13.8068 1.55555C13.8058 1.99526 13.6585 2.36496 13.365 2.66466C13.0715 2.96437 12.7074 3.11318 12.2727 3.11111H3.06818V24.8889H12.2727C12.7074 24.8889 13.072 25.0382 13.3665 25.3369C13.6611 25.6355 13.8078 26.0047 13.8068 26.4444C13.8058 26.8841 13.6585 27.2538 13.365 27.5535C13.0715 27.8532 12.7074 28.0021 12.2727 28H3.06818ZM21.7457 15.5555H10.7386C10.304 15.5555 9.93989 15.4062 9.64636 15.1075C9.35284 14.8089 9.20557 14.4397 9.20455 14C9.20352 13.5603 9.35079 13.1911 9.64636 12.8924C9.94193 12.5938 10.306 12.4444 10.7386 12.4444H21.7457L18.8693 9.52777C18.5881 9.24259 18.4474 8.89259 18.4474 8.47777C18.4474 8.06296 18.5881 7.69999 18.8693 7.38888C19.1506 7.07777 19.5085 6.91548 19.9432 6.90199C20.3778 6.88851 20.7486 7.03785 21.0554 7.34999L26.5398 12.9111C26.8466 13.2222 27 13.5852 27 14C27 14.4148 26.8466 14.7778 26.5398 15.0889L21.0554 20.65C20.7486 20.9611 20.3845 21.1104 19.9631 21.098C19.5418 21.0855 19.1772 20.9232 18.8693 20.6111C18.5881 20.3 18.4541 19.9308 18.4674 19.5035C18.4807 19.0763 18.6274 18.7195 18.9077 18.4333L21.7457 15.5555Z" fill="#AF0404"/>
</svg>
