<svg width="27" height="27" viewBox="0 0 27 27" fill="none" xmlns="http://www.w3.org/2000/svg">
<path d="M12.9375 3.375H10.575C8.055 3.375 6.795 3.375 5.832 3.8655C4.98531 4.29692 4.29692 4.98531 3.8655 5.832C3.375 6.795 3.375 8.055 3.375 10.575V16.425C3.375 18.945 3.375 20.205 3.8655 21.168C4.29692 22.0147 4.98531 22.7031 5.832 23.1345C6.795 23.625 8.055 23.625 10.575 23.625H16.425C18.945 23.625 20.205 23.625 21.168 23.1345C22.0147 22.7031 22.7031 22.0147 23.1345 21.168C23.625 20.205 23.625 18.945 23.625 16.425V14.0625M23.625 6.46875C23.625 7.28926 23.2991 8.07617 22.7189 8.65636C22.1387 9.23655 21.3518 9.5625 20.5312 9.5625C19.7107 9.5625 18.9238 9.23655 18.3436 8.65636C17.7634 8.07617 17.4375 7.28926 17.4375 6.46875C17.4375 5.64824 17.7634 4.86133 18.3436 4.28114C18.9238 3.70095 19.7107 3.375 20.5312 3.375C21.3518 3.375 22.1387 3.70095 22.7189 4.28114C23.2991 4.86133 23.625 5.64824 23.625 6.46875Z" stroke="#646464" stroke-width="1.5" stroke-linecap="round" stroke-linejoin="round"/>
</svg>
