<svg width="99" height="23" viewBox="0 0 99 23" fill="none" xmlns="http://www.w3.org/2000/svg">
<rect width="99" height="23" rx="6" fill="#FFE8D4"/>
<path d="M22.365 16.5V7.4H25.914C26.7113 7.4 27.3917 7.52567 27.955 7.777C28.5183 8.02833 28.9517 8.39233 29.255 8.869C29.5583 9.34567 29.71 9.91333 29.71 10.572C29.71 11.2307 29.5583 11.7983 29.255 12.275C28.9517 12.743 28.5183 13.107 27.955 13.367C27.3917 13.6183 26.7113 13.744 25.914 13.744H23.08L23.665 13.133V16.5H22.365ZM23.665 13.263L23.08 12.613H25.875C26.707 12.613 27.3353 12.4353 27.76 12.08C28.1933 11.7247 28.41 11.222 28.41 10.572C28.41 9.922 28.1933 9.41933 27.76 9.064C27.3353 8.70867 26.707 8.531 25.875 8.531H23.08L23.665 7.881V13.263ZM34.4805 16.578C33.7438 16.578 33.0938 16.4263 32.5305 16.123C31.9758 15.8197 31.5425 15.4037 31.2305 14.875C30.9272 14.3463 30.7755 13.7397 30.7755 13.055C30.7755 12.3703 30.9228 11.7637 31.2175 11.235C31.5208 10.7063 31.9325 10.2947 32.4525 10C32.9812 9.69667 33.5748 9.545 34.2335 9.545C34.9008 9.545 35.4902 9.69233 36.0015 9.987C36.5128 10.2817 36.9115 10.6977 37.1975 11.235C37.4922 11.7637 37.6395 12.3833 37.6395 13.094C37.6395 13.146 37.6352 13.2067 37.6265 13.276C37.6265 13.3453 37.6222 13.4103 37.6135 13.471H31.7505V12.574H36.9635L36.4565 12.886C36.4652 12.444 36.3742 12.0497 36.1835 11.703C35.9928 11.3563 35.7285 11.0877 35.3905 10.897C35.0612 10.6977 34.6755 10.598 34.2335 10.598C33.8002 10.598 33.4145 10.6977 33.0765 10.897C32.7385 11.0877 32.4742 11.3607 32.2835 11.716C32.0928 12.0627 31.9975 12.4613 31.9975 12.912V13.12C31.9975 13.5793 32.1015 13.991 32.3095 14.355C32.5262 14.7103 32.8252 14.9877 33.2065 15.187C33.5878 15.3863 34.0255 15.486 34.5195 15.486C34.9268 15.486 35.2952 15.4167 35.6245 15.278C35.9625 15.1393 36.2572 14.9313 36.5085 14.654L37.1975 15.46C36.8855 15.824 36.4955 16.1013 36.0275 16.292C35.5682 16.4827 35.0525 16.578 34.4805 16.578ZM39.3725 16.5V9.61H40.5685V11.469L40.3735 10.975C40.5988 10.5243 40.9455 10.1733 41.4135 9.922C41.8815 9.67067 42.4275 9.545 43.0515 9.545C43.6148 9.545 44.1088 9.65333 44.5335 9.87C44.9668 10.0867 45.3048 10.416 45.5475 10.858C45.7901 11.3 45.9115 11.859 45.9115 12.535V16.5H44.6635V12.678C44.6635 12.0107 44.4988 11.508 44.1695 11.17C43.8488 10.832 43.3938 10.663 42.8045 10.663C42.3625 10.663 41.9768 10.7497 41.6475 10.923C41.3181 11.0963 41.0625 11.352 40.8805 11.69C40.7071 12.028 40.6205 12.4483 40.6205 12.951V16.5H39.3725ZM51.0681 16.578C50.4008 16.578 49.8028 16.4307 49.2741 16.136C48.7541 15.8413 48.3424 15.4297 48.0391 14.901C47.7358 14.3723 47.5841 13.757 47.5841 13.055C47.5841 12.353 47.7358 11.742 48.0391 11.222C48.3424 10.6933 48.7541 10.2817 49.2741 9.987C49.8028 9.69233 50.4008 9.545 51.0681 9.545C51.6488 9.545 52.1731 9.675 52.6411 9.935C53.1091 10.195 53.4818 10.585 53.7591 11.105C54.0451 11.625 54.1881 12.275 54.1881 13.055C54.1881 13.835 54.0494 14.485 53.7721 15.005C53.5034 15.525 53.1351 15.9193 52.6671 16.188C52.1991 16.448 51.6661 16.578 51.0681 16.578ZM51.1721 15.486C51.6054 15.486 51.9954 15.3863 52.3421 15.187C52.6974 14.9877 52.9748 14.706 53.1741 14.342C53.3821 13.9693 53.4861 13.5403 53.4861 13.055C53.4861 12.561 53.3821 12.1363 53.1741 11.781C52.9748 11.417 52.6974 11.1353 52.3421 10.936C51.9954 10.7367 51.6054 10.637 51.1721 10.637C50.7301 10.637 50.3358 10.7367 49.9891 10.936C49.6424 11.1353 49.3651 11.417 49.1571 11.781C48.9491 12.1363 48.8451 12.561 48.8451 13.055C48.8451 13.5403 48.9491 13.9693 49.1571 14.342C49.3651 14.706 49.6424 14.9877 49.9891 15.187C50.3358 15.3863 50.7301 15.486 51.1721 15.486ZM53.5251 16.5V14.641L53.6031 13.042L53.4731 11.443V6.854H54.7211V16.5H53.5251ZM57.0824 16.5V9.61H58.3304V16.5H57.0824ZM57.7064 8.284C57.4637 8.284 57.2601 8.206 57.0954 8.05C56.9394 7.894 56.8614 7.70333 56.8614 7.478C56.8614 7.244 56.9394 7.049 57.0954 6.893C57.2601 6.737 57.4637 6.659 57.7064 6.659C57.9491 6.659 58.1484 6.737 58.3044 6.893C58.4691 7.04033 58.5514 7.22667 58.5514 7.452C58.5514 7.686 58.4734 7.88533 58.3174 8.05C58.1614 8.206 57.9577 8.284 57.7064 8.284ZM60.7133 16.5V9.61H61.9093V11.469L61.7143 10.975C61.9396 10.5243 62.2863 10.1733 62.7543 9.922C63.2223 9.67067 63.7683 9.545 64.3923 9.545C64.9556 9.545 65.4496 9.65333 65.8743 9.87C66.3076 10.0867 66.6456 10.416 66.8883 10.858C67.1309 11.3 67.2523 11.859 67.2523 12.535V16.5H66.0043V12.678C66.0043 12.0107 65.8396 11.508 65.5103 11.17C65.1896 10.832 64.7346 10.663 64.1453 10.663C63.7033 10.663 63.3176 10.7497 62.9883 10.923C62.6589 11.0963 62.4033 11.352 62.2213 11.69C62.0479 12.028 61.9613 12.4483 61.9613 12.951V16.5H60.7133ZM72.5779 19.1C71.9452 19.1 71.3299 19.009 70.7319 18.827C70.1426 18.6537 69.6616 18.4023 69.2889 18.073L69.8869 17.111C70.2076 17.3883 70.6019 17.605 71.0699 17.761C71.5379 17.9257 72.0276 18.008 72.5389 18.008C73.3536 18.008 73.9516 17.8173 74.3329 17.436C74.7142 17.0547 74.9049 16.474 74.9049 15.694V14.238L75.0349 12.873L74.9699 11.495V9.61H76.1529V15.564C76.1529 16.7773 75.8496 17.67 75.2429 18.242C74.6362 18.814 73.7479 19.1 72.5779 19.1ZM72.4219 16.214C71.7546 16.214 71.1566 16.0753 70.6279 15.798C70.1079 15.512 69.6919 15.1177 69.3799 14.615C69.0766 14.1123 68.9249 13.5317 68.9249 12.873C68.9249 12.2057 69.0766 11.625 69.3799 11.131C69.6919 10.6283 70.1079 10.2383 70.6279 9.961C71.1566 9.68367 71.7546 9.545 72.4219 9.545C73.0112 9.545 73.5486 9.66633 74.0339 9.909C74.5192 10.143 74.9049 10.507 75.1909 11.001C75.4856 11.495 75.6329 12.119 75.6329 12.873C75.6329 13.6183 75.4856 14.238 75.1909 14.732C74.9049 15.226 74.5192 15.5987 74.0339 15.85C73.5486 16.0927 73.0112 16.214 72.4219 16.214ZM72.5649 15.122C73.0242 15.122 73.4316 15.0267 73.7869 14.836C74.1422 14.6453 74.4196 14.381 74.6189 14.043C74.8269 13.705 74.9309 13.315 74.9309 12.873C74.9309 12.431 74.8269 12.041 74.6189 11.703C74.4196 11.365 74.1422 11.105 73.7869 10.923C73.4316 10.7323 73.0242 10.637 72.5649 10.637C72.1056 10.637 71.6939 10.7323 71.3299 10.923C70.9746 11.105 70.6929 11.365 70.4849 11.703C70.2856 12.041 70.1859 12.431 70.1859 12.873C70.1859 13.315 70.2856 13.705 70.4849 14.043C70.6929 14.381 70.9746 14.6453 71.3299 14.836C71.6939 15.0267 72.1056 15.122 72.5649 15.122Z" fill="#FF8800"/>
</svg>
