<svg width="14" height="14" viewBox="0 0 14 14" fill="none" xmlns="http://www.w3.org/2000/svg">
<path d="M11.4167 0.75H2.08333C1.72971 0.75 1.39057 0.89047 1.14052 1.14051C0.890476 1.39054 0.75 1.72967 0.75 2.08328C0.75 2.43688 0.890476 2.77601 1.14052 3.02604C1.39057 3.27608 1.72971 3.41655 2.08333 3.41655H10.75M0.75 3.41655V2.74991M0.75 3.41655H11.4167C11.7703 3.41655 12.1094 3.55702 12.3595 3.80706C12.6095 4.0571 12.75 4.39622 12.75 4.74983V11.4162C12.75 11.7698 12.6095 12.1089 12.3595 12.359C12.1094 12.609 11.7703 12.7495 11.4167 12.7495H0.75V3.41655ZM9.41667 8.08301H10.0833" stroke="#1980B2" stroke-width="1.5" stroke-linecap="square"/>
</svg>
