<svg width="54" height="16" viewBox="0 0 54 16" fill="none" xmlns="http://www.w3.org/2000/svg">
<rect width="54" height="16" rx="8" fill="#E8F7FF"/>
<path d="M12.3333 5H7.66667C7.48986 5 7.32029 5.07023 7.19526 5.19525C7.07024 5.32027 7 5.48983 7 5.66664C7 5.84344 7.07024 6.013 7.19526 6.13802C7.32029 6.26304 7.48986 6.33328 7.66667 6.33328H12M7 6.33328V5.99996M7 6.33328H12.3333C12.5101 6.33328 12.6797 6.40351 12.8047 6.52853C12.9298 6.65355 13 6.82311 13 6.99991V10.3331C13 10.5099 12.9298 10.6795 12.8047 10.8045C12.6797 10.9295 12.5101 10.9997 12.3333 10.9997H7V6.33328ZM11.3333 8.66651H11.6667" stroke="#047EAF" stroke-width="0.5" stroke-linecap="square"/>
<path d="M16.176 8.648V11H15.608V5.36H17.296C17.9307 5.36 18.4027 5.50667 18.712 5.8C19.0267 6.09333 19.184 6.496 19.184 7.008C19.184 7.53067 19.0213 7.936 18.696 8.224C18.376 8.50667 17.9093 8.648 17.296 8.648H16.176ZM17.248 8.168C17.7333 8.168 18.0827 8.06933 18.296 7.872C18.5093 7.66933 18.616 7.38133 18.616 7.008C18.616 6.624 18.5093 6.33333 18.296 6.136C18.0827 5.93333 17.7333 5.832 17.248 5.832H16.176V8.168H17.248ZM21.6529 10.592C22.0476 10.592 22.3783 10.4933 22.6449 10.296C22.9116 10.0987 23.0716 9.832 23.1249 9.496H23.7169C23.6369 9.96 23.4156 10.336 23.0529 10.624C22.6903 10.912 22.2316 11.056 21.6769 11.056C21.2609 11.056 20.8903 10.968 20.5649 10.792C20.2449 10.6107 19.9943 10.352 19.8129 10.016C19.6316 9.67467 19.5409 9.27467 19.5409 8.816C19.5409 8.35733 19.6316 7.96 19.8129 7.624C19.9943 7.28267 20.2449 7.024 20.5649 6.848C20.8903 6.66667 21.2609 6.576 21.6769 6.576C22.1036 6.576 22.4716 6.66667 22.7809 6.848C23.0956 7.024 23.3329 7.26133 23.4929 7.56C23.6583 7.85867 23.7409 8.184 23.7409 8.536C23.7409 8.68533 23.7303 8.82133 23.7089 8.944H20.0929C20.0983 9.312 20.1729 9.62133 20.3169 9.872C20.4663 10.1173 20.6583 10.2987 20.8929 10.416C21.1276 10.5333 21.3809 10.592 21.6529 10.592ZM21.6769 7.032C21.3943 7.032 21.1356 7.09067 20.9009 7.208C20.6663 7.32533 20.4743 7.50667 20.3249 7.752C20.1809 7.992 20.1036 8.29333 20.0929 8.656H23.1809C23.2023 8.29867 23.1436 7.99733 23.0049 7.752C22.8663 7.50667 22.6796 7.32533 22.4449 7.208C22.2103 7.09067 21.9543 7.032 21.6769 7.032ZM24.9969 7.536C25.1249 7.22133 25.3303 6.97867 25.6129 6.808C25.8956 6.63733 26.2396 6.552 26.6449 6.552V7.16H26.4609C26.0396 7.16 25.6903 7.27467 25.4129 7.504C25.1356 7.728 24.9969 8.096 24.9969 8.608V11H24.4289V6.632H24.9969V7.536ZM28.3899 6.576C28.8645 6.576 29.2459 6.70133 29.5339 6.952C29.8219 7.20267 29.9979 7.54133 30.0619 7.968H29.5259C29.4939 7.68533 29.3765 7.45333 29.1739 7.272C28.9765 7.08533 28.7099 6.992 28.3739 6.992C28.0859 6.992 27.8592 7.064 27.6939 7.208C27.5339 7.34667 27.4539 7.53333 27.4539 7.768C27.4539 7.944 27.5045 8.08533 27.6059 8.192C27.7125 8.29867 27.8432 8.38133 27.9979 8.44C28.1525 8.49333 28.3605 8.54933 28.6219 8.608C28.9419 8.68267 29.1979 8.76 29.3899 8.84C29.5872 8.91467 29.7552 9.03467 29.8939 9.2C30.0325 9.36533 30.1019 9.58933 30.1019 9.872C30.1019 10.2187 29.9712 10.504 29.7099 10.728C29.4539 10.9467 29.1125 11.056 28.6859 11.056C28.1845 11.056 27.7739 10.9333 27.4539 10.688C27.1339 10.4373 26.9445 10.096 26.8859 9.664H27.4299C27.4619 9.952 27.5872 10.1867 27.8059 10.368C28.0245 10.5493 28.3205 10.64 28.6939 10.64C28.9712 10.64 29.1872 10.568 29.3419 10.424C29.4965 10.28 29.5739 10.0933 29.5739 9.864C29.5739 9.67733 29.5205 9.528 29.4139 9.416C29.3072 9.304 29.1739 9.22133 29.0139 9.168C28.8592 9.10933 28.6459 9.048 28.3739 8.984C28.0592 8.90933 27.8059 8.83467 27.6139 8.76C27.4272 8.68533 27.2672 8.57067 27.1339 8.416C27.0005 8.256 26.9339 8.04 26.9339 7.768C26.9339 7.41067 27.0645 7.12267 27.3259 6.904C27.5872 6.68533 27.9419 6.576 28.3899 6.576ZM32.7806 6.576C33.1966 6.576 33.5672 6.66667 33.8926 6.848C34.2232 7.024 34.4819 7.28267 34.6686 7.624C34.8552 7.96 34.9486 8.35733 34.9486 8.816C34.9486 9.27467 34.8552 9.672 34.6686 10.008C34.4819 10.344 34.2232 10.6027 33.8926 10.784C33.5672 10.9653 33.1966 11.056 32.7806 11.056C32.3646 11.056 31.9912 10.9653 31.6606 10.784C31.3299 10.6027 31.0686 10.344 30.8766 10.008C30.6899 9.66667 30.5966 9.26933 30.5966 8.816C30.5966 8.35733 30.6899 7.96 30.8766 7.624C31.0686 7.28267 31.3299 7.024 31.6606 6.848C31.9912 6.66667 32.3646 6.576 32.7806 6.576ZM32.7806 7.064C32.4926 7.064 32.2259 7.128 31.9806 7.256C31.7352 7.384 31.5379 7.58133 31.3886 7.848C31.2392 8.10933 31.1646 8.432 31.1646 8.816C31.1646 9.2 31.2392 9.52267 31.3886 9.784C31.5379 10.0453 31.7352 10.24 31.9806 10.368C32.2259 10.496 32.4926 10.56 32.7806 10.56C33.0632 10.56 33.3246 10.496 33.5646 10.368C33.8099 10.24 34.0072 10.0453 34.1566 9.784C34.3059 9.52267 34.3806 9.2 34.3806 8.816C34.3806 8.432 34.3059 8.10933 34.1566 7.848C34.0072 7.58133 33.8099 7.384 33.5646 7.256C33.3246 7.128 33.0632 7.064 32.7806 7.064ZM37.817 6.552C38.3237 6.552 38.7343 6.71467 39.049 7.04C39.369 7.36 39.529 7.832 39.529 8.456V11H38.977V8.496C38.977 8.02133 38.857 7.65867 38.617 7.408C38.377 7.152 38.049 7.024 37.633 7.024C37.1957 7.024 36.8463 7.16533 36.585 7.448C36.329 7.72533 36.201 8.136 36.201 8.68V11H35.633V6.632H36.201V7.704C36.313 7.33067 36.5157 7.04533 36.809 6.848C37.1023 6.65067 37.4383 6.552 37.817 6.552ZM42.2311 6.576C42.6738 6.576 43.0498 6.69067 43.3591 6.92C43.6738 7.14933 43.8898 7.45333 44.0071 7.832V6.632H44.5591V11H44.0071V9.8C43.8898 10.1787 43.6738 10.4827 43.3591 10.712C43.0498 10.9413 42.6738 11.056 42.2311 11.056C41.8365 11.056 41.4818 10.9653 41.1671 10.784C40.8578 10.6027 40.6151 10.344 40.4391 10.008C40.2685 9.66667 40.1831 9.26933 40.1831 8.816C40.1831 8.35733 40.2685 7.96 40.4391 7.624C40.6151 7.28267 40.8578 7.024 41.1671 6.848C41.4765 6.66667 41.8311 6.576 42.2311 6.576ZM42.3751 7.072C41.8845 7.072 41.4898 7.22933 41.1911 7.544C40.8978 7.85333 40.7511 8.27733 40.7511 8.816C40.7511 9.35467 40.8978 9.78133 41.1911 10.096C41.4898 10.4053 41.8845 10.56 42.3751 10.56C42.6845 10.56 42.9618 10.488 43.2071 10.344C43.4578 10.2 43.6525 9.99733 43.7911 9.736C43.9351 9.46933 44.0071 9.16267 44.0071 8.816C44.0071 8.46933 43.9351 8.16533 43.7911 7.904C43.6525 7.63733 43.4578 7.432 43.2071 7.288C42.9618 7.144 42.6845 7.072 42.3751 7.072ZM46.0219 5.08V11H45.4539V5.08H46.0219Z" fill="#1980B2"/>
</svg>
