<svg width="31" height="31" viewBox="0 0 31 31" fill="none" xmlns="http://www.w3.org/2000/svg">
<path d="M26.5273 8.19531C27.1167 8.19531 27.6829 8.42898 28.0996 8.8457C28.5163 9.26233 28.7499 9.82782 28.75 10.417V26.5273C28.75 27.1165 28.5161 27.6819 28.0996 28.0986C27.6829 28.5154 27.1167 28.75 26.5273 28.75H1.75V8.19531H26.5273Z" stroke="#045B7E" stroke-width="2"/>
<path d="M26.5278 0.75H3.97222C3.11764 0.75 2.29805 1.08947 1.69377 1.69373C1.08948 2.29798 0.75 3.11753 0.75 3.97208C0.75 4.82663 1.08948 5.64618 1.69377 6.25044C2.29805 6.8547 3.11764 7.19416 3.97222 7.19416H24.9167M0.75 7.19416V5.58312M0.75 7.19416H26.5278C27.3824 7.19416 28.2019 7.53363 28.8062 8.13789C29.4105 8.74215 29.75 9.5617 29.75 10.4162V26.5267C29.75 27.3812 29.4105 28.2008 28.8062 28.805C28.2019 29.4093 27.3824 29.7487 26.5278 29.7487H0.75V7.19416ZM21.6944 18.4715H23.3056" stroke="#045B7E" stroke-width="1.5" stroke-linecap="square"/>
</svg>
