<svg width="30" height="31" viewBox="0 0 30 31" fill="none" xmlns="http://www.w3.org/2000/svg">
<rect width="30" height="31" rx="15" fill="#E8F7FF"/>
<path d="M22.9618 13.4499C22.9482 13.6939 22.8759 13.9311 22.7509 14.1412C22.6329 14.3498 22.4719 14.5308 22.2785 14.6723C22.1942 14.7335 22.0952 14.7713 21.9916 14.7819L20.5069 14.9758C20.3422 15.0039 20.1895 15.0801 20.0683 15.195C19.6212 15.625 19.1656 16.0381 18.5414 16.6957L17.8243 17.4038C17.7311 17.5005 17.6643 17.6196 17.6303 17.7495L16.8373 20.9362C16.8407 20.9699 16.8407 21.0038 16.8373 21.0374C16.7275 21.2845 16.5598 21.5016 16.3483 21.6703C16.1369 21.8391 15.888 21.9545 15.6226 22.0069H15.3189C15.1536 22.0054 14.9892 21.9827 14.8296 21.9395C14.5712 21.8603 14.3364 21.7184 14.1463 21.5264L12.0036 19.3934L8.06404 23.3305C7.9441 23.4422 7.78547 23.503 7.62156 23.5001C7.45765 23.4972 7.30126 23.4309 7.18534 23.315C7.06942 23.1992 7.00302 23.0429 7.00013 22.8791C6.99724 22.7153 7.05808 22.5568 7.16984 22.4369L11.1094 18.4998L9.00042 16.3922C8.81184 16.1976 8.67294 15.9604 8.5955 15.7008C8.50982 15.4425 8.49525 15.1659 8.55332 14.8999C8.60287 14.6378 8.71582 14.3918 8.88232 14.1833C9.05095 13.972 9.26794 13.8043 9.51501 13.6944H9.61624L12.7712 12.8513C12.911 12.814 13.0388 12.7414 13.1424 12.6405C14.315 11.4856 14.7199 11.0809 15.3611 10.3896C15.4702 10.2741 15.5384 10.126 15.5551 9.96804L15.7575 8.47583C15.7667 8.36936 15.8046 8.26738 15.8672 8.18076C16.083 7.8905 16.3865 7.67726 16.7328 7.57252C17.0791 7.46777 17.45 7.47707 17.7906 7.59905C18.0186 7.68308 18.2258 7.81537 18.398 7.98686L22.5147 12.1178C22.6833 12.2889 22.8134 12.4939 22.8964 12.7193C22.9793 12.9447 23.0131 13.1851 22.9955 13.4246L22.9618 13.4499Z" fill="#047EAF"/>
</svg>
