<svg width="30" height="31" viewBox="0 0 30 31" fill="none" xmlns="http://www.w3.org/2000/svg">
<rect width="30" height="31" rx="15" fill="#E8F7FF"/>
<path d="M12.1437 18.5636L8 23M19.757 10.4229L21.7119 12.5159C21.8125 12.6229 21.89 12.7521 21.9392 12.8944C21.9885 13.0367 22.0081 13.1888 21.9969 13.3401C21.9858 13.4913 21.9439 13.6382 21.8744 13.7704C21.8049 13.9027 21.7093 14.0171 21.5943 14.1059L20.1877 14.3047C19.9051 14.3462 19.6419 14.4817 19.4352 14.6921C18.8588 15.2887 18.2719 15.9161 17.2945 16.9523C17.1263 17.134 17.0079 17.362 16.9526 17.6114L16.2001 20.8444C16.1367 21.0003 16.0388 21.1373 15.9147 21.2435C15.7907 21.3498 15.6444 21.422 15.4884 21.454C15.3324 21.486 15.1715 21.4768 15.0196 21.4272C14.8677 21.3776 14.7293 21.289 14.6166 21.1692L12.1829 18.5534L9.73961 15.9478C9.62773 15.8271 9.54503 15.679 9.49868 15.5163C9.45233 15.3537 9.44373 15.1814 9.47361 15.0144C9.5035 14.8474 9.57098 14.6907 9.6702 14.5579C9.76942 14.4252 9.89739 14.3203 10.043 14.2524L13.0427 13.4262C13.2743 13.3575 13.4863 13.2278 13.6591 13.049C14.7631 11.8877 15.1642 11.4591 15.7886 10.7366C15.9751 10.5223 16.0952 10.2523 16.1313 9.96262L16.317 8.43441C16.3999 8.31119 16.5069 8.2088 16.6305 8.13433C16.7541 8.05987 16.8914 8.01513 17.0328 8.00322C17.1742 7.99131 17.3164 8.01252 17.4493 8.06537C17.5823 8.11823 17.7029 8.20145 17.8028 8.30927L19.757 10.4229Z" stroke="#047EAF" stroke-width="1.5" stroke-linecap="round" stroke-linejoin="round"/>
</svg>
