<svg width="27" height="27" viewBox="0 0 27 27" fill="none" xmlns="http://www.w3.org/2000/svg">
<path d="M21.5934 25.6307L13.1082 16.6858L4.16328 25.1709C3.68881 25.621 3.05498 25.8642 2.40123 25.847C1.74747 25.8297 1.12734 25.5535 0.677261 25.079C0.227179 24.6045 -0.0159899 23.9707 0.00125317 23.317C0.0184962 22.6632 0.294738 22.0431 0.769205 21.593L9.71411 13.1078L1.22893 4.16289C0.778847 3.68842 0.535681 3.05459 0.552924 2.40083C0.570167 1.74708 0.846407 1.12695 1.32087 0.676867C1.79534 0.226785 2.42917 -0.016381 3.08293 0.000862045C3.73668 0.0181051 4.35681 0.294344 4.80689 0.768812L13.2921 9.71372L22.237 1.22854C22.7115 0.778455 23.3453 0.535289 23.999 0.552532C24.6528 0.569775 25.2729 0.846015 25.723 1.32048C26.1731 1.79495 26.4163 2.42878 26.399 3.08253C26.3818 3.73629 26.1055 4.35642 25.6311 4.8065L16.6862 13.2917L25.1713 22.2366C25.6214 22.7111 25.8646 23.3449 25.8473 23.9987C25.8301 24.6524 25.5539 25.2725 25.0794 25.7226C24.6049 26.1727 23.9711 26.4159 23.3173 26.3986C22.6636 26.3814 22.0435 26.1051 21.5934 25.6307Z" fill="#AF0404"/>
</svg>
