<svg width="99" height="23" viewBox="0 0 99 23" fill="none" xmlns="http://www.w3.org/2000/svg">
<rect width="99" height="23" rx="6" fill="#FFD4D4"/>
<path d="M21.365 16.5V7.4H24.914C26.0927 7.4 27.02 7.68167 27.696 8.245C28.372 8.79967 28.71 9.57533 28.71 10.572C28.71 11.2307 28.5583 11.7983 28.255 12.275C27.9517 12.743 27.5183 13.1027 26.955 13.354C26.3917 13.6053 25.7113 13.731 24.914 13.731H22.08L22.665 13.133V16.5H21.365ZM27.449 16.5L25.135 13.198H26.526L28.866 16.5H27.449ZM22.665 13.263L22.08 12.626H24.875C25.707 12.626 26.3353 12.4483 26.76 12.093C27.1933 11.729 27.41 11.222 27.41 10.572C27.41 9.922 27.1933 9.41933 26.76 9.064C26.3353 8.70867 25.707 8.531 24.875 8.531H22.08L22.665 7.881V13.263ZM33.6963 16.578C32.9596 16.578 32.3096 16.4263 31.7463 16.123C31.1916 15.8197 30.7583 15.4037 30.4463 14.875C30.143 14.3463 29.9913 13.7397 29.9913 13.055C29.9913 12.3703 30.1386 11.7637 30.4333 11.235C30.7366 10.7063 31.1483 10.2947 31.6683 10C32.197 9.69667 32.7906 9.545 33.4493 9.545C34.1166 9.545 34.706 9.69233 35.2173 9.987C35.7286 10.2817 36.1273 10.6977 36.4133 11.235C36.708 11.7637 36.8553 12.3833 36.8553 13.094C36.8553 13.146 36.851 13.2067 36.8423 13.276C36.8423 13.3453 36.838 13.4103 36.8293 13.471H30.9663V12.574H36.1793L35.6723 12.886C35.681 12.444 35.59 12.0497 35.3993 11.703C35.2086 11.3563 34.9443 11.0877 34.6063 10.897C34.277 10.6977 33.8913 10.598 33.4493 10.598C33.016 10.598 32.6303 10.6977 32.2923 10.897C31.9543 11.0877 31.69 11.3607 31.4993 11.716C31.3086 12.0627 31.2133 12.4613 31.2133 12.912V13.12C31.2133 13.5793 31.3173 13.991 31.5253 14.355C31.742 14.7103 32.041 14.9877 32.4223 15.187C32.8036 15.3863 33.2413 15.486 33.7353 15.486C34.1426 15.486 34.511 15.4167 34.8403 15.278C35.1783 15.1393 35.473 14.9313 35.7243 14.654L36.4133 15.46C36.1013 15.824 35.7113 16.1013 35.2433 16.292C34.784 16.4827 34.2683 16.578 33.6963 16.578ZM37.6281 19.1C37.3421 19.1 37.0691 19.0653 36.8091 18.996C36.5404 18.9267 36.3151 18.8227 36.1331 18.684L36.5361 17.722C36.7961 17.9387 37.1341 18.047 37.5501 18.047C37.8794 18.047 38.1308 17.943 38.3041 17.735C38.4861 17.5357 38.5771 17.2367 38.5771 16.838V9.61H39.8251V16.812C39.8251 17.514 39.6344 18.0687 39.2531 18.476C38.8804 18.892 38.3388 19.1 37.6281 19.1ZM39.2011 8.284C38.9584 8.284 38.7548 8.206 38.5901 8.05C38.4341 7.894 38.3561 7.70333 38.3561 7.478C38.3561 7.244 38.4341 7.049 38.5901 6.893C38.7548 6.737 38.9584 6.659 39.2011 6.659C39.4438 6.659 39.6431 6.737 39.7991 6.893C39.9638 7.04033 40.0461 7.22667 40.0461 7.452C40.0461 7.686 39.9681 7.88533 39.8121 8.05C39.6561 8.206 39.4524 8.284 39.2011 8.284ZM45.2744 16.578C44.5378 16.578 43.8878 16.4263 43.3244 16.123C42.7698 15.8197 42.3364 15.4037 42.0244 14.875C41.7211 14.3463 41.5694 13.7397 41.5694 13.055C41.5694 12.3703 41.7168 11.7637 42.0114 11.235C42.3148 10.7063 42.7264 10.2947 43.2464 10C43.7751 9.69667 44.3688 9.545 45.0274 9.545C45.6948 9.545 46.2841 9.69233 46.7954 9.987C47.3068 10.2817 47.7054 10.6977 47.9914 11.235C48.2861 11.7637 48.4334 12.3833 48.4334 13.094C48.4334 13.146 48.4291 13.2067 48.4204 13.276C48.4204 13.3453 48.4161 13.4103 48.4074 13.471H42.5444V12.574H47.7574L47.2504 12.886C47.2591 12.444 47.1681 12.0497 46.9774 11.703C46.7868 11.3563 46.5224 11.0877 46.1844 10.897C45.8551 10.6977 45.4694 10.598 45.0274 10.598C44.5941 10.598 44.2084 10.6977 43.8704 10.897C43.5324 11.0877 43.2681 11.3607 43.0774 11.716C42.8868 12.0627 42.7914 12.4613 42.7914 12.912V13.12C42.7914 13.5793 42.8954 13.991 43.1034 14.355C43.3201 14.7103 43.6191 14.9877 44.0004 15.187C44.3818 15.3863 44.8194 15.486 45.3134 15.486C45.7208 15.486 46.0891 15.4167 46.4184 15.278C46.7564 15.1393 47.0511 14.9313 47.3024 14.654L47.9914 15.46C47.6794 15.824 47.2894 16.1013 46.8214 16.292C46.3621 16.4827 45.8464 16.578 45.2744 16.578ZM53.1694 16.578C52.4674 16.578 51.8391 16.4263 51.2844 16.123C50.7384 15.8197 50.3094 15.4037 49.9974 14.875C49.6854 14.3463 49.5294 13.7397 49.5294 13.055C49.5294 12.3703 49.6854 11.7637 49.9974 11.235C50.3094 10.7063 50.7384 10.2947 51.2844 10C51.8391 9.69667 52.4674 9.545 53.1694 9.545C53.7934 9.545 54.3481 9.67067 54.8334 9.922C55.3274 10.1647 55.7087 10.5287 55.9774 11.014L55.0284 11.625C54.8031 11.287 54.5257 11.04 54.1964 10.884C53.8757 10.7193 53.5291 10.637 53.1564 10.637C52.7057 10.637 52.3027 10.7367 51.9474 10.936C51.5921 11.1353 51.3104 11.417 51.1024 11.781C50.8944 12.1363 50.7904 12.561 50.7904 13.055C50.7904 13.549 50.8944 13.978 51.1024 14.342C51.3104 14.706 51.5921 14.9877 51.9474 15.187C52.3027 15.3863 52.7057 15.486 53.1564 15.486C53.5291 15.486 53.8757 15.408 54.1964 15.252C54.5257 15.0873 54.8031 14.836 55.0284 14.498L55.9774 15.096C55.7087 15.5727 55.3274 15.941 54.8334 16.201C54.3481 16.4523 53.7934 16.578 53.1694 16.578ZM60.048 16.578C59.3547 16.578 58.8174 16.3917 58.436 16.019C58.0547 15.6463 57.864 15.1133 57.864 14.42V8.102H59.112V14.368C59.112 14.7407 59.203 15.0267 59.385 15.226C59.5757 15.4253 59.8444 15.525 60.191 15.525C60.581 15.525 60.906 15.4167 61.166 15.2L61.556 16.097C61.3654 16.2617 61.1357 16.383 60.867 16.461C60.607 16.539 60.334 16.578 60.048 16.578ZM56.694 10.637V9.61H61.088V10.637H56.694ZM65.9043 16.578C65.1677 16.578 64.5177 16.4263 63.9543 16.123C63.3997 15.8197 62.9663 15.4037 62.6543 14.875C62.351 14.3463 62.1993 13.7397 62.1993 13.055C62.1993 12.3703 62.3467 11.7637 62.6413 11.235C62.9447 10.7063 63.3563 10.2947 63.8763 10C64.405 9.69667 64.9987 9.545 65.6573 9.545C66.3247 9.545 66.914 9.69233 67.4253 9.987C67.9367 10.2817 68.3353 10.6977 68.6213 11.235C68.916 11.7637 69.0633 12.3833 69.0633 13.094C69.0633 13.146 69.059 13.2067 69.0503 13.276C69.0503 13.3453 69.046 13.4103 69.0373 13.471H63.1743V12.574H68.3873L67.8803 12.886C67.889 12.444 67.798 12.0497 67.6073 11.703C67.4167 11.3563 67.1523 11.0877 66.8143 10.897C66.485 10.6977 66.0993 10.598 65.6573 10.598C65.224 10.598 64.8383 10.6977 64.5003 10.897C64.1623 11.0877 63.898 11.3607 63.7073 11.716C63.5167 12.0627 63.4213 12.4613 63.4213 12.912V13.12C63.4213 13.5793 63.5253 13.991 63.7333 14.355C63.95 14.7103 64.249 14.9877 64.6303 15.187C65.0117 15.3863 65.4493 15.486 65.9433 15.486C66.3507 15.486 66.719 15.4167 67.0483 15.278C67.3863 15.1393 67.681 14.9313 67.9323 14.654L68.6213 15.46C68.3093 15.824 67.9193 16.1013 67.4513 16.292C66.992 16.4827 66.4763 16.578 65.9043 16.578ZM73.6433 16.578C72.9759 16.578 72.3779 16.4307 71.8493 16.136C71.3293 15.8413 70.9176 15.4297 70.6143 14.901C70.3109 14.3723 70.1593 13.757 70.1593 13.055C70.1593 12.353 70.3109 11.742 70.6143 11.222C70.9176 10.6933 71.3293 10.2817 71.8493 9.987C72.3779 9.69233 72.9759 9.545 73.6433 9.545C74.2239 9.545 74.7483 9.675 75.2163 9.935C75.6843 10.195 76.0569 10.585 76.3343 11.105C76.6203 11.625 76.7633 12.275 76.7633 13.055C76.7633 13.835 76.6246 14.485 76.3473 15.005C76.0786 15.525 75.7103 15.9193 75.2423 16.188C74.7743 16.448 74.2413 16.578 73.6433 16.578ZM73.7473 15.486C74.1806 15.486 74.5706 15.3863 74.9173 15.187C75.2726 14.9877 75.5499 14.706 75.7493 14.342C75.9573 13.9693 76.0613 13.5403 76.0613 13.055C76.0613 12.561 75.9573 12.1363 75.7493 11.781C75.5499 11.417 75.2726 11.1353 74.9173 10.936C74.5706 10.7367 74.1806 10.637 73.7473 10.637C73.3053 10.637 72.9109 10.7367 72.5643 10.936C72.2176 11.1353 71.9403 11.417 71.7323 11.781C71.5243 12.1363 71.4203 12.561 71.4203 13.055C71.4203 13.5403 71.5243 13.9693 71.7323 14.342C71.9403 14.706 72.2176 14.9877 72.5643 15.187C72.9109 15.3863 73.3053 15.486 73.7473 15.486ZM76.1003 16.5V14.641L76.1783 13.042L76.0483 11.443V6.854H77.2963V16.5H76.1003Z" fill="#FF0000"/>
</svg>
