<svg width="25" height="24" viewBox="0 0 25 24" fill="none" xmlns="http://www.w3.org/2000/svg">
<rect width="25" height="24" rx="4" fill="#A6FF7D"/>
<path fill-rule="evenodd" clip-rule="evenodd" d="M12.6758 4.25202C13.0897 4.26162 13.4175 4.60477 13.4083 5.01862C13.3989 5.43267 13.0557 5.76127 12.6417 5.75202C9.19076 5.67406 6.32997 8.40854 6.25201 11.8594C6.17431 15.3101 8.90869 18.1702 12.3594 18.2481C15.8101 18.3259 18.6709 15.5923 18.7491 12.1417C18.7584 11.7276 19.1016 11.3989 19.5157 11.4083C19.9296 11.4177 20.2573 11.761 20.2481 12.1749C20.1514 16.454 16.6044 19.8448 12.3253 19.7481C8.04622 19.6514 4.65544 16.1043 4.75201 11.8253C4.84868 7.54614 8.39673 4.15535 12.6758 4.25202ZM18.5303 5.52448C18.7932 5.2045 19.2659 5.15811 19.586 5.42096C19.906 5.68388 19.9524 6.15658 19.6895 6.47663L13.8926 13.5352C13.4108 14.1213 12.5211 14.146 12.0069 13.588L9.36627 10.7217C9.08593 10.4172 9.10581 9.94277 9.41022 9.66217C9.71484 9.3818 10.1892 9.40161 10.4698 9.70612L12.9151 12.3604L18.5303 5.52448Z" fill="white"/>
</svg>
