<svg width="100" height="25" viewBox="0 0 100 25" fill="none" xmlns="http://www.w3.org/2000/svg">
<rect width="100" height="25" rx="6" fill="#FFF6D4"/>
<path d="M17.47 18V8.2H21.292C22.5613 8.2 23.56 8.50333 24.288 9.11C25.016 9.70733 25.38 10.5427 25.38 11.616C25.38 12.3253 25.2167 12.9367 24.89 13.45C24.5633 13.954 24.0967 14.3413 23.49 14.612C22.8833 14.8827 22.1507 15.018 21.292 15.018H18.24L18.87 14.374V18H17.47ZM24.022 18L21.53 14.444H23.028L25.548 18H24.022ZM18.87 14.514L18.24 13.828H21.25C22.146 13.828 22.8227 13.6367 23.28 13.254C23.7467 12.862 23.98 12.316 23.98 11.616C23.98 10.916 23.7467 10.3747 23.28 9.992C22.8227 9.60933 22.146 9.418 21.25 9.418H18.24L18.87 8.718V14.514ZM30.7499 18.084C29.9565 18.084 29.2565 17.9207 28.6499 17.594C28.0525 17.2673 27.5859 16.8193 27.2499 16.25C26.9232 15.6807 26.7599 15.0273 26.7599 14.29C26.7599 13.5527 26.9185 12.8993 27.2359 12.33C27.5625 11.7607 28.0059 11.3173 28.5659 11C29.1352 10.6733 29.7745 10.51 30.4839 10.51C31.2025 10.51 31.8372 10.6687 32.3879 10.986C32.9385 11.3033 33.3679 11.7513 33.6759 12.33C33.9932 12.8993 34.1519 13.5667 34.1519 14.332C34.1519 14.388 34.1472 14.4533 34.1379 14.528C34.1379 14.6027 34.1332 14.6727 34.1239 14.738H27.8099V13.772H33.4239L32.8779 14.108C32.8872 13.632 32.7892 13.2073 32.5839 12.834C32.3785 12.4607 32.0939 12.1713 31.7299 11.966C31.3752 11.7513 30.9599 11.644 30.4839 11.644C30.0172 11.644 29.6019 11.7513 29.2379 11.966C28.8739 12.1713 28.5892 12.4653 28.3839 12.848C28.1785 13.2213 28.0759 13.6507 28.0759 14.136V14.36C28.0759 14.8547 28.1879 15.298 28.4119 15.69C28.6452 16.0727 28.9672 16.3713 29.3779 16.586C29.7885 16.8007 30.2599 16.908 30.7919 16.908C31.2305 16.908 31.6272 16.8333 31.9819 16.684C32.3459 16.5347 32.6632 16.3107 32.9339 16.012L33.6759 16.88C33.3399 17.272 32.9199 17.5707 32.4159 17.776C31.9212 17.9813 31.3659 18.084 30.7499 18.084ZM38.5661 18.084C37.8195 18.084 37.2408 17.8833 36.8301 17.482C36.4195 17.0807 36.2141 16.5067 36.2141 15.76V8.956H37.5581V15.704C37.5581 16.1053 37.6561 16.4133 37.8521 16.628C38.0575 16.8427 38.3468 16.95 38.7201 16.95C39.1401 16.95 39.4901 16.8333 39.7701 16.6L40.1901 17.566C39.9848 17.7433 39.7375 17.874 39.4481 17.958C39.1681 18.042 38.8741 18.084 38.5661 18.084ZM34.9541 11.686V10.58H39.6861V11.686H34.9541ZM44.937 18.084C44.3023 18.084 43.7423 17.9673 43.257 17.734C42.781 17.5007 42.4077 17.146 42.137 16.67C41.8757 16.1847 41.745 15.578 41.745 14.85V10.58H43.089V14.696C43.089 15.424 43.2617 15.97 43.607 16.334C43.9617 16.698 44.4563 16.88 45.091 16.88C45.5577 16.88 45.9637 16.7867 46.309 16.6C46.6543 16.404 46.9203 16.124 47.107 15.76C47.2937 15.3867 47.387 14.9387 47.387 14.416V10.58H48.731V18H47.457V15.998L47.667 16.53C47.4243 17.0247 47.0603 17.4073 46.575 17.678C46.0897 17.9487 45.5437 18.084 44.937 18.084ZM51.2896 18V10.58H52.5776V12.596L52.4516 12.092C52.657 11.5787 53.0023 11.1867 53.4876 10.916C53.973 10.6453 54.5703 10.51 55.2796 10.51V11.812C55.2236 11.8027 55.1676 11.798 55.1116 11.798C55.065 11.798 55.0183 11.798 54.9716 11.798C54.253 11.798 53.6836 12.0127 53.2636 12.442C52.8436 12.8713 52.6336 13.492 52.6336 14.304V18H51.2896ZM56.9361 18V10.58H58.2241V12.582L58.0141 12.05C58.2568 11.5647 58.6301 11.1867 59.1341 10.916C59.6381 10.6453 60.2261 10.51 60.8981 10.51C61.5048 10.51 62.0368 10.6267 62.4941 10.86C62.9608 11.0933 63.3248 11.448 63.5861 11.924C63.8474 12.4 63.9781 13.002 63.9781 13.73V18H62.6341V13.884C62.6341 13.1653 62.4568 12.624 62.1021 12.26C61.7568 11.896 61.2668 11.714 60.6321 11.714C60.1561 11.714 59.7408 11.8073 59.3861 11.994C59.0314 12.1807 58.7561 12.456 58.5601 12.82C58.3734 13.184 58.2801 13.6367 58.2801 14.178V18H56.9361ZM69.7694 18.084C68.9761 18.084 68.2761 17.9207 67.6694 17.594C67.0721 17.2673 66.6054 16.8193 66.2694 16.25C65.9427 15.6807 65.7794 15.0273 65.7794 14.29C65.7794 13.5527 65.9381 12.8993 66.2554 12.33C66.5821 11.7607 67.0254 11.3173 67.5854 11C68.1547 10.6733 68.7941 10.51 69.5034 10.51C70.2221 10.51 70.8567 10.6687 71.4074 10.986C71.9581 11.3033 72.3874 11.7513 72.6954 12.33C73.0127 12.8993 73.1714 13.5667 73.1714 14.332C73.1714 14.388 73.1667 14.4533 73.1574 14.528C73.1574 14.6027 73.1527 14.6727 73.1434 14.738H66.8294V13.772H72.4434L71.8974 14.108C71.9067 13.632 71.8087 13.2073 71.6034 12.834C71.3981 12.4607 71.1134 12.1713 70.7494 11.966C70.3947 11.7513 69.9794 11.644 69.5034 11.644C69.0367 11.644 68.6214 11.7513 68.2574 11.966C67.8934 12.1713 67.6087 12.4653 67.4034 12.848C67.1981 13.2213 67.0954 13.6507 67.0954 14.136V14.36C67.0954 14.8547 67.2074 15.298 67.4314 15.69C67.6647 16.0727 67.9867 16.3713 68.3974 16.586C68.8081 16.8007 69.2794 16.908 69.8114 16.908C70.2501 16.908 70.6467 16.8333 71.0014 16.684C71.3654 16.5347 71.6827 16.3107 71.9534 16.012L72.6954 16.88C72.3594 17.272 71.9394 17.5707 71.4354 17.776C70.9407 17.9813 70.3854 18.084 69.7694 18.084ZM78.1037 18.084C77.385 18.084 76.741 17.9253 76.1717 17.608C75.6117 17.2907 75.1683 16.8473 74.8417 16.278C74.515 15.7087 74.3517 15.046 74.3517 14.29C74.3517 13.534 74.515 12.876 74.8417 12.316C75.1683 11.7467 75.6117 11.3033 76.1717 10.986C76.741 10.6687 77.385 10.51 78.1037 10.51C78.729 10.51 79.2937 10.65 79.7977 10.93C80.3017 11.21 80.703 11.63 81.0017 12.19C81.3097 12.75 81.4637 13.45 81.4637 14.29C81.4637 15.13 81.3143 15.83 81.0157 16.39C80.7263 16.95 80.3297 17.3747 79.8257 17.664C79.3217 17.944 78.7477 18.084 78.1037 18.084ZM78.2157 16.908C78.6823 16.908 79.1023 16.8007 79.4757 16.586C79.8583 16.3713 80.157 16.068 80.3717 15.676C80.5957 15.2747 80.7077 14.8127 80.7077 14.29C80.7077 13.758 80.5957 13.3007 80.3717 12.918C80.157 12.526 79.8583 12.2227 79.4757 12.008C79.1023 11.7933 78.6823 11.686 78.2157 11.686C77.7397 11.686 77.315 11.7933 76.9417 12.008C76.5683 12.2227 76.2697 12.526 76.0457 12.918C75.8217 13.3007 75.7097 13.758 75.7097 14.29C75.7097 14.8127 75.8217 15.2747 76.0457 15.676C76.2697 16.068 76.5683 16.3713 76.9417 16.586C77.315 16.8007 77.7397 16.908 78.2157 16.908ZM80.7497 18V15.998L80.8337 14.276L80.6937 12.554V7.612H82.0377V18H80.7497Z" fill="#FFCC00"/>
</svg>
