<svg width="24" height="24" viewBox="0 0 24 24" fill="none" xmlns="http://www.w3.org/2000/svg">
<path d="M13.9727 20.572H20.6579V22.2863H13.9727V20.572ZM13.9727 17.1434H24.0006V18.8577H13.9727V17.1434ZM13.9727 13.7148H24.0006V15.4291H13.9727V13.7148Z" fill="#AFE5FF"/>
<path d="M16.1023 7.90029L12.3009 0L8.49949 7.90029L0 9.16714L6.15045 15.3171L4.69807 24L10.6296 20.802V18.8649L6.91842 20.8663L7.79753 15.6069L7.94628 14.718L7.31703 14.0897L3.59166 10.3637L8.74016 9.59657L9.60924 9.46714L9.99866 8.65886L12.3009 3.87343L14.6031 8.65886L14.9926 9.46714L15.8616 9.59657L22.0906 10.5266L22.3288 8.82857L16.1023 7.90029Z" fill="#AFE5FF"/>
</svg>
