<svg width="31" height="31" viewBox="0 0 31 31" fill="none" xmlns="http://www.w3.org/2000/svg">
<path d="M1 26.375V4.625C1 3.66359 1.4774 2.74156 2.32717 2.06174C3.17695 1.38192 4.32949 1 5.53125 1H28.1875C28.6682 1 29.1292 1.15277 29.4691 1.4247C29.809 1.69662 30 2.06544 30 2.45V28.55C30 28.9346 29.809 29.3034 29.4691 29.5753C29.1292 29.8472 28.6682 30 28.1875 30H5.53125C4.32949 30 3.17695 29.6181 2.32717 28.9383C1.4774 28.2584 1 27.3364 1 26.375ZM1 26.375C1 25.4136 1.4774 24.4916 2.32717 23.8117C3.17695 23.1319 4.32949 22.75 5.53125 22.75H30" stroke="#FF8800" stroke-width="2" stroke-linecap="round" stroke-linejoin="round"/>
</svg>
