<svg width="14" height="14" viewBox="0 0 14 14" fill="none" xmlns="http://www.w3.org/2000/svg">
<path d="M0.75 11.25V2.25C0.75 1.85218 0.947544 1.47064 1.29917 1.18934C1.65081 0.908035 2.12772 0.75 2.625 0.75H12C12.1989 0.75 12.3897 0.813214 12.5303 0.925736C12.671 1.03826 12.75 1.19087 12.75 1.35V12.15C12.75 12.3091 12.671 12.4617 12.5303 12.5743C12.3897 12.6868 12.1989 12.75 12 12.75H2.625C2.12772 12.75 1.65081 12.592 1.29917 12.3107C0.947544 12.0294 0.75 11.6478 0.75 11.25ZM0.75 11.25C0.75 10.8522 0.947544 10.4706 1.29917 10.1893C1.65081 9.90804 2.12772 9.75 2.625 9.75H12.75" stroke="#1980B2" stroke-width="1.5" stroke-linecap="round" stroke-linejoin="round"/>
</svg>
