<svg width="66" height="16" viewBox="0 0 66 16" fill="none" xmlns="http://www.w3.org/2000/svg">
<rect width="66" height="16" rx="8" fill="#FFE3D4"/>
<path d="M7 10.25V5.75C7 5.55109 7.09877 5.36032 7.27459 5.21967C7.4504 5.07902 7.68886 5 7.9375 5H12.625C12.7245 5 12.8198 5.03161 12.8902 5.08787C12.9605 5.14413 13 5.22044 13 5.3V10.7C13 10.7796 12.9605 10.8559 12.8902 10.9121C12.8198 10.9684 12.7245 11 12.625 11H7.9375C7.68886 11 7.4504 10.921 7.27459 10.7803C7.09877 10.6397 7 10.4489 7 10.25ZM7 10.25C7 10.0511 7.09877 9.86032 7.27459 9.71967C7.4504 9.57902 7.68886 9.5 7.9375 9.5H13" stroke="#FF8800" stroke-width="0.5" stroke-linecap="round" stroke-linejoin="round"/>
<path d="M19.048 9.568C19.048 9.824 18.9867 10.0667 18.864 10.296C18.7467 10.52 18.5627 10.704 18.312 10.848C18.0613 10.9867 17.7493 11.056 17.376 11.056C17.0133 11.056 16.6907 10.9893 16.408 10.856C16.1253 10.7227 15.8987 10.5413 15.728 10.312C15.5627 10.0773 15.4667 9.816 15.44 9.528H16.032C16.0533 9.69333 16.1147 9.85867 16.216 10.024C16.3173 10.1893 16.464 10.328 16.656 10.44C16.848 10.5467 17.08 10.6 17.352 10.6C17.7093 10.6 17.9813 10.504 18.168 10.312C18.36 10.12 18.456 9.87733 18.456 9.584C18.456 9.33333 18.392 9.13067 18.264 8.976C18.1413 8.816 17.9867 8.69333 17.8 8.608C17.6187 8.52267 17.368 8.42933 17.048 8.328C16.696 8.216 16.4107 8.10933 16.192 8.008C15.9787 7.90133 15.7973 7.74667 15.648 7.544C15.4987 7.34133 15.424 7.072 15.424 6.736C15.424 6.30933 15.5733 5.96267 15.872 5.696C16.1707 5.42933 16.5813 5.296 17.104 5.296C17.6373 5.296 18.0587 5.42667 18.368 5.688C18.6827 5.94933 18.8693 6.27467 18.928 6.664H18.328C18.28 6.424 18.152 6.21067 17.944 6.024C17.7413 5.83733 17.4613 5.744 17.104 5.744C16.7733 5.744 16.5093 5.82933 16.312 6C16.1147 6.17067 16.016 6.408 16.016 6.712C16.016 6.952 16.0773 7.14667 16.2 7.296C16.3227 7.44533 16.472 7.56 16.648 7.64C16.8293 7.72 17.0747 7.81067 17.384 7.912C17.7413 8.024 18.0293 8.13333 18.248 8.24C18.472 8.34667 18.6613 8.50667 18.816 8.72C18.9707 8.93333 19.048 9.216 19.048 9.568ZM21.6769 6.576C22.2316 6.576 22.6903 6.72267 23.0529 7.016C23.4209 7.30933 23.6449 7.69867 23.7249 8.184H23.1409C23.0823 7.83733 22.9196 7.56533 22.6529 7.368C22.3863 7.16533 22.0583 7.064 21.6689 7.064C21.3863 7.064 21.1249 7.128 20.8849 7.256C20.6503 7.384 20.4609 7.58133 20.3169 7.848C20.1783 8.10933 20.1089 8.432 20.1089 8.816C20.1089 9.2 20.1783 9.52533 20.3169 9.792C20.4609 10.0533 20.6503 10.248 20.8849 10.376C21.1249 10.504 21.3863 10.568 21.6689 10.568C22.0583 10.568 22.3863 10.4693 22.6529 10.272C22.9196 10.0693 23.0823 9.79467 23.1409 9.448H23.7249C23.6449 9.93333 23.4209 10.3227 23.0529 10.616C22.6903 10.9093 22.2316 11.056 21.6769 11.056C21.2609 11.056 20.8903 10.968 20.5649 10.792C20.2449 10.6107 19.9943 10.352 19.8129 10.016C19.6316 9.67467 19.5409 9.27467 19.5409 8.816C19.5409 8.35733 19.6316 7.96 19.8129 7.624C19.9943 7.28267 20.2449 7.024 20.5649 6.848C20.8903 6.66667 21.2609 6.576 21.6769 6.576ZM26.5973 6.552C27.104 6.552 27.5146 6.71467 27.8293 7.04C28.1493 7.36 28.3093 7.832 28.3093 8.456V11H27.7573V8.496C27.7573 8.02133 27.6373 7.65867 27.3973 7.408C27.1573 7.152 26.8293 7.024 26.4133 7.024C25.976 7.024 25.6266 7.16533 25.3653 7.448C25.1093 7.72533 24.9813 8.136 24.9813 8.68V11H24.4133V5.08H24.9813V7.704C25.0933 7.33067 25.296 7.04533 25.5893 6.848C25.8826 6.65067 26.2186 6.552 26.5973 6.552ZM31.1474 6.576C31.5634 6.576 31.9341 6.66667 32.2594 6.848C32.5901 7.024 32.8488 7.28267 33.0354 7.624C33.2221 7.96 33.3154 8.35733 33.3154 8.816C33.3154 9.27467 33.2221 9.672 33.0354 10.008C32.8488 10.344 32.5901 10.6027 32.2594 10.784C31.9341 10.9653 31.5634 11.056 31.1474 11.056C30.7314 11.056 30.3581 10.9653 30.0274 10.784C29.6968 10.6027 29.4354 10.344 29.2434 10.008C29.0568 9.66667 28.9634 9.26933 28.9634 8.816C28.9634 8.35733 29.0568 7.96 29.2434 7.624C29.4354 7.28267 29.6968 7.024 30.0274 6.848C30.3581 6.66667 30.7314 6.576 31.1474 6.576ZM31.1474 7.064C30.8594 7.064 30.5928 7.128 30.3474 7.256C30.1021 7.384 29.9048 7.58133 29.7554 7.848C29.6061 8.10933 29.5314 8.432 29.5314 8.816C29.5314 9.2 29.6061 9.52267 29.7554 9.784C29.9048 10.0453 30.1021 10.24 30.3474 10.368C30.5928 10.496 30.8594 10.56 31.1474 10.56C31.4301 10.56 31.6914 10.496 31.9314 10.368C32.1768 10.24 32.3741 10.0453 32.5234 9.784C32.6728 9.52267 32.7474 9.2 32.7474 8.816C32.7474 8.432 32.6728 8.10933 32.5234 7.848C32.3741 7.58133 32.1768 7.384 31.9314 7.256C31.6914 7.128 31.4301 7.064 31.1474 7.064ZM35.9759 6.576C36.3919 6.576 36.7625 6.66667 37.0879 6.848C37.4185 7.024 37.6772 7.28267 37.8639 7.624C38.0505 7.96 38.1439 8.35733 38.1439 8.816C38.1439 9.27467 38.0505 9.672 37.8639 10.008C37.6772 10.344 37.4185 10.6027 37.0879 10.784C36.7625 10.9653 36.3919 11.056 35.9759 11.056C35.5599 11.056 35.1865 10.9653 34.8559 10.784C34.5252 10.6027 34.2639 10.344 34.0719 10.008C33.8852 9.66667 33.7919 9.26933 33.7919 8.816C33.7919 8.35733 33.8852 7.96 34.0719 7.624C34.2639 7.28267 34.5252 7.024 34.8559 6.848C35.1865 6.66667 35.5599 6.576 35.9759 6.576ZM35.9759 7.064C35.6879 7.064 35.4212 7.128 35.1759 7.256C34.9305 7.384 34.7332 7.58133 34.5839 7.848C34.4345 8.10933 34.3599 8.432 34.3599 8.816C34.3599 9.2 34.4345 9.52267 34.5839 9.784C34.7332 10.0453 34.9305 10.24 35.1759 10.368C35.4212 10.496 35.6879 10.56 35.9759 10.56C36.2585 10.56 36.5199 10.496 36.7599 10.368C37.0052 10.24 37.2025 10.0453 37.3519 9.784C37.5012 9.52267 37.5759 9.2 37.5759 8.816C37.5759 8.432 37.5012 8.10933 37.3519 7.848C37.2025 7.58133 37.0052 7.384 36.7599 7.256C36.5199 7.128 36.2585 7.064 35.9759 7.064ZM39.3963 5.08V11H38.8283V5.08H39.3963ZM42.6157 5.36V11H42.0477V5.36H42.6157ZM45.4929 10.504V11H44.9729C44.5516 11 44.2369 10.9013 44.0289 10.704C43.8209 10.5013 43.7169 10.1627 43.7169 9.688V7.12H43.0529V6.632H43.7169V5.528H44.2849V6.632H45.4849V7.12H44.2849V9.696C44.2849 10.0053 44.3409 10.2187 44.4529 10.336C44.5649 10.448 44.7623 10.504 45.0449 10.504H45.4929ZM47.9992 10.592C48.3939 10.592 48.7245 10.4933 48.9912 10.296C49.2579 10.0987 49.4179 9.832 49.4712 9.496H50.0632C49.9832 9.96 49.7619 10.336 49.3992 10.624C49.0365 10.912 48.5779 11.056 48.0232 11.056C47.6072 11.056 47.2365 10.968 46.9112 10.792C46.5912 10.6107 46.3405 10.352 46.1592 10.016C45.9779 9.67467 45.8872 9.27467 45.8872 8.816C45.8872 8.35733 45.9779 7.96 46.1592 7.624C46.3405 7.28267 46.5912 7.024 46.9112 6.848C47.2365 6.66667 47.6072 6.576 48.0232 6.576C48.4499 6.576 48.8179 6.66667 49.1272 6.848C49.4419 7.024 49.6792 7.26133 49.8392 7.56C50.0045 7.85867 50.0872 8.184 50.0872 8.536C50.0872 8.68533 50.0765 8.82133 50.0552 8.944H46.4392C46.4445 9.312 46.5192 9.62133 46.6632 9.872C46.8125 10.1173 47.0045 10.2987 47.2392 10.416C47.4739 10.5333 47.7272 10.592 47.9992 10.592ZM48.0232 7.032C47.7405 7.032 47.4819 7.09067 47.2472 7.208C47.0125 7.32533 46.8205 7.50667 46.6712 7.752C46.5272 7.992 46.4499 8.29333 46.4392 8.656H49.5272C49.5485 8.29867 49.4899 7.99733 49.3512 7.752C49.2125 7.50667 49.0259 7.32533 48.7912 7.208C48.5565 7.09067 48.3005 7.032 48.0232 7.032ZM56.0792 6.552C56.5805 6.552 56.9859 6.71467 57.2952 7.04C57.6099 7.36 57.7672 7.832 57.7672 8.456V11H57.2072V8.496C57.2072 8.02667 57.0925 7.66667 56.8632 7.416C56.6392 7.16533 56.3299 7.04 55.9352 7.04C55.5139 7.04 55.1779 7.17867 54.9272 7.456C54.6765 7.73333 54.5512 8.14133 54.5512 8.68V11H53.9992V8.496C53.9992 8.02667 53.8845 7.66667 53.6552 7.416C53.4312 7.16533 53.1219 7.04 52.7272 7.04C52.3059 7.04 51.9699 7.17867 51.7192 7.456C51.4685 7.73333 51.3432 8.14133 51.3432 8.68V11H50.7752V6.632H51.3432V7.672C51.4499 7.304 51.6419 7.02667 51.9192 6.84C52.2019 6.648 52.5272 6.552 52.8952 6.552C53.2792 6.552 53.6099 6.65333 53.8872 6.856C54.1645 7.05867 54.3565 7.35733 54.4632 7.752C54.5805 7.36267 54.7859 7.06667 55.0792 6.864C55.3725 6.656 55.7059 6.552 56.0792 6.552Z" fill="#FF8800"/>
</svg>
