<svg width="27" height="27" viewBox="0 0 27 27" fill="none" xmlns="http://www.w3.org/2000/svg">
<path fill-rule="evenodd" clip-rule="evenodd" d="M14.1676 26.1652L14.1552 26.1675L14.0753 26.2069L14.0528 26.2114L14.0371 26.2069L13.9572 26.1675C13.9452 26.1637 13.9362 26.1656 13.9302 26.1731L13.9257 26.1844L13.9066 26.6659L13.9122 26.6884L13.9234 26.703L14.0404 26.7862L14.0573 26.7907L14.0708 26.7862L14.1878 26.703L14.2013 26.685L14.2058 26.6659L14.1867 26.1855C14.1837 26.1735 14.1773 26.1667 14.1676 26.1652ZM14.4657 26.0381L14.4511 26.0404L14.2429 26.145L14.2317 26.1562L14.2283 26.1686L14.2486 26.6524L14.2542 26.6659L14.2632 26.6737L14.4893 26.7784C14.5036 26.7821 14.5144 26.7791 14.5219 26.7694L14.5264 26.7536L14.4882 26.0629C14.4844 26.0494 14.4769 26.0411 14.4657 26.0381ZM13.6613 26.0404C13.6564 26.0374 13.6504 26.0364 13.6448 26.0376C13.6391 26.0389 13.6342 26.0423 13.6309 26.0471L13.6242 26.0629L13.5859 26.7536C13.5867 26.7671 13.5931 26.7761 13.6051 26.7806L13.6219 26.7784L13.8481 26.6737L13.8593 26.6647L13.8638 26.6524L13.8829 26.1686L13.8796 26.1551L13.8683 26.1439L13.6613 26.0404Z" fill="#646464"/>
<path fill-rule="evenodd" clip-rule="evenodd" d="M11.8127 2.25C10.2878 2.25013 8.78514 2.61491 7.42995 3.31391C6.07477 4.0129 4.90639 5.02584 4.0223 6.26822C3.13821 7.5106 2.56405 8.94639 2.34771 10.4558C2.13137 11.9652 2.27913 13.5045 2.77866 14.9452C3.2782 16.3858 4.11502 17.6862 5.2193 18.7377C6.32359 19.7892 7.66333 20.5614 9.12674 20.9898C10.5902 21.4182 12.1348 21.4905 13.6318 21.2005C15.1288 20.9106 16.5348 20.2668 17.7324 19.323L21.8409 23.4315C22.0531 23.6364 22.3373 23.7498 22.6322 23.7473C22.9272 23.7447 23.2094 23.6264 23.418 23.4178C23.6265 23.2092 23.7449 22.927 23.7474 22.6321C23.75 22.3371 23.6366 22.0529 23.4317 21.8407L19.3232 17.7323C20.4347 16.3222 21.1267 14.6277 21.3202 12.8427C21.5136 11.0577 21.2006 9.25427 20.4169 7.63885C19.6333 6.02344 18.4107 4.66128 16.889 3.70826C15.3673 2.75524 13.6081 2.24988 11.8127 2.25ZM4.50016 11.8125C4.50016 9.8731 5.27059 8.01314 6.64194 6.64178C8.0133 5.27042 9.87327 4.5 11.8127 4.5C13.7521 4.5 15.612 5.27042 16.9834 6.64178C18.3547 8.01314 19.1252 9.8731 19.1252 11.8125C19.1252 13.7519 18.3547 15.6119 16.9834 16.9832C15.612 18.3546 13.7521 19.125 11.8127 19.125C9.87327 19.125 8.0133 18.3546 6.64194 16.9832C5.27059 15.6119 4.50016 13.7519 4.50016 11.8125Z" fill="#646464"/>
</svg>
