<svg width="34" height="38" viewBox="0 0 34 38" fill="none" xmlns="http://www.w3.org/2000/svg">
<path d="M32.1111 38H6.61111C4.85774 38 3.17617 37.2994 1.93635 36.0523C0.696526 34.8051 0 33.1137 0 31.35V5.7C0 4.18827 0.597022 2.73845 1.65973 1.66949C2.72243 0.600534 4.16377 0 5.66667 0H32.1111C32.6121 0 33.0925 0.200178 33.4468 0.556497C33.801 0.912816 34 1.39609 34 1.9V36.1C34 36.6039 33.801 37.0872 33.4468 37.4435C33.0925 37.7998 32.6121 38 32.1111 38ZM30.2222 34.2V28.5H6.61111C5.85966 28.5 5.13899 28.8003 4.60764 29.3347C4.07629 29.8692 3.77778 30.5941 3.77778 31.35C3.77778 32.1059 4.07629 32.8308 4.60764 33.3653C5.13899 33.8997 5.85966 34.2 6.61111 34.2H30.2222Z" fill="#FFCC00"/>
</svg>
