<svg width="38" height="38" viewBox="0 0 38 38" fill="none" xmlns="http://www.w3.org/2000/svg">
<path d="M18.9286 0C29.3828 0 37.8571 8.47432 37.8571 18.9286C37.8571 29.3828 29.3828 37.8571 18.9286 37.8571C8.47432 37.8571 0 29.3828 0 18.9286C0 8.47432 8.47432 0 18.9286 0ZM18.9286 7.57143C18.4266 7.57143 17.9451 7.77085 17.5901 8.12583C17.2351 8.48081 17.0357 8.96227 17.0357 9.46429V18.9286C17.0358 19.4305 17.2353 19.9119 17.5903 20.2668L23.2689 25.9454C23.6259 26.2902 24.104 26.481 24.6003 26.4767C25.0966 26.4724 25.5714 26.2733 25.9223 25.9223C26.2733 25.5714 26.4724 25.0966 26.4767 24.6003C26.481 24.104 26.2902 23.6259 25.9454 23.2689L20.8214 18.1449V9.46429C20.8214 8.96227 20.622 8.48081 20.267 8.12583C19.912 7.77085 19.4306 7.57143 18.9286 7.57143Z" fill="#047EAF"/>
</svg>
