<svg width="40" height="40" viewBox="0 0 40 40" fill="none" xmlns="http://www.w3.org/2000/svg">
<path d="M4.41667 39.75C3.20208 39.75 2.16269 39.3179 1.2985 38.4537C0.434306 37.5895 0.00147222 36.5494 0 35.3333V7.78439C0 7.26911 0.0831804 6.77223 0.249542 6.29376C0.415903 5.81529 0.663972 5.37362 0.99375 4.96876L3.75417 1.60105C4.15903 1.08578 4.66474 0.689748 5.27129 0.41297C5.87785 0.136192 6.51311 -0.00146054 7.17708 1.16843e-05H32.5729C33.2354 1.16843e-05 33.8707 0.1384 34.4787 0.415178C35.0867 0.691956 35.5924 1.08725 35.9958 1.60105L38.7563 4.96876C39.0875 5.37362 39.3363 5.81529 39.5027 6.29376C39.669 6.77223 39.7515 7.26911 39.75 7.78439V35.3333C39.75 36.5479 39.3179 37.5881 38.4537 38.4537C37.5895 39.3194 36.5494 39.7515 35.3333 39.75H4.41667ZM5.3 6.62501H34.45L32.5729 4.41668H7.17708L5.3 6.62501ZM28.7083 11.0417H11.0417V28.7083L19.875 24.2917L28.7083 28.7083V11.0417Z" fill="#AF0404"/>
</svg>
