<svg width="110" height="25" viewBox="0 0 110 25" fill="none" xmlns="http://www.w3.org/2000/svg">
<rect width="110" height="25" rx="6" fill="#FFD4EF"/>
<path d="M21.53 18.112C20.242 18.112 19.2293 17.7433 18.492 17.006C17.7547 16.2687 17.386 15.1907 17.386 13.772V8.2H18.786V13.716C18.786 14.808 19.024 15.606 19.5 16.11C19.9853 16.614 20.6667 16.866 21.544 16.866C22.4307 16.866 23.112 16.614 23.588 16.11C24.0733 15.606 24.316 14.808 24.316 13.716V8.2H25.674V13.772C25.674 15.1907 25.3053 16.2687 24.568 17.006C23.84 17.7433 22.8273 18.112 21.53 18.112ZM28.3482 18V10.58H29.6362V12.582L29.4262 12.05C29.6689 11.5647 30.0422 11.1867 30.5462 10.916C31.0502 10.6453 31.6382 10.51 32.3102 10.51C32.9169 10.51 33.4489 10.6267 33.9062 10.86C34.3729 11.0933 34.7369 11.448 34.9982 11.924C35.2596 12.4 35.3902 13.002 35.3902 13.73V18H34.0462V13.884C34.0462 13.1653 33.8689 12.624 33.5142 12.26C33.1689 11.896 32.6789 11.714 32.0442 11.714C31.5682 11.714 31.1529 11.8073 30.7982 11.994C30.4436 12.1807 30.1682 12.456 29.9722 12.82C29.7856 13.184 29.6922 13.6367 29.6922 14.178V18H28.3482ZM41.1115 18.084C40.3555 18.084 39.6788 17.9207 39.0815 17.594C38.4935 17.2673 38.0315 16.8193 37.6955 16.25C37.3595 15.6807 37.1915 15.0273 37.1915 14.29C37.1915 13.5527 37.3595 12.8993 37.6955 12.33C38.0315 11.7607 38.4935 11.3173 39.0815 11C39.6788 10.6733 40.3555 10.51 41.1115 10.51C41.7835 10.51 42.3808 10.6453 42.9035 10.916C43.4355 11.1773 43.8462 11.5693 44.1355 12.092L43.1135 12.75C42.8708 12.386 42.5722 12.12 42.2175 11.952C41.8722 11.7747 41.4988 11.686 41.0975 11.686C40.6122 11.686 40.1782 11.7933 39.7955 12.008C39.4128 12.2227 39.1095 12.526 38.8855 12.918C38.6615 13.3007 38.5495 13.758 38.5495 14.29C38.5495 14.822 38.6615 15.284 38.8855 15.676C39.1095 16.068 39.4128 16.3713 39.7955 16.586C40.1782 16.8007 40.6122 16.908 41.0975 16.908C41.4988 16.908 41.8722 16.824 42.2175 16.656C42.5722 16.4787 42.8708 16.208 43.1135 15.844L44.1355 16.488C43.8462 17.0013 43.4355 17.398 42.9035 17.678C42.3808 17.9487 41.7835 18.084 41.1115 18.084ZM45.7799 18V7.612H47.1239V18H45.7799ZM54.296 18V16.432L54.226 16.138V13.464C54.226 12.8947 54.058 12.456 53.722 12.148C53.3953 11.8307 52.9007 11.672 52.238 11.672C51.7993 11.672 51.37 11.7467 50.95 11.896C50.53 12.036 50.1753 12.2273 49.886 12.47L49.326 11.462C49.7087 11.154 50.166 10.9207 50.698 10.762C51.2393 10.594 51.804 10.51 52.392 10.51C53.4093 10.51 54.1933 10.7573 54.744 11.252C55.2947 11.7467 55.57 12.5027 55.57 13.52V18H54.296ZM51.86 18.084C51.3093 18.084 50.824 17.9907 50.404 17.804C49.9933 17.6173 49.676 17.3607 49.452 17.034C49.228 16.698 49.116 16.32 49.116 15.9C49.116 15.4987 49.2093 15.1347 49.396 14.808C49.592 14.4813 49.9047 14.22 50.334 14.024C50.7727 13.828 51.3607 13.73 52.098 13.73H54.45V14.696H52.154C51.482 14.696 51.0293 14.808 50.796 15.032C50.5627 15.256 50.446 15.5267 50.446 15.844C50.446 16.208 50.5907 16.502 50.88 16.726C51.1693 16.9407 51.5707 17.048 52.084 17.048C52.588 17.048 53.0267 16.936 53.4 16.712C53.7827 16.488 54.058 16.1613 54.226 15.732L54.492 16.656C54.3147 17.0947 54.002 17.4447 53.554 17.706C53.106 17.958 52.5413 18.084 51.86 18.084ZM58.0572 18V10.58H59.4012V18H58.0572ZM58.7292 9.152C58.4679 9.152 58.2485 9.068 58.0712 8.9C57.9032 8.732 57.8192 8.52667 57.8192 8.284C57.8192 8.032 57.9032 7.822 58.0712 7.654C58.2485 7.486 58.4679 7.402 58.7292 7.402C58.9905 7.402 59.2052 7.486 59.3732 7.654C59.5505 7.81267 59.6392 8.01333 59.6392 8.256C59.6392 8.508 59.5552 8.72267 59.3872 8.9C59.2192 9.068 58.9999 9.152 58.7292 9.152ZM61.9674 18V10.58H63.2554V12.554L63.0454 12.05C63.2787 11.5647 63.638 11.1867 64.1234 10.916C64.6087 10.6453 65.1734 10.51 65.8174 10.51C66.5267 10.51 67.138 10.6873 67.6514 11.042C68.1647 11.3873 68.5007 11.9147 68.6594 12.624L68.1134 12.4C68.3374 11.8307 68.7294 11.3733 69.2894 11.028C69.8494 10.6827 70.5027 10.51 71.2494 10.51C71.8467 10.51 72.374 10.6267 72.8314 10.86C73.2887 11.0933 73.6434 11.448 73.8954 11.924C74.1567 12.4 74.2874 13.002 74.2874 13.73V18H72.9434V13.884C72.9434 13.1653 72.7754 12.624 72.4394 12.26C72.1034 11.896 71.632 11.714 71.0254 11.714C70.5774 11.714 70.1854 11.8073 69.8494 11.994C69.5134 12.1807 69.252 12.456 69.0654 12.82C68.888 13.184 68.7994 13.6367 68.7994 14.178V18H67.4554V13.884C67.4554 13.1653 67.2874 12.624 66.9514 12.26C66.6247 11.896 66.1534 11.714 65.5374 11.714C65.0987 11.714 64.7114 11.8073 64.3754 11.994C64.0394 12.1807 63.778 12.456 63.5914 12.82C63.4047 13.184 63.3114 13.6367 63.3114 14.178V18H61.9674ZM80.0643 18.084C79.271 18.084 78.571 17.9207 77.9643 17.594C77.367 17.2673 76.9003 16.8193 76.5643 16.25C76.2377 15.6807 76.0743 15.0273 76.0743 14.29C76.0743 13.5527 76.233 12.8993 76.5503 12.33C76.877 11.7607 77.3203 11.3173 77.8803 11C78.4497 10.6733 79.089 10.51 79.7983 10.51C80.517 10.51 81.1517 10.6687 81.7023 10.986C82.253 11.3033 82.6823 11.7513 82.9903 12.33C83.3077 12.8993 83.4663 13.5667 83.4663 14.332C83.4663 14.388 83.4617 14.4533 83.4523 14.528C83.4523 14.6027 83.4477 14.6727 83.4383 14.738H77.1243V13.772H82.7383L82.1923 14.108C82.2017 13.632 82.1037 13.2073 81.8983 12.834C81.693 12.4607 81.4083 12.1713 81.0443 11.966C80.6897 11.7513 80.2743 11.644 79.7983 11.644C79.3317 11.644 78.9163 11.7513 78.5523 11.966C78.1883 12.1713 77.9037 12.4653 77.6983 12.848C77.493 13.2213 77.3903 13.6507 77.3903 14.136V14.36C77.3903 14.8547 77.5023 15.298 77.7263 15.69C77.9597 16.0727 78.2817 16.3713 78.6923 16.586C79.103 16.8007 79.5743 16.908 80.1063 16.908C80.545 16.908 80.9417 16.8333 81.2963 16.684C81.6603 16.5347 81.9777 16.3107 82.2483 16.012L82.9903 16.88C82.6543 17.272 82.2343 17.5707 81.7303 17.776C81.2357 17.9813 80.6803 18.084 80.0643 18.084ZM88.3986 18.084C87.6799 18.084 87.0359 17.9253 86.4666 17.608C85.9066 17.2907 85.4633 16.8473 85.1366 16.278C84.8099 15.7087 84.6466 15.046 84.6466 14.29C84.6466 13.534 84.8099 12.876 85.1366 12.316C85.4633 11.7467 85.9066 11.3033 86.4666 10.986C87.0359 10.6687 87.6799 10.51 88.3986 10.51C89.0239 10.51 89.5886 10.65 90.0926 10.93C90.5966 11.21 90.9979 11.63 91.2966 12.19C91.6046 12.75 91.7586 13.45 91.7586 14.29C91.7586 15.13 91.6093 15.83 91.3106 16.39C91.0213 16.95 90.6246 17.3747 90.1206 17.664C89.6166 17.944 89.0426 18.084 88.3986 18.084ZM88.5106 16.908C88.9773 16.908 89.3973 16.8007 89.7706 16.586C90.1533 16.3713 90.4519 16.068 90.6666 15.676C90.8906 15.2747 91.0026 14.8127 91.0026 14.29C91.0026 13.758 90.8906 13.3007 90.6666 12.918C90.4519 12.526 90.1533 12.2227 89.7706 12.008C89.3973 11.7933 88.9773 11.686 88.5106 11.686C88.0346 11.686 87.6099 11.7933 87.2366 12.008C86.8633 12.2227 86.5646 12.526 86.3406 12.918C86.1166 13.3007 86.0046 13.758 86.0046 14.29C86.0046 14.8127 86.1166 15.2747 86.3406 15.676C86.5646 16.068 86.8633 16.3713 87.2366 16.586C87.6099 16.8007 88.0346 16.908 88.5106 16.908ZM91.0446 18V15.998L91.1286 14.276L90.9886 12.554V7.612H92.3326V18H91.0446Z" fill="#FF00FB"/>
</svg>
